<ttFont>
<head>
    <!-- Most of this table will be recalculated by the compiler -->
    <tableVersion value="1.0"/>
    <fontRevision value="1.0"/>
    <checkSumAdjustment value="0x39210885"/>
    <magicNumber value="0x5f0f3cf5"/>
    <flags value="00000000 00000011"/>
    <unitsPerEm value="2048"/>
    <created value="Thu Aug 15 19:14:36 2019"/>
    <modified value="Fri Aug 16 02:19:05 2019"/>
    <xMin value="-399"/>
    <yMin value="-548"/>
    <xMax value="3149"/>
    <yMax value="1951"/>
<macStyle value="00000000 00000010"/>
    <lowestRecPPEM value="3"/>
    <fontDirectionHint value="2"/>
    <indexToLocFormat value="0"/>
    <glyphDataFormat value="0"/>
  </head>
          <CharString index="0">
            140 116 94 175 64 vhcurveto
            -1 -1 -15 -69 -1 vvcurveto
            -129 -29 44 -65 102 hhcurveto
            return
          </CharString>
          <CharString index="1">
            10 49 rlineto
            -30 -33 -51 -14 return
          </CharString>
          <CharString index="2">
            83 99 39 57 43 hvcurveto
            return
          </CharString>
          <CharString index="3">
            rmoveto
            200 callsubr
            16 -143 -28 -40 -139 -17 rlinecurve
            -9 -47 516 0 9 47 -95 13 -31 28 -21 158 rlinecurve
            return
          </CharString>
          <CharString index="4">
            82 -32 callgsubr
            -33 hhcurveto
            -46 -19 31 58 return
          </CharString>
          <CharString index="5">
            -34 hhcurveto
            -46 -19 31 58 13 hvcurveto
            return
          </CharString>
          <CharString index="6">
            rmoveto
            -221 110 -134 147 return
          </CharString>
          <CharString index="7">
            12 hvcurveto
            175 815 return
          </CharString>
          <CharString index="8">
            48 callsubr
            endchar
          </CharString>
          <CharString index="9">
            35 callsubr
            endchar
          </CharString>
          <CharString index="10">
            rmoveto
            64 callsubr
            381 98 callsubr
            145 callsubr
            endchar
          </CharString>
          <CharString index="11">
            41 callgsubr
            -18 -83 -1 vvcurveto
            -129 -29 44 -65 102 hhcurveto
            return
          </CharString>
          <CharString index="12">
            rmoveto
            -50 callsubr
            132 callsubr
            endchar
          </CharString>
          <CharString index="13">
            -28 callsubr
            endchar
          </CharString>
          <CharString index="14">
            rmoveto
            51 callgsubr
            return
          </CharString>
          <CharString index="15">
            rmoveto
            -978 hlineto
            -21 callsubr
            1027 -30 callsubr
            endchar
          </CharString>
          <CharString index="16">
            32 callsubr
            endchar
          </CharString>
          <CharString index="17">
            rmoveto
            323 212 215 347 78 hvcurveto
            149 660 34 147 24 33 129 19 rlinecurve
            10 47 -390 0 -10 -47 rlineto
            138 -20 9 -32 -29 -147 -132 -647 rcurveline
            -317 -64 -192 -162 90 callsubr
            -4 callgsubr
            endchar
          </CharString>
          <CharString index="18">
            127 -13 12 -20 12 callsubr
            50 callsubr
            endchar
          </CharString>
          <CharString index="19">
            1467 rmoveto
            -245 return
          </CharString>
          <CharString index="20">
            rmoveto
            235 1102 19 91 21 19 133 14 rlinecurve
            9 47 -500 0 -9 -47 return
          </CharString>
          <CharString index="21">
            1818 rmoveto
            -212 -271 return
          </CharString>
          <CharString index="22">
            rmoveto
            0 callsubr
            108 hhcurveto
            -103 callsubr
            13 hvcurveto
            endchar
          </CharString>
          <CharString index="23">
            rmoveto
            472 hlineto
            23 110 rlineto
            -472 hlineto
            endchar
          </CharString>
          <CharString index="24">
            1841 rmoveto
            -216 -154 return
          </CharString>
          <CharString index="25">
            183 336 -101 callsubr
            return
          </CharString>
          <CharString index="26">
            53 0 353 265 rlineto
            6 vlineto
            return
          </CharString>
          <CharString index="27">
            1547 rmoveto
            219 153 148 -153 49 0 return
          </CharString>
          <CharString index="28">
            -356 61 -86 callgsubr
            return
          </CharString>
          <CharString index="29">
            rmoveto
            -301 -44 -8 -45 67 -11 50 -11 15 -16 5 -52 rlinecurve
            83 -855 -125 -130 -186 -169 -136 -108 rlinecurve
            -9 202 vlineto
            105 141 97 125 94 120 48 60 46 60 43 57 rrcurveto
            294 392 122 238 144 vvcurveto
            73 -49 47 -65 -65 -49 -47 -62 vhcurveto
            -60 1 47 -45 61 hhcurveto
            11 11 1 3 9 hvcurveto
            -41 -166 -120 -207 -202 -271 rrcurveto
            endchar
          </CharString>
          <CharString index="30">
            rmoveto
            60 46 46 58 54 -43 41 -58 -59 -48 -46 -57 1 hvcurveto
            -54 43 -42 58 vhcurveto
            endchar
          </CharString>
          <CharString index="31">
            -145 154 -50 0 return
          </CharString>
          <CharString index="32">
            rmoveto
            195 -529 -106 -497 -19 -87 -22 -21 -154 -15 rlinecurve
            -9 -46 546 0 11 46 -149 16 -15 20 18 87 rlinecurve
            108 504 396 496 145 183 38 29 107 16 rlinecurve
            9 47 -386 0 -9 -47 136 -16 3 -40 -21 callgsubr
            endchar
          </CharString>
          <CharString index="33">
            1480 rmoveto
            -248 -206 return
          </CharString>
          <CharString index="34">
            -34 hhcurveto
            -45 -19 31 58 13 hvcurveto
            return
          </CharString>
          <CharString index="35">
            rmoveto
            -149 -366 66 0 return
          </CharString>
          <CharString index="36">
            rmoveto
            115 538 687 0 -115 -538 -19 -91 -23 -20 -127 -13 rlinecurve
            -9 -47 497 0 10 47 -124 14 -17 21 20 92 rlinecurve
            234 1097 20 91 24 21 131 14 rlinecurve
            9 47 -498 0 -10 -47 122 -13 14 -20 -19 -91 rlinecurve
            -107 -504 -688 0 108 5 callgsubr
            -234 -1097 -20 -92 -22 -21 -133 -14 rlinecurve
            -9 -47 return
          </CharString>
          <CharString index="37">
            386 rlineto
            -41 hlineto
            -112 -266 -107 -44 -304 -11 rrcurveto
            -290 -11 1034 1347 return
          </CharString>
          <CharString index="38">
            1111 rmoveto
            248 207 154 -207 54 0 -124 356 return
          </CharString>
          <CharString index="39">
            237 -91 9 43 -204 159 -38 0 -271 -159 rlineto
            return
          </CharString>
          <CharString index="40">
            rmoveto
            129 93 64 104 101 -74 61 -83 -61 -47 -21 -40 -37 hvcurveto
            return
          </CharString>
          <CharString index="41">
            -334 -44 -10 -45 72 -13 49 -12 10 -18 -10 -48 rlinecurve
            return
          </CharString>
          <CharString index="42">
            123 -271 106 0 236 271 rlineto
            return
          </CharString>
          <CharString index="43">
            rmoveto
            274 109 227 -109 11 52 return
          </CharString>
          <CharString index="44">
            276 1306 -338 -37 -10 -45 71 -13 rlineto
            50 -13 10 -17 -10 -48 -85 -400 rcurveline
            78 callgsubr
            return
          </CharString>
          <CharString index="45">
            -339 -37 -10 -45 71 -13 51 -13 10 -17 -11 -48 rlinecurve
            -278 -1308 191 0 return
          </CharString>
          <CharString index="46">
            -232 18 100 callsubr
            158 callsubr
            return
          </CharString>
          <CharString index="47">
            rmoveto
            -340 -44 -11 -45 72 -13 50 -12 10 -18 return
          </CharString>
          <CharString index="48">
            1188 rmoveto
            61 47 48 60 57 -43 43 return
          </CharString>
          <CharString index="49">
            -49 -48 -60 -56 44 -44 58 hvcurveto
            386 hmoveto
            return
          </CharString>
          <CharString index="50">
            664 1481 136 callsubr
            return
          </CharString>
          <CharString index="51">
            122 576 rlineto
            128 callsubr
            return
          </CharString>
          <CharString index="52">
            -9 -42 rlineto
            5 14 26 5 25 hhcurveto
            56 return
          </CharString>
          <CharString index="53">
            rmoveto
            -54 -44 -43 -54 -51 39 -40 53 54 return
          </CharString>
          <CharString index="54">
            1588 rmoveto
            54 44 43 55 51 return
          </CharString>
          <CharString index="55">
            1466 rmoveto
            -196 -8 hlineto
            return
          </CharString>
          <CharString index="56">
            -118 0 -274 -356 rlineto
            return
          </CharString>
          <CharString index="57">
            321 190 279 305 return
          </CharString>
          <CharString index="58">
            -48 -48 -60 -56 43 -44 58 hvcurveto
            return
          </CharString>
          <CharString index="59">
            rmoveto
            229 232 117 195 131 -79 87 -191 40 hvcurveto
            -170 36 -90 19 -24 30 -1 37 rlinecurve
            41 37 37 76 19 vhcurveto
            -7 31 34 -4 37 hhcurveto
            249 -2 146 170 196 vvcurveto
            79 -27 72 -53 54 vhcurveto
            232 -16 17 79 -310 -15 rlineto
            33 -54 -69 19 -84 hhcurveto
            -248 -1 -146 -167 -196 vvcurveto
            -124 69 -108 127 -48 vhcurveto
            -150 -33 -66 -64 2 -84 rrcurveto
            -67 40 -56 88 -31 vhcurveto
            -192 -34 -121 -82 -112 vvcurveto
            -152 190 -88 239 vhcurveto
            -39 1045 rmoveto
            175 76 177 134 106 52 -94 -124 -175 -77 -177 -134 -106 -51 95 123 vhcurveto
            -232 -790 rmoveto
            92 68 66 140 40 vhcurveto
            -1 3 3 -1 3 hhcurveto
            164 -33 rlineto
            141 -29 52 -57 -79 vvcurveto
            -118 -130 -76 -162 -167 -115 82 114 vhcurveto
            endchar
          </CharString>
          <CharString index="60">
            rmoveto
            -320 hlineto
            -9 -47 115 -17 18 -37 -24 -111 rlinecurve
            -217 -984 -33 -151 -25 -34 -128 -16 133 callsubr
            34 128 16 21 callgsubr
            endchar
          </CharString>
          <CharString index="61">
            rmoveto
            465 247 330 335 220 131 -117 -273 8 vhcurveto
            41 -3 58 313 rlineto
            75 -89 -184 106 callgsubr
            return
          </CharString>
          <CharString index="62">
            1818 rmoveto
            -213 -271 -81 callsubr
            return
          </CharString>
          <CharString index="63">
            rmoveto
            -55 -43 -43 -54 -51 39 -40 53 54 -13 callsubr
          </CharString>
          <CharString index="64">
            -48 hhcurveto
            -6 hlineto
            -48 -45 -38 -48 -10 hvcurveto
            -46 -10 29 -37 48 hhcurveto
            -19 callgsubr
            return
          </CharString>
          <CharString index="65">
            1473 rmoveto
            -80 -73 -40 -58 -38 hvcurveto
            -10 -44 rlineto
            27 32 42 16 return
          </CharString>
          <CharString index="66">
            1818 rmoveto
            -172 -7 hlineto
            236 -264 rlineto
            42 hlineto
            return
          </CharString>
          <CharString index="67">
            rmoveto
            229 186 145 -186 50 111 callgsubr
          </CharString>
          <CharString index="68">
            -10 -48 rlinecurve
            -160 -751 -57 -268 -59 -152 return
          </CharString>
          <CharString index="69">
            1182 rmoveto
            64 51 50 65 60 -46 45 return
          </CharString>
          <CharString index="70">
            -193 188 -37 0 -271 -188 rlineto
            return
          </CharString>
          <CharString index="71">
            -9 -48 rlineto
            2 3 17 1 6 hhcurveto
            70 return
          </CharString>
          <CharString index="72">
            -62 -64 -51 -50 -64 -60 46 -46 62 hvcurveto
            return
          </CharString>
          <CharString index="73">
            rmoveto
            53 -47 113 147 1 2 return
          </CharString>
          <CharString index="74">
            1588 97 callgsubr
            return
          </CharString>
          <CharString index="75">
            198 -7 -67 callgsubr
            return
          </CharString>
          <CharString index="76">
            rmoveto
            -422 -2 298 -252 350 hhcurveto
            176 177 54 74 93 hvcurveto
            86 399 18 87 20 22 120 14 rlinecurve
            9 46 -484 0 -10 -46 rlineto
            142 -16 10 -20 -19 -86 -84 -401 rcurveline
            -39 -50 -93 -20 -89 hhcurveto
            -261 -178 225 336 465 249 330 336 221 -33 callgsubr
            19 callgsubr
            endchar
          </CharString>
          <CharString index="77">
            0 99 386 rlineto
            -41 hlineto
            -108 -263 -87 -49 -288 -11 rrcurveto
            -236 -9 139 659 248 -4 -25 callgsubr
            60 -48 9 -226 rlinecurve
            41 hlineto
            return
          </CharString>
          <CharString index="78">
            1269 1513 1444 rmoveto
            -1143 hlineto
            41 callsubr
            97 callsubr
            49 callsubr
            91 callsubr
            return
          </CharString>
          <CharString index="79">
            -342 -48 -8 -41 71 -85 callgsubr
            -90 -420 rcurveline
            -178 -43 -109 -130 -135 hhcurveto
            -110 -37 81 137 29 hvcurveto
            return
          </CharString>
          <CharString index="80">
            105 407 rlineto
            -43 hlineto
            -113 -269 -103 -65 -238 -11 rrcurveto
            -215 -8 return
          </CharString>
          <CharString index="81">
            1177 rmoveto
            68 53 53 67 63 -48 48 -65 -67 -54 -53 -67 -63 return
          </CharString>
          <CharString index="82">
            rmoveto
            -301 -82 callgsubr
            179 callsubr
            endchar
          </CharString>
          <CharString index="83">
            -124 271 -108 0 -237 -271 rlineto
            return
          </CharString>
          <CharString index="84">
            -123 271 -109 0 -237 -271 rlineto
            return
          </CharString>
          <CharString index="85">
            39 -50 hhcurveto
            -52 -42 -42 -53 -49 38 -38 50 hvcurveto
            return
          </CharString>
          <CharString index="86">
            -10 -47 126 -14 14 -19 12 callsubr
            return
          </CharString>
          <CharString index="87">
            -39 40 -53 -54 -44 -43 -55 -51 40 -40 52 hvcurveto
            return
          </CharString>
          <CharString index="88">
            rmoveto
            60 47 46 58 -1 hvcurveto
            54 -43 41 -58 -59 return
          </CharString>
          <CharString index="89">
            -194 188 -36 0 -271 -188 rlineto
            return
          </CharString>
          <CharString index="90">
            19 26 35 43 hhcurveto
            28 109 callgsubr
            return
          </CharString>
          <CharString index="91">
            1516 827 33 callsubr
            return
          </CharString>
          <CharString index="92">
            -154 206 -54 0 124 -355 return
          </CharString>
          <CharString index="93">
            1182 rmoveto
            65 50 50 65 60 return
          </CharString>
          <CharString index="94">
            44 43 55 51 -40 39 -52 hvcurveto
            endchar
          </CharString>
          <CharString index="95">
            14 rlinecurve
            10 47 -498 0 -10 -47 return
          </CharString>
          <CharString index="96">
            -247 145 -185 237 return
          </CharString>
          <CharString index="97">
            -6 hlineto
            -46 -41 -31 -40 -9 hvcurveto
            return
          </CharString>
          <CharString index="98">
            rmoveto
            -55 -44 -43 -54 -51 40 -40 return
          </CharString>
          <CharString index="99">
            287 358 rlineto
            8 vlineto
            return
          </CharString>
          <CharString index="100">
            253 -347 rlineto
            50 hlineto
            return
          </CharString>
          <CharString index="101">
            rmoveto
            115 -1203 107 0 609 1184 96 -1184 107 0 616 1181 94 180 39 26 112 15 rlinecurve
            9 47 -394 0 -9 -47 136 -19 10 -33 -82 -166 rlinecurve
            -464 -946 -64 963 -10 156 16 28 135 17 rlinecurve
            9 47 -490 0 -10 -47 135 -21 9 -29 -80 -164 rlinecurve
            -463 -950 -72 964 -11 145 22 38 138 17 rlinecurve
            11 47 -512 0 -9 -47 95 -13 35 -27 15 -159 rlinecurve
            endchar
          </CharString>
          <CharString index="102">
            rmoveto
            117 553 143 -1 302 -723 286 0 9 43 -65 21 -45 47 -88 208 rlinecurve
            -229 541 352 321 155 141 70 56 111 19 rlinecurve
            9 47 -421 0 -9 -47 142 -13 -1 -50 -118 -115 rlinecurve
            -449 -439 -142 -1 105 494 19 91 23 20 123 13 rlinecurve
            10 47 -493 -43 callgsubr
            -234 -1102 116 callsubr
            492 0 10 47 -118 13 -14 20 20 91 rlinecurve
            endchar
          </CharString>
          <CharString index="103">
            259 1219 19 91 23 19 138 15 rlinecurve
            10 46 -508 0 -9 -47 rlineto
            127 -13 12 -19 -20 -94 -234 -1100 rcurveline
            -19 -90 -21 -20 -132 -14 -11 -47 rcurveline
            return
          </CharString>
          <CharString index="104">
            42 31 40 8 hvcurveto
            40 9 -28 31 -45 hhcurveto
            -7 hlineto
            -45 -42 47 callsubr
            41 31 40 -88 callgsubr
            return
          </CharString>
          <CharString index="105">
            rmoveto
            154 126 76 115 17 hvcurveto
            -51 hlineto
            -53 -15 -93 -36 -117 hhcurveto
            -115 -79 36 53 8 hvcurveto
            -51 hlineto
            -115 -33 95 -76 154 hhcurveto
            return
          </CharString>
          <CharString index="106">
            rmoveto
            124 124 55 89 65 hvcurveto
            10 51 rlineto
            122 callsubr
            -272 173 -136 189 hvcurveto
            endchar
          </CharString>
          <CharString index="107">
            -340 -44 -10 -45 71 -13 rlineto
            50 -12 10 -18 -10 -48 -132 -617 rcurveline
            -143 -31 46 -65 return
          </CharString>
          <CharString index="108">
            rmoveto
            -329 -98 callgsubr
            -10 -48 rlinecurve
            -173 -810 131 callsubr
            endchar
          </CharString>
          <CharString index="109">
            15 hvcurveto
            -97 -455 rlineto
            -195 -46 -105 -108 -101 hhcurveto
            -93 -54 70 179 hvcurveto
            return
          </CharString>
          <CharString index="110">
            -430 -2 284 -244 348 hhcurveto
            179 141 callsubr
          </CharString>
          <CharString index="111">
            -187 -78 rlinecurve
            15 -42 312 96 103 146 56 263 rlinecurve
            endchar
          </CharString>
          <CharString index="112">
            1597 rmoveto
            74 53 53 163 19 hvcurveto
            -45 hlineto
            -85 -14 return
          </CharString>
          <CharString index="113">
            1106 1031 hmoveto
            -27 callsubr
            -4 callsubr
            return
          </CharString>
          <CharString index="114">
            1459 rmoveto
            29 134 -538 -172 -11 -51 rlineto
            return
          </CharString>
          <CharString index="115">
            1219 rmoveto
            508 hlineto
            25 122 rlineto
            -507 hlineto
            return
          </CharString>
          <CharString index="116">
            48 hhcurveto
            69 35 -32 -49 -60 -61 -61 -97 -57 hvcurveto
            61 hlineto
            return
          </CharString>
          <CharString index="117">
            9 43 -951 36 callsubr
            -8 -43 rlineto
            endchar
          </CharString>
          <CharString index="118">
            -60 callgsubr
            -19 -27 144 callsubr
            return
          </CharString>
          <CharString index="119">
            -20 -91 rlinecurve
            -235 -1102 116 callsubr
            return
          </CharString>
          <CharString index="120">
            -45 45 -63 -63 -52 -50 -64 -60 47 -46 61 hvcurveto
            return
          </CharString>
          <CharString index="121">
            -356 62 0 402 347 rlineto
            9 vlineto
            return
          </CharString>
          <CharString index="122">
            1100 556 990 -93 callsubr
            return
          </CharString>
          <CharString index="123">
            613 446 171 -87 callsubr
            return
          </CharString>
          <CharString index="124">
            28 hvcurveto
            26 -22 rlineto
            -26 33 31 -17 42 hhcurveto
            return
          </CharString>
          <CharString index="125">
            rmoveto
            501 hlineto
            21 100 rlineto
            -501 hlineto
            return
          </CharString>
          <CharString index="126">
            61 47 48 60 57 -43 43 -58 -60 return
          </CharString>
          <CharString index="127">
            52 0 354 265 rlineto
            6 vlineto
            return
          </CharString>
          <CharString index="128">
            -47 -46 -57 -54 44 -42 57 vhcurveto
            endchar
          </CharString>
          <CharString index="129">
            1591 rmoveto
            51 42 41 53 return
          </CharString>
          <CharString index="130">
            286 358 rlineto
            8 vlineto
            endchar
          </CharString>
          <CharString index="131">
            17 -41 hhcurveto
            -73 -54 -54 -162 return
          </CharString>
          <CharString index="132">
            -52 -42 -41 -53 -49 38 -38 50 return
          </CharString>
          <CharString index="133">
            23 108 rlineto
            -457 hlineto
            return
          </CharString>
          <CharString index="134">
            rmoveto
            -147 -181 -47 -26 -110 -13 rrcurveto
            -10 -47 406 0 10 47 -143 21 0 31 116 153 rlinecurve
            314 408 176 -444 43 -108 -10 -39 -144 -22 rlinecurve
            -9 -47 512 0 9 47 -86 21 -35 23 -49 123 rlinecurve
            -213 537 358 433 143 173 46 27 110 13 rlinecurve
            10 47 -406 0 -10 -47 143 -21 1 -31 -117 -153 rlinecurve
            -299 -388 -167 424 -46 115 14 34 142 20 rlinecurve
            9 47 -515 0 -10 -47 rlineto
            94 -19 32 -25 48 -123 204 -516 rcurveline
            endchar
          </CharString>
          <CharString index="135">
            260 hlineto
            9 43 rlineto
            -71 20 -36 45 -85 217 -140 362 rcurveline
            219 55 160 127 215 vvcurveto
            225 -180 135 -314 vhcurveto
            -479 hlineto
            -9 -47 125 -14 14 -17 -19 -93 rlinecurve
            -236 -1102 -19 -93 -21 -17 -132 -14 rlinecurve
            -10 -47 493 0 10 47 rlineto
            -120 13 -12 19 19 92 102 482 rcurveline
            113 hlineto
            36 36 1 3 36 hvcurveto
            352 424 rmoveto
            -235 -170 -127 -273 -9 vhcurveto
            -118 -4 146 683 107 -3 rlineto
            197 -7 111 -114 -184 vvcurveto
            return
          </CharString>
          <CharString index="136">
            9 47 rlineto
            -146 13 -14 29 18 87 87 404 rcurveline
            124 hlineto
            353 333 139 330 231 -171 164 -350 hvcurveto
            -461 hlineto
            -10 -47 rlineto
            127 -14 14 -21 -20 -91 -234 -1097 rcurveline
            -20 -92 -22 -21 -133 -14 -9 -47 rcurveline
            651 1390 rmoveto
            97 -4 rlineto
            213 -8 112 -125 -193 vvcurveto
            -259 -180 -153 -296 -10 vhcurveto
            -107 -3 rlineto
            endchar
          </CharString>
          <CharString index="137">
            rmoveto
            -349 hlineto
            -10 -47 114 -15 18 -34 -27 -109 rlinecurve
            -240 -999 -35 -141 -28 -32 -131 -20 rlinecurve
            -9 -47 390 0 9 47 -133 20 -11 32 32 141 rlinecurve
            224 1033 212 -1273 83 0 135 239 594 1033 -205 -1103 -16 -89 -22 -18 -133 -15 rlinecurve
            -10 -47 498 0 9 47 -124 -9 callgsubr
            endchar
          </CharString>
          <CharString index="138">
            669 1444 rmoveto
            -320 hlineto
            -9 -47 115 -17 18 -37 -24 -111 rlinecurve
            -217 -984 -33 -151 -25 -34 -128 -16 133 callsubr
            34 128 16 21 callgsubr
            return
          </CharString>
          <CharString index="139">
            rmoveto
            125 121 55 89 66 hvcurveto
            10 51 rlineto
            127 callsubr
            -267 165 -139 193 vhcurveto
            134 956 rmoveto
            76 32 -43 -77 -146 -137 -113 -212 -66 hvcurveto
            -52 -16 rlineto
            248 19 116 213 158 hhcurveto
            return
          </CharString>
          <CharString index="140">
            rmoveto
            369 -272 248 -449 vhcurveto
            -432 hlineto
            -9 -47 rlineto
            125 -14 14 -18 -19 -92 -236 -1102 rcurveline
            -19 -91 -21 -19 -132 -14 -10 -47 rcurveline
            469 hlineto
            559 432 334 493 hvcurveto
            return
          </CharString>
          <CharString index="141">
            rmoveto
            -342 -42 -9 -45 72 -85 callgsubr
            -103 -488 rcurveline
            -207 -43 77 -135 187 hhcurveto
            145 134 99 184 73 hvcurveto
            -1 -18 169 callsubr
            endchar
          </CharString>
          <CharString index="142">
            172 803 -91 0 -98 -92 rlineto
            56 -27 -67 54 -126 hhcurveto
            -307 -199 -324 -336 hvcurveto
            -32 callsubr
            2 callsubr
            return
          </CharString>
          <CharString index="143">
            0 -88 -347 rlineto
            42 hlineto
            93 217 79 52 262 11 rrcurveto
            306 13 -1032 -1347 return
          </CharString>
          <CharString index="144">
            1394 rmoveto
            81 72 56 121 26 hvcurveto
            -50 hlineto
            -53 -12 -32 -21 -83 callgsubr
            return
          </CharString>
          <CharString index="145">
            rmoveto
            -381 1 246 -269 376 hhcurveto
            64 callsubr
            176 callsubr
            endchar
          </CharString>
          <CharString index="146">
            hlineto
            -63 -16 -93 -42 -114 hhcurveto
            -112 -76 42 63 10 hvcurveto
            -50 hlineto
            -136 -37 return
          </CharString>
          <CharString index="147">
            59 122 hhcurveto
            96 65 -53 -74 -12 -1 -11 -2 -9 hvcurveto
            46 hlineto
            11 return
          </CharString>
          <CharString index="148">
            -86 -347 rlineto
            42 hlineto
            87 221 82 55 275 14 rrcurveto
            56 3 return
          </CharString>
          <CharString index="149">
            rmoveto
            -418 -90 237 -193 304 hhcurveto
            172 callsubr
            endchar
          </CharString>
          <CharString index="150">
            -61 -39 52 144 -1 hvcurveto
            226 1 77 253 124 hhcurveto
            return
          </CharString>
          <CharString index="151">
            -47 hlineto
            -13 -30 -8 -37 -34 vvcurveto
            -129 97 -94 140 vhcurveto
            return
          </CharString>
          <CharString index="152">
            rmoveto
            229 186 144 -186 51 111 callgsubr
          </CharString>
          <CharString index="153">
            1629 rmoveto
            458 hlineto
            23 108 rlineto
            -458 hlineto
            return
          </CharString>
          <CharString index="154">
            -31 -40 -9 hvcurveto
            -40 -9 28 -31 46 hhcurveto
            299 hmoveto
            46 return
          </CharString>
          <CharString index="155">
            -681 328 rmoveto
            347 649 77 -649 rlineto
            return
          </CharString>
          <CharString index="156">
            547 0 10 46 -149 16 -14 20 18 87 rlinecurve
            return
          </CharString>
          <CharString index="157">
            500 0 10 47 -127 14 -12 19 19 91 rlinecurve
            return
          </CharString>
          <CharString index="158">
            39 -50 -51 -42 -42 -53 -1 vhcurveto
            -49 38 -38 50 vhcurveto
            return
          </CharString>
          <CharString index="159">
            1142 rmoveto
            170 106 75 callgsubr
            return
          </CharString>
          <CharString index="160">
            148 54 91 72 91 vvcurveto
            80 -65 61 -102 vhcurveto
            return
          </CharString>
          <CharString index="161">
            rmoveto
            190 11 142 141 179 vvcurveto
            102 return
          </CharString>
          <CharString index="162">
            1467 rmoveto
            -244 -79 callsubr
            return
          </CharString>
          <CharString index="163">
            -108 -72 62 84 13 2 14 2 9 hvcurveto
            return
          </CharString>
          <CharString index="164">
            301 hmoveto
            51 41 41 53 1 hvcurveto
            49 -37 return
          </CharString>
          <CharString index="165">
            40 -30 -50 -52 -45 -30 -64 -50 -41 21 21 return
          </CharString>
          <CharString index="166">
            hlineto
            94 16 25 31 39 hhcurveto
            27 21 -12 -27 return
          </CharString>
          <CharString index="167">
            1862 rmoveto
            -70 -65 -34 -48 -33 hvcurveto
            return
          </CharString>
          <CharString index="168">
            641 434 -17 80 callsubr
            return
          </CharString>
          <CharString index="169">
            -25 11 rlineto
            16 -36 -37 10 -44 hhcurveto
            return
          </CharString>
          <CharString index="170">
            -46 -10 hvcurveto
            -48 -10 29 -37 48 hhcurveto
            return
          </CharString>
          <CharString index="171">
            444 306 393 441 return
          </CharString>
          <CharString index="172">
            -19 -93 -21 -18 -131 -13 rlinecurve
            return
          </CharString>
          <CharString index="173">
            -27 hvcurveto
            -27 22 rlineto
            27 -33 -32 return
          </CharString>
          <CharString index="174">
            -44 -43 -55 -51 40 -40 53 hvcurveto
            return
          </CharString>
          <CharString index="175">
            -62 -84 -13 -1 -14 -3 -9 hvcurveto
            return
          </CharString>
          <CharString index="176">
            rmoveto
            -58 42 -44 62 76 55 49 198 115 vhcurveto
            92 159 51 -166 rlineto
            -172 54 51 -66 105 hhcurveto
            82 63 40 55 34 hvcurveto
            10 49 rlineto
            -25 -22 -34 -16 -33 hhcurveto
            -50 -41 33 141 -43 hvcurveto
            -81 264 119 196 46 76 34 49 29 31 rlinecurve
            -50 6 42 -38 51 hhcurveto
            56 46 47 58 59 -43 43 -62 -76 -57 -48 -199 -112 hvcurveto
            -96 -168 -124 407 -280 -42 -9 -45 71 -10 51 -10 15 -16 17 -54 rlinecurve
            112 -366 -115 -188 -46 -75 -34 -49 -28 -32 rlinecurve
            51 -7 -41 38 -52 hhcurveto
            -56 -45 -47 -59 hvcurveto
            endchar
          </CharString>
          <CharString index="177">
            rmoveto
            260 243 155 272 155 -74 119 -175 121 hvcurveto
            -103 74 rlineto
            -140 95 -51 83 105 vvcurveto
            150 113 95 170 187 112 -124 -236 10 vhcurveto
            40 hlineto
            47 315 rlineto
            63 -75 -146 50 -177 hhcurveto
            -282 -194 -153 -242 -153 88 -117 164 -114 hvcurveto
            104 -74 rlineto
            139 -95 48 -89 -115 vvcurveto
            -173 -144 -99 -166 -196 -141 113 246 -6 vhcurveto
            -41 hlineto
            -52 -314 rlineto
            -62 81 194 -51 163 hhcurveto
            return
          </CharString>
          <CharString index="178">
            -147 -138 -116 -93 -173 -64 vhcurveto
            56 260 -334 -98 callgsubr
            -10 -48 rlinecurve
            -239 -1127 -13 -60 -21 -15 -121 -20 rlinecurve
            -9 -48 488 0 10 48 rlineto
            -139 22 -17 13 12 63 82 385 rcurveline
            -46 29 63 -44 111 hhcurveto
            307 199 324 337 hvcurveto
            -198 7 rmoveto
            -265 -1 -114 -335 -225 hhcurveto
            -84 -57 42 49 -14 hvcurveto
            96 455 rlineto
            195 46 105 108 101 hhcurveto
            93 54 -71 -178 hvcurveto
            endchar
          </CharString>
          <CharString index="179">
            rmoveto
            258 209 225 396 69 hvcurveto
            249 40 -71 145 -130 hhcurveto
            -73 -62 -61 -100 9 hvcurveto
            143 -40 57 -143 -33 -192 rrcurveto
            -229 -39 -115 -150 -172 hhcurveto
            -143 -52 91 168 35 hvcurveto
            9 42 76 319 11 53 rrcurveto
            162 35 -63 72 -125 hhcurveto
            -73 -73 -26 -35 -42 hvcurveto
            -11 -46 rlineto
            10 18 19 5 25 hhcurveto
            71 45 -39 -112 -24 hvcurveto
            -16 -73 -74 -319 -8 -37 rrcurveto
            -196 -42 84 -139 228 hhcurveto
            endchar
          </CharString>
          <CharString index="180">
            rmoveto
            -60 65 119 -39 128 hhcurveto
            189 162 119 174 hvcurveto
            1 113 -45 83 -123 85 -73 53 rcurveline
            -87 60 -34 48 73 vvcurveto
            88 58 59 107 140 60 -121 -140 -4 vhcurveto
            41 hlineto
            52 247 rlineto
            44 -59 -97 30 -133 hhcurveto
            -209 -128 -117 -159 -103 53 -87 115 -79 hvcurveto
            73 -53 rlineto
            92 -64 29 -55 -79 vvcurveto
            -102 -74 -56 -106 -131 -94 100 187 -1 vhcurveto
            -41 hlineto
            return
          </CharString>
          <CharString index="181">
            rmoveto
            -173 -810 104 callsubr
            121 144 120 hhcurveto
            101 36 -82 -117 -25 hvcurveto
            -150 -700 104 callsubr
            119 144 122 hhcurveto
            100 36 -82 -126 -27 hvcurveto
            -107 -498 -94 callgsubr
            100 39 57 42 hvcurveto
            10 49 rlineto
            -30 -32 -52 -14 -73 callsubr
            195 callsubr
            endchar
          </CharString>
          <CharString index="182">
            1645 933 -25 rmoveto
            419 346 340 473 367 -280 316 -399 -422 -343 -341 -473 -368 277 -314 402 hvcurveto
            -1 48 rmoveto
            -364 -259 291 343 450 330 315 381 360 262 -292 -341 -452 -332 -314 -378 hvcurveto
            return
          </CharString>
          <CharString index="183">
            1457 763 -24 rmoveto
            323 212 215 347 78 hvcurveto
            149 660 34 147 24 33 129 19 rlinecurve
            10 47 -390 0 -10 -47 rlineto
            138 -20 9 -32 -29 -147 -132 -647 rcurveline
            -317 -64 -192 -162 90 callsubr
            -4 callgsubr
            return
          </CharString>
          <CharString index="184">
            rmoveto
            173 -141 134 -236 20 vhcurveto
            209 21 228 96 2 227 rrcurveto
            195 3 -175 130 -334 hhcurveto
            -453 hlineto
            -9 -47 rlineto
            126 -14 13 -19 -19 -91 -236 -1102 rcurveline
            -19 -91 -21 -19 180 callsubr
            endchar
          </CharString>
          <CharString index="185">
            668 1445 rmoveto
            -51 hlineto
            -226 -91 -8 -36 116 23 5 1 3 -3 -1 -5 rlinecurve
            -111 -526 -11 -53 -27 -11 -95 -9 rlinecurve
            -7 -35 372 0 7 35 -90 9 -24 12 12 53 rlinecurve
            return
          </CharString>
          <CharString index="186">
            rmoveto
            -141 -712 rlineto
            -186 -37 72 -99 149 hhcurveto
            109 95 58 56 56 hvcurveto
            9 44 rlineto
            -35 -38 -61 -11 -54 hhcurveto
            -102 -46 56 154 35 hvcurveto
            22 93 121 515 17 67 rrcurveto
            endchar
          </CharString>
          <CharString index="187">
            rmoveto
            96 96 40 70 47 hvcurveto
            9 49 rlineto
            -36 -33 -55 -22 -61 hhcurveto
            -95 -45 59 149 32 hvcurveto
            127 598 149 callsubr
            -122 -580 rlineto
            -201 -42 81 -119 158 hhcurveto
            return
          </CharString>
          <CharString index="188">
            543 687 -95 callgsubr
            2 hvcurveto
            162 1 -76 158 -171 hhcurveto
            -223 -121 -242 -209 -2 hvcurveto
            -164 -2 78 -156 168 hhcurveto
            return
          </CharString>
          <CharString index="189">
            1284 rmoveto
            -111 98 -65 117 148 103 83 119 110 -99 64 -117 -147 -103 -82 -118 vhcurveto
            26 callgsubr
            return
          </CharString>
          <CharString index="190">
            rmoveto
            218 1027 20 92 20 20 132 13 rlinecurve
            10 46 -499 0 -10 -46 126 -30 callgsubr
            8 callgsubr
            endchar
          </CharString>
          <CharString index="191">
            61 -83 -61 -48 -21 -40 -36 hvcurveto
            -10 -42 rlineto
            5 14 27 5 24 hhcurveto
            56 58 callsubr
            -25 hvcurveto
            -10 -43 rlineto
            -41 31 return
          </CharString>
          <CharString index="192">
            rmoveto
            60 47 46 58 hvcurveto
            54 -1 -43 41 -58 hhcurveto
            -59 -47 -46 -57 -54 44 -42 57 hvcurveto
            endchar
          </CharString>
          <CharString index="193">
            1813 rmoveto
            497 -75 9 43 -483 146 rlineto
            -90 -428 rmoveto
            276 91 return
          </CharString>
          <CharString index="194">
            1813 rmoveto
            25 114 -545 -146 -8 -43 rlineto
            -51 -239 rmoveto
            276 91 return
          </CharString>
          <CharString index="195">
            1111 rmoveto
            247 207 154 -207 55 0 -125 356 -117 0 return
          </CharString>
          <CharString index="196">
            1450 rmoveto
            -170 -105 -126 -198 -9 hvcurveto
            47 hlineto
            114 22 return
          </CharString>
          <CharString index="197">
            -219 hhcurveto
            -237 -156 154 362 78 hvcurveto
            144 674 21 return
          </CharString>
          <CharString index="198">
            259 1221 57 -3 263 -13 61 -47 -2 -230 rlinecurve
            43 hlineto
            return
          </CharString>
          <CharString index="199">
            -146 154 -49 0 122 -271 106 0 236 271 rlineto
            return
          </CharString>
          <CharString index="200">
            1116 570 990 rmoveto
            -66 callsubr
            121 callsubr
            return
          </CharString>
          <CharString index="201">
            70 56 56 71 69 -56 56 -71 -70 -56 -56 -72 -68 56 -56 71 hvcurveto
            return
          </CharString>
          <CharString index="202">
            hvcurveto
            49 1 -38 39 -50 hhcurveto
            -51 -42 -42 -53 -49 38 -38 49 hvcurveto
            return
          </CharString>
          <CharString index="203">
            1818 rmoveto
            -155 -5 hlineto
            222 -267 rlineto
            45 hlineto
            return
          </CharString>
          <CharString index="204">
            -259 -1221 -18 -87 -24 -21 -153 -15 rlinecurve
            -10 -46 return
          </CharString>
          <CharString index="205">
            -247 269 -375 -444 -309 -393 -440 2 return
          </CharString>
          <CharString index="206">
            hvcurveto
            51 hlineto
            45 11 31 18 42 hhcurveto
            27 26 -6 -13 37 hvcurveto
            return
          </CharString>
          <CharString index="207">
            rmoveto
            -405 -258 -360 -497 -21 vhcurveto
            -107 -5 return
          </CharString>
          <CharString index="208">
            rmoveto
            253 402 -171 0 -127 -402 rlineto
            return
          </CharString>
          <CharString index="209">
            -72 callsubr
            286 358 rlineto
            8 vlineto
            return
          </CharString>
          <CharString index="210">
            -170 -5 hlineto
            188 -350 rlineto
            53 hlineto
            return
          </CharString>
          <CharString index="211">
            191 0 120 566 rlineto
            189 45 return
          </CharString>
          <CharString index="212">
            48 rmoveto
            -61 -40 52 144 hvcurveto
            226 1 return
          </CharString>
          <CharString index="213">
            12 32 20 42 hhcurveto
            25 -44 callgsubr
            return
          </CharString>
          <CharString index="214">
            -18 hvcurveto
            44 hlineto
            85 14 -89 callgsubr
            return
          </CharString>
          <CharString index="215">
            -26 -27 7 12 -37 hvcurveto
            -26 10 rlineto
            13 -38 return
          </CharString>
          <CharString index="216">
            54 callsubr
            -53 59 -73 -79 -49 -71 return
          </CharString>
          <CharString index="217">
            1467 rmoveto
            -179 -356 62 0 return
          </CharString>
          <CharString index="218">
            -350 rlineto
            56 hlineto
            199 355 rmoveto
            return
          </CharString>
          <CharString index="219">
            1013 889 -15 120 callsubr
            return
          </CharString>
          <CharString index="220">
            55 44 43 55 51 -41 39 -51 hvcurveto
            endchar
          </CharString>
          <CharString index="221">
            14 43 hhcurveto
            62 32 -27 -42 -51 -54 -51 return
          </CharString>
          <CharString index="222">
            11 -29 38 -48 hhcurveto
            -7 hlineto
            -47 -46 -38 return
          </CharString>
          <CharString index="223">
            -19 -91 -21 -19 -132 -14 rlinecurve
            -10 -47 return
          </CharString>
          <CharString index="224">
            rmoveto
            -57 46 -43 54 57 44 46 54 49 -33 39 -43 8 vhcurveto
            27 42 58 17 67 hhcurveto
            192 38 -151 -170 -23 hvcurveto
            -9 -60 -150 -15 rlineto
            -302 -31 -166 -105 -186 vvcurveto
            -132 111 -94 161 161 118 96 202 52 vhcurveto
            -196 34 135 -103 171 hhcurveto
            130 116 57 87 67 hvcurveto
            10 50 rlineto
            -57 -59 -80 -41 -92 hhcurveto
            -173 -80 136 207 24 1 25 2 24 hvcurveto
            78 5 372 25 137 120 1 143 rlinecurve
            137 2 -121 74 -162 hhcurveto
            -121 -119 -57 -101 -93 hvcurveto
            101 -47 -104 57 -149 hhcurveto
            -185 -146 -94 -117 hvcurveto
            956 150 rmoveto
            88 39 -59 -76 -2 hvcurveto
            -3 -109 -82 -116 -261 -25 -72 -6 rcurveline
            221 32 114 170 147 hhcurveto
            -889 -697 rmoveto
            131 100 87 208 23 vhcurveto
            107 11 -11 -80 rlineto
            -249 -42 -95 -79 -114 hhcurveto
            -88 -65 52 104 hvcurveto
            endchar
          </CharString>
          <CharString index="225">
            rmoveto
            -915 hlineto
            -850 -1204 -108 -153 -40 -26 -115 -14 rlinecurve
            -10 -47 415 0 10 47 -148 18 -7 32 97 143 rlinecurve
            260 380 435 0 -85 -434 -20 -106 -11 -18 -150 -15 rlinecurve
            -10 -47 1030 0 100 386 rlineto
            -39 hlineto
            -104 -251 -98 -58 -280 -12 rrcurveto
            -238 -11 126 655 238 -3 109 -3 20 -42 -5 -159 rlinecurve
            39 hlineto
            97 464 rlineto
            -40 hlineto
            -61 -156 -37 -35 -108 -2 rrcurveto
            -240 -3 118 620 220 -11 255 -11 41 -48 13 -223 rlinecurve
            39 hlineto
            -833 286 rmoveto
            64 hlineto
            -137 -699 rlineto
            -404 hlineto
            endchar
          </CharString>
          <CharString index="226">
            1291 449 171 rmoveto
            117 553 143 -1 302 -723 286 0 9 43 -65 21 -45 47 -88 208 rlinecurve
            -229 541 352 321 155 141 70 56 111 19 rlinecurve
            9 47 -421 0 -9 -47 142 -13 -1 -50 -118 -115 rlinecurve
            -449 -439 -142 -1 105 494 19 91 23 20 123 13 rlinecurve
            10 47 -493 -43 callgsubr
            -234 -1102 116 callsubr
            492 0 10 47 -118 13 -14 20 20 91 rlinecurve
            return
          </CharString>
          <CharString index="227">
            rmoveto
            81 58 36 57 34 hvcurveto
            10 49 rlineto
            -25 -23 -29 -15 -31 hhcurveto
            -53 -39 40 153 -54 hvcurveto
            -124 350 166 133 158 126 64 31 87 17 rlinecurve
            8 41 -380 0 -9 -41 122 -13 6 -31 -115 -101 rlinecurve
            -358 -310 213 999 -62 callsubr
            88 416 119 96 96 -279 rlineto
            -173 59 59 -75 102 hhcurveto
            return
          </CharString>
          <CharString index="228">
            -173 -810 192 0 119 566 rlineto
            189 46 127 144 126 hhcurveto
            106 37 -77 -130 -28 hvcurveto
            -107 -499 rlineto
            -143 -30 45 -65 107 hhcurveto
            83 101 39 57 42 hvcurveto
            10 49 rlineto
            -30 -33 -52 -14 -33 hhcurveto
            -46 -19 31 58 13 hvcurveto
            107 497 rlineto
            208 44 -86 116 -176 hhcurveto
            -155 -131 -104 -194 -76 hvcurveto
            return
          </CharString>
          <CharString index="229">
            -63 -64 -92 -34 -79 hhcurveto
            -150 -102 119 202 275 129 256 207 50 40 -14 -24 29 hvcurveto
            -53 -49 -46 -59 -58 45 -46 59 62 47 48 60 117 -96 88 -158 -1 hvcurveto
            -282 -228 -258 -349 return
          </CharString>
          <CharString index="230">
            rmoveto
            219 1027 19 92 21 20 131 13 rlinecurve
            11 46 -499 0 -11 -46 127 -30 callgsubr
            -75 -348 -102 -130 -230 -148 rlinecurve
            14 -41 336 152 184 141 73 344 rlinecurve
            return
          </CharString>
          <CharString index="231">
            1586 rmoveto
            153 95 109 171 7 hvcurveto
            -46 hlineto
            -99 -19 -66 83 callgsubr
            210 callsubr
            return
          </CharString>
          <CharString index="232">
            -201 -687 rmoveto
            76 hlineto
            1217 1444 rlineto
            -77 hlineto
            -1014 -709 rmoveto
            43 callsubr
            88 callgsubr
            783 -748 -95 callgsubr
            9 callgsubr
            78 -155 168 hhcurveto
            return
          </CharString>
          <CharString index="233">
            1763 rmoveto
            83 72 49 102 22 hvcurveto
            -51 hlineto
            -45 -10 -32 -18 -43 hhcurveto
            -26 -26 6 13 -37 hvcurveto
            -27 10 rlineto
            13 -37 -38 9 -45 hhcurveto
            -82 -73 -49 -103 -22 hvcurveto
            52 hlineto
            46 10 32 18 return
          </CharString>
          <CharString index="234">
            -63 -65 -91 -34 -79 hhcurveto
            -145 -103 114 213 hvcurveto
            6 0 6 5 vvcurveto
            53 16 rlineto
            336 98 178 104 158 vvcurveto
            122 -104 75 -157 -269 -234 -264 -345 return
          </CharString>
          <CharString index="235">
            191 47 134 132 116 hhcurveto
            106 37 -77 -130 -28 hvcurveto
            -106 -499 -94 callgsubr
            -32 callgsubr
            -102 callsubr
            107 497 rlineto
            53 callgsubr
            return
          </CharString>
          <CharString index="236">
            rmoveto
            150 102 60 87 66 hvcurveto
            11 51 rlineto
            -76 -78 -94 -35 -111 hhcurveto
            -113 -83 55 89 95 47 56 156 63 hvcurveto
            50 22 rlineto
            160 62 115 75 165 vvcurveto
            158 return
          </CharString>
          <CharString index="237">
            rmoveto
            82 72 49 103 22 hvcurveto
            -50 hlineto
            -46 -11 -32 -18 -42 hhcurveto
            108 callsubr
            -37 9 -45 hhcurveto
            -82 -73 -49 -102 -22 99 callsubr
            27 -9 rlineto
            -14 38 37 -9 45 hhcurveto
            endchar
          </CharString>
          <CharString index="238">
            190 0 137 665 rlineto
            100 68 110 66 113 hhcurveto
            35 29 -6 -6 16 hvcurveto
            11 14 11 29 28 vvcurveto
            60 -32 39 -58 -83 -73 -66 -213 -143 vhcurveto
            return
          </CharString>
          <CharString index="239">
            247 -145 184 -236 -321 -191 -278 -305 -11 callsubr
            hvcurveto
            2 62 rmoveto
            -116 -69 102 202 2 hvcurveto
            148 callsubr
            return
          </CharString>
          <CharString index="240">
            rlinecurve
            -10 -47 392 0 10 47 -140 17 -11 33 29 151 rlinecurve
            200 1014 606 -1262 114 0 263 1198 32 149 25 return
          </CharString>
          <CharString index="241">
            rmoveto
            -233 hlineto
            -7 -35 65 -9 8 -20 -14 -58 rlinecurve
            -117 -484 -18 -75 -15 -17 -71 -10 rlinecurve
            -8 -36 219 0 8 36 -71 10 -7 16 17 76 rlinecurve
            return
          </CharString>
          <CharString index="242">
            1142 rmoveto
            171 105 75 callgsubr
            -107 -73 62 84 13 2 14 2 9 hvcurveto
            -47 hlineto
            -13 -30 -7 -37 -34 vvcurveto
            -129 96 -94 140 vhcurveto
            return
          </CharString>
          <CharString index="243">
            rmoveto
            -339 -37 -9 -45 71 -13 rlineto
            50 -13 10 -17 -10 -48 -237 -1115 rcurveline
            -143 -31 46 -65 107 hhcurveto
            -105 callsubr
            94 callgsubr
            return
          </CharString>
          <CharString index="244">
            12 57 -264 0 40 181 -195 -15 -35 -166 -157 0 -12 -57 157 0 -261 -1228 191 0 122 576 rlineto
            return
          </CharString>
          <CharString index="245">
            rmoveto
            82 72 57 121 25 hvcurveto
            -49 hlineto
            -54 -12 -33 -20 -3 callgsubr
            26 24 -7 -16 36 hvcurveto
            25 -10 rlineto
            -16 37 35 -11 44 hhcurveto
            endchar
          </CharString>
          <CharString index="246">
            -26 11 rlineto
            16 -35 -37 10 -44 hhcurveto
            -80 -73 -57 -121 -26 hvcurveto
            51 hlineto
            55 12 31 20 42 hhcurveto
            26 -44 callgsubr
            -10 44 hhcurveto
            return
          </CharString>
          <CharString index="247">
            1586 rmoveto
            154 95 109 171 7 hvcurveto
            -47 hlineto
            -99 -19 -65 83 callgsubr
            -11 -27 -7 -32 -29 vvcurveto
            -112 1 return
          </CharString>
          <CharString index="248">
            157 44 67 90 hvcurveto
            67 316 -43 -1 rlineto
            -232 -93 -151 -126 -190 hhcurveto
            -248 -168 242 319 hvcurveto
            endchar
          </CharString>
          <CharString index="249">
            hlineto
            -10 -47 123 -14 15 -17 -19 -93 rlinecurve
            -234 -1102 -20 -93 -21 -17 -131 -14 rlinecurve
            -10 -47 523 0 10 47 return
          </CharString>
          <CharString index="250">
            1152 rmoveto
            144 135 79 173 58 hvcurveto
            -50 21 rlineto
            -149 -52 -106 -69 -124 61 callgsubr
            return
          </CharString>
          <CharString index="251">
            -35 -42 hhcurveto
            -29 -22 15 29 -34 hvcurveto
            -32 29 rlineto
            33 -40 -38 22 -50 hhcurveto
            -87 -65 -66 -197 -23 hvcurveto
            51 hlineto
            105 return
          </CharString>
          <CharString index="252">
            hvcurveto
            -382 2 245 -269 376 hhcurveto
            -18 68 rmoveto
            -227 -153 -34 callgsubr
            45 callgsubr
            return
          </CharString>
          <CharString index="253">
            26 -6 -13 37 hvcurveto
            26 -10 rlineto
            -13 38 37 -9 45 hhcurveto
            -425 -264 rmoveto
            276 91 -68 callsubr
            return
          </CharString>
          <CharString index="254">
            758 563 990 rmoveto
            -329 -98 callgsubr
            -10 -48 rlinecurve
            -173 -810 131 callsubr
            return
          </CharString>
          <CharString index="255">
            269 1 100 319 207 hhcurveto
            117 68 -102 -203 -2 hvcurveto
            -268 -1 -100 -319 -207 hhcurveto
            return
          </CharString>
          <CharString index="256">
            262 -7 16 75 -266 -11 51 239 -198 -33 -42 -200 -146 -28 -8 -42 138 0 return
          </CharString>
          <CharString index="257">
            31 -21 -35 -8 hvcurveto
            -7 -34 -36 -23 -65 -16 rrcurveto
            34 -28 113 24 71 32 14 77 callgsubr
            return
          </CharString>
          <CharString index="258">
            480 rmoveto
            223 -177 152 -355 3 vhcurveto
            -130 1 88 416 19 90 24 19 return
          </CharString>
          <CharString index="259">
            77 253 123 hhcurveto
            61 41 -56 -144 -1 hvcurveto
            -232 -1 -77 -243 -123 hhcurveto
            return
          </CharString>
          <CharString index="260">
            1177 rmoveto
            67 53 53 67 63 -47 48 -66 -67 -54 -53 -67 -63 49 -48 65 hvcurveto
            return
          </CharString>
          <CharString index="261">
            471 1273 rmoveto
            -235 -1102 rlineto
            -20 -94 -24 -16 -128 -14 -9 -47 rcurveline
            return
          </CharString>
          <CharString index="262">
            -8 -37 rlineto
            22 29 36 114 callsubr
            -86 -49 hvcurveto
            53 -50 callgsubr
            return
          </CharString>
          <CharString index="263">
            1790 rmoveto
            513 hlineto
            18 84 rlineto
            -514 hlineto
            208 -316 rmoveto
            return
          </CharString>
          <CharString index="264">
            -360 -776 rmoveto
            -55 -44 -43 -54 -51 39 -40 53 113 callsubr
          </CharString>
          <CharString index="265">
            283 1336 89 -5 rlineto
            339 -17 151 -232 -291 vvcurveto
            return
          </CharString>
          <CharString index="266">
            43 -32 -54 -50 -38 -34 -64 -54 -50 19 29 -32 hvcurveto
            -11 -46 rlineto
            -50 39 return
          </CharString>
          <CharString index="267">
            rmoveto
            130 92 64 104 101 -73 84 callsubr
            59 -33 73 hhcurveto
            endchar
          </CharString>
          <CharString index="268">
            rmoveto
            444 306 394 440 169 -48 147 -87 111 hvcurveto
            160 164 -43 42 -157 -160 rlineto
            112 -109 -154 65 -184 hhcurveto
            -445 -308 -393 -440 2 hvcurveto
            1 -169 48 -147 87 -111 rrcurveto
            -162 -165 43 -42 159 161 rlineto
            -112 108 154 -66 185 hhcurveto
            -397 586 rmoveto
            409 213 420 329 146 115 -73 -142 64 vhcurveto
            -836 -852 rlineto
            -20 68 -11 79 91 vvcurveto
            380 -518 rmoveto
            -146 -116 74 143 -63 hvcurveto
            835 852 rlineto
            21 -68 11 -80 -91 vvcurveto
            -443 -230 -387 -312 vhcurveto
            endchar
          </CharString>
          <CharString index="269">
            rmoveto
            -223 -16 113 -163 198 hhcurveto
            139 103 99 166 61 hvcurveto
            -176 3 122 -89 153 hhcurveto
            256 171 256 325 18 hvcurveto
            273 17 -118 161 -135 hhcurveto
            -79 -57 -64 -100 11 hvcurveto
            163 -37 111 -141 -14 -218 rrcurveto
            -192 -10 -110 -169 -144 hhcurveto
            -135 -80 103 273 57 hvcurveto
            52 243 -197 0 -54 -256 rlineto
            -264 -56 -65 -99 -112 hhcurveto
            -105 -64 94 194 14 hvcurveto
            14 273 116 225 179 92 rrcurveto
            -19 32 -310 -87 -175 -260 -16 -271 rlinecurve
            endchar
          </CharString>
          <CharString index="270">
            rmoveto
            139 118 87 191 114 hvcurveto
            1 -12 rlineto
            -203 17 57 -57 108 hhcurveto
            67 76 45 43 32 hvcurveto
            10 43 rlineto
            -14 -18 -34 -12 -28 hhcurveto
            -84 -24 26 231 -32 hvcurveto
            -14 100 296 529 rlineto
            -218 hlineto
            -20 -80 -50 -146 -43 -118 rrcurveto
            261 -23 -81 101 -175 hhcurveto
            -248 -206 -260 -352 -18 hvcurveto
            -235 -17 83 -168 215 hhcurveto
            -78 443 rmoveto
            317 16 114 190 141 hhcurveto
            116 19 -117 -374 30 hvcurveto
            5 -77 rlineto
            -207 -93 -92 -79 -101 hhcurveto
            -115 -58 118 229 18 hvcurveto
            endchar
          </CharString>
          <CharString index="271">
            rmoveto
            210 155 81 119 88 hvcurveto
            10 51 rlineto
            -78 -70 -144 -60 -145 hhcurveto
            -149 -86 64 109 4 hvcurveto
            125 3 114 62 249 hhcurveto
            61 hlineto
            7 143 rlineto
            -72 hlineto
            -218 -66 66 97 6 hvcurveto
            106 6 87 68 166 hhcurveto
            101 72 -22 -34 45 hvcurveto
            -57 -34 -53 -47 hvcurveto
            -50 1 42 -48 60 hhcurveto
            57 47 43 66 111 -88 97 -251 -300 -132 -133 -151 -6 hvcurveto
            -6 -111 67 -93 149 -30 -195 -22 -115 -87 -6 -142 rrcurveto
            -144 -9 123 -103 219 hhcurveto
            endchar
          </CharString>
          <CharString index="272">
            rmoveto
            319 189 280 304 103 -26 93 -47 72 hvcurveto
            108 113 -42 40 -101 -106 rlineto
            72 -65 -93 43 -114 hhcurveto
            -319 -189 -280 -304 -104 26 -93 48 -73 hvcurveto
            -104 -109 42 -39 97 102 rlineto
            -72 66 92 -42 113 hhcurveto
            -184 368 rmoveto
            269 1 101 318 208 hhcurveto
            85 60 -55 -109 26 hvcurveto
            -478 -500 rlineto
            -2 24 -1 25 28 vvcurveto
            185 -308 rmoveto
            -84 -60 53 106 -26 hvcurveto
            477 500 rlineto
            2 -22 1 -25 -25 vvcurveto
            -269 -1 -101 -318 -208 hhcurveto
            endchar
          </CharString>
          <CharString index="273">
            rmoveto
            -20 -113 -140 -26 -9 -42 136 0 -168 -963 rlineto
            -272 -48 -65 -64 -103 hhcurveto
            -3 hlineto
            28 16 20 31 38 vvcurveto
            55 -43 41 -53 -54 -43 -41 -57 -80 64 -66 110 180 158 153 448 79 vhcurveto
            135 768 223 -7 17 76 -230 -10 31 173 rlineto
            226 40 64 78 90 hhcurveto
            7 8 0 -1 6 hvcurveto
            -30 -16 -21 -32 -39 vvcurveto
            -57 44 -42 53 56 46 43 59 83 -72 66 -127 -180 -133 -139 -287 -53 vhcurveto
            endchar
          </CharString>
          <CharString index="274">
            rmoveto
            75 55 36 47 29 hvcurveto
            9 46 rlineto
            -19 -21 -28 -12 -32 hhcurveto
            -61 -39 57 86 71 29 76 64 69 hvcurveto
            439 306 394 440 381 -247 269 -375 -445 -308 -393 -440 2 hvcurveto
            1 -367 228 -264 353 -19 rrcurveto
            -125 -90 -82 -105 -104 vvcurveto
            -93 73 -66 100 vhcurveto
            58 525 rmoveto
            -227 -153 180 338 409 213 420 329 227 153 -179 -338 -443 -230 -387 -312 hvcurveto
            endchar
          </CharString>
          <CharString index="275">
            200 hlineto
            122 591 rlineto
            195 42 111 116 131 hhcurveto
            101 69 -73 -189 -38 hvcurveto
            -41 -200 -138 -623 -61 -277 rrcurveto
            197 hlineto
            22 103 190 904 24 120 rrcurveto
            222 46 -107 107 -180 hhcurveto
            -176 -115 -122 -142 -52 hvcurveto
            198 35 -75 57 -107 hhcurveto
            -72 -65 -26 -29 -44 hvcurveto
            -10 -45 rlineto
            7 19 23 4 27 hhcurveto
            69 41 -40 -131 -24 hvcurveto
            -35 -183 -88 -369 -41 -175 rrcurveto
            endchar
          </CharString>
          <CharString index="276">
            -81 -1 vvcurveto
            -128 -29 43 -66 102 hhcurveto
            82 102 41 52 43 hvcurveto
            11 49 rlineto
            -30 -35 -54 -13 -32 hhcurveto
            -45 -20 30 59 13 hvcurveto
            166 780 rlineto
            -1 9 10 0 9 hhcurveto
            108 87 60 113 71 -39 64 -51 32 hvcurveto
            -42 hlineto
            6 -15 4 -27 -26 vvcurveto
            -142 -83 -94 -242 -33 vhcurveto
            -109 -14 -9 -41 71 -13 rlineto
            50 -13 9 -17 -10 -48 -89 -420 rcurveline
            -178 -43 -109 -131 -135 hhcurveto
            -110 -38 81 138 30 hvcurveto
            return
          </CharString>
          <CharString index="277">
            rmoveto
            -71 55 -55 83 167 123 113 340 234 vhcurveto
            540 785 92 134 43 33 123 17 rlinecurve
            10 47 -412 0 -9 -47 158 -15 -7 -30 -85 -132 rlinecurve
            -463 -710 -175 727 -31 129 0 14 177 17 rlinecurve
            10 47 -554 0 -10 -47 117 -17 28 -19 30 -114 rlinecurve
            252 -949 -89 -123 -84 -85 -88 -37 rlinecurve
            9 16 5 19 19 vvcurveto
            68 -53 52 -69 -70 -57 -56 -70 vhcurveto
            endchar
          </CharString>
          <CharString index="278">
            rmoveto
            77 71 46 53 32 hvcurveto
            10 50 rlineto
            -27 -36 -30 -12 -29 hhcurveto
            -46 -34 27 82 -44 hvcurveto
            -220 382 130 130 87 87 49 54 40 32 rlinecurve
            -3 vlineto
            -60 43 -45 64 57 47 46 60 58 -38 51 -73 -84 -64 -65 -174 -165 vhcurveto
            -243 -257 203 -350 rlineto
            -125 69 43 -40 84 hhcurveto
            -295 1005 rmoveto
            -341 -44 -9 -45 71 -13 rlineto
            49 -12 11 -18 -10 -48 -174 -810 rcurveline
            192 hlineto
            endchar
          </CharString>
          <CharString index="279">
            323 213 215 347 77 hvcurveto
            199 883 rlineto
            -1 12 15 -1 15 hhcurveto
            140 99 69 121 72 -39 65 -54 34 hvcurveto
            -43 hlineto
            8 -16 4 -29 -27 vvcurveto
            -148 -112 -116 -200 vhcurveto
            -85 hlineto
            -9 -47 rlineto
            137 -20 10 -32 -31 -146 -133 -650 rcurveline
            -316 -65 -192 -161 90 callsubr
            98 25 21 137 16 rlinecurve
            9 47 -502 0 -10 -47 118 -16 16 -21 -21 -98 rlinecurve
            return
          </CharString>
          <CharString index="280">
            498 hlineto
            9 47 -119 13 -19 18 20 93 rlinecurve
            8 40 893 907 -201 -947 -19 -94 -21 -16 -131 -14 rlinecurve
            -9 -47 497 0 10 47 -120 13 -19 18 20 93 rlinecurve
            234 1102 20 94 24 16 128 14 rlinecurve
            9 47 -497 0 -10 -47 123 -14 15 -16 -20 -94 rlinecurve
            -10 -49 -893 -906 203 955 19 94 25 16 127 -12 callsubr
            34 callgsubr
            endchar
          </CharString>
          <CharString index="281">
            691 1264 rmoveto
            2 -121 -161 -30 -110 -14 -7 -39 rcurveline
            1 11 17 2 19 hhcurveto
            122 54 -71 -77 hvcurveto
            -109 1 -78 -67 -98 hhcurveto
            -48 -38 11 19 -26 hvcurveto
            27 8 16 25 28 vvcurveto
            35 -26 30 -38 -37 -30 -29 -38 -83 104 -58 116 149 145 87 151 vhcurveto
            56 callgsubr
            -104 -112 -101 -63 -118 -41 vhcurveto
            28 -12 rlineto
            72 37 57 36 71 hhcurveto
            81 46 -51 -57 1 hvcurveto
            return
          </CharString>
          <CharString index="282">
            rmoveto
            53 -47 113 147 2 2 62 -41 rlineto
            -86 132 68 -21 86 214 callsubr
            -51 -58 -30 -59 hhcurveto
            -81 -54 23 69 -116 hvcurveto
            -85 52 584 665 9 45 -669 0 -76 -284 rlineto
            41 hlineto
            110 44 26 16 96 hhcurveto
            345 hlineto
            -1461 -491 -67 callgsubr
            2 callsubr
            endchar
          </CharString>
          <CharString index="283">
            270 -128 210 -203 102 hvcurveto
            -5 35 38 -4 43 hhcurveto
            173 149 69 144 77 -42 68 -57 35 hvcurveto
            -42 hlineto
            8 -16 4 -29 -28 vvcurveto
            -145 -102 -121 -187 vhcurveto
            -105 -71 23 -135 hhcurveto
            -444 -309 -393 -441 2 hvcurveto
            226 -64 rmoveto
            409 213 420 329 227 153 -179 -338 -443 -230 -387 -312 -228 -152 180 338 vhcurveto
            return
          </CharString>
          <CharString index="284">
            rmoveto
            -949 hlineto
            -10 -47 127 -14 13 -19 -20 -91 rlinecurve
            -235 -1102 -19 -91 -20 -19 -132 -14 rlinecurve
            -10 -47 524 0 11 46 -150 16 -14 20 18 87 rlinecurve
            114 536 228 -3 102 -2 20 -43 -5 -161 rlinecurve
            38 hlineto
            98 463 rlineto
            -39 hlineto
            -62 -157 -36 -36 -104 -3 rrcurveto
            -228 -2 133 629 202 -8 233 -10 64 -51 7 -224 rlinecurve
            42 hlineto
            endchar
          </CharString>
          <CharString index="285">
            rmoveto
            72 61 35 48 31 hvcurveto
            9 46 rlineto
            -19 -20 -29 -12 -31 hhcurveto
            -60 -43 49 90 74 31 82 51 65 hvcurveto
            306 14 181 273 297 vvcurveto
            247 -145 184 -236 -322 -190 -278 -305 -238 134 -180 220 -13 vhcurveto
            -115 -88 -72 -105 -103 vvcurveto
            -95 69 -68 98 vhcurveto
            50 520 rmoveto
            -116 -69 102 202 2 hvcurveto
            148 callsubr
            endchar
          </CharString>
          <CharString index="286">
            12 -16 5 -51 79 -817 rcurveline
            100 hlineto
            180 265 129 243 51 165 56 -673 rcurveline
            98 hlineto
            287 343 213 376 160 vvcurveto
            76 -47 46 -66 -66 -48 -46 -62 -60 47 -45 61 9 8 1 1 8 vhcurveto
            -51 -196 -135 -226 -158 -206 rrcurveto
            -66 831 -175 -28 9 -106 -7 -192 -148 -265 -125 -226 rlinecurve
            return
          </CharString>
          <CharString index="287">
            -131 -14 -10 -47 rcurveline
            487 hlineto
            446 270 178 270 hvcurveto
            -154 670 rmoveto
            -184 -132 -143 -235 -2 vhcurveto
            -162 hlineto
            128 601 109 -4 rlineto
            195 -6 97 -97 -165 vvcurveto
            -73 -677 rmoveto
            -214 -153 -158 -349 -11 vhcurveto
            -109 -4 144 681 161 -2 rlineto
            201 -1 105 -122 -169 vvcurveto
            return
          </CharString>
          <CharString index="288">
            -146 -139 -115 -92 -173 -64 vhcurveto
            166 750 -338 -37 -11 -45 72 -13 51 -13 9 -17 -11 -48 rlinecurve
            -277 -1308 91 0 98 92 rlineto
            -57 26 67 -54 126 85 callgsubr
            -113 -335 -225 -84 -58 42 49 -15 vhcurveto
            98 455 rlineto
            195 46 105 108 101 hhcurveto
            92 54 -71 -178 -1 hvcurveto
            return
          </CharString>
          <CharString index="289">
            171 -72 144 -139 68 vhcurveto
            -11 44 56 -10 52 hhcurveto
            173 119 69 131 72 -39 65 -50 32 hvcurveto
            -42 hlineto
            5 -15 5 -27 -26 vvcurveto
            -135 -99 -112 -173 vhcurveto
            -70 -57 16 -84 hhcurveto
            -322 -200 -261 -323 hvcurveto
            201 -66 rmoveto
            148 callsubr
            -116 -69 102 202 2 hvcurveto
            return
          </CharString>
          <CharString index="290">
            -11 -48 -86 -407 rcurveline
            -276 -58 129 -145 261 hhcurveto
            245 187 135 207 206 -167 90 -208 -60 -58 -9 -12 -38 hvcurveto
            -53 -251 rmoveto
            41 195 rlineto
            10 35 46 7 46 hhcurveto
            144 78 -78 -148 -168 -98 -124 -138 -147 -46 127 179 39 hvcurveto
            endchar
          </CharString>
          <CharString index="291">
            1785 rmoveto
            82 72 48 103 23 hvcurveto
            -52 hlineto
            -46 -9 -32 -18 -44 hhcurveto
            -26 -25 7 13 -37 hvcurveto
            -27 9 rlineto
            13 -37 -39 9 -44 hhcurveto
            -82 -73 -48 -103 -22 hvcurveto
            51 hlineto
            46 11 31 17 43 hhcurveto
            26 26 -6 -13 37 hvcurveto
            27 -9 rlineto
            -13 37 38 -9 45 hhcurveto
            -165 -248 -2 callsubr
            return
          </CharString>
          <CharString index="292">
            160 -1203 108 0 663 1181 100 178 34 28 112 15 rlinecurve
            9 47 -398 0 -10 -47 140 -20 17 -32 -89 -166 rlinecurve
            -512 -959 -116 977 -17 143 29 40 138 17 rlinecurve
            10 47 -516 0 -10 -47 95 -13 32 -28 21 -158 rlinecurve
            return
          </CharString>
          <CharString index="293">
            1258 1260 448 rmoveto
            173 -141 134 -236 20 vhcurveto
            209 21 228 96 2 227 rrcurveto
            195 3 -175 130 -334 hhcurveto
            -453 hlineto
            -9 -47 rlineto
            126 -14 13 -19 -19 -91 -236 -1102 rcurveline
            -19 -91 -21 -19 180 callsubr
            return
          </CharString>
          <CharString index="294">
            236 -218 rmoveto
            114 82 36 55 11 hvcurveto
            56 12 -66 35 -114 hhcurveto
            -53 hlineto
            -112 -84 -35 -56 -11 hvcurveto
            -55 -12 68 -36 112 hhcurveto
            58 39 rmoveto
            -45 hlineto
            -42 -19 22 30 6 hvcurveto
            31 6 29 21 42 hhcurveto
            46 hlineto
            43 18 -21 -31 -6 hvcurveto
            -30 -6 -28 -22 -44 hhcurveto
            return
          </CharString>
          <CharString index="295">
            1169 rmoveto
            88 63 65 198 24 hvcurveto
            -51 hlineto
            -106 -18 -27 -35 -42 hhcurveto
            -29 -23 15 29 -33 hvcurveto
            -33 29 rlineto
            33 -40 -37 22 -51 hhcurveto
            -86 -65 -66 -197 -23 hvcurveto
            51 hlineto
            105 18 27 35 42 hhcurveto
            29 23 -15 -29 33 hvcurveto
            33 -28 rlineto
            -33 39 38 -22 50 hhcurveto
            return
          </CharString>
          <CharString index="296">
            -497 0 -10 -47 119 -13 19 -18 -19 -93 rlinecurve
            -259 -1213 -578 0 259 1213 19 94 21 16 130 14 rlinecurve
            9 47 -496 0 -10 -47 121 -13 17 -18 -19 -93 rlinecurve
            -258 -1213 -578 0 258 1213 return
          </CharString>
          <CharString index="297">
            -144 184 -236 -321 -192 -279 -304 -247 145 -185 236 hvcurveto
            4 62 rmoveto
            -118 -66 102 203 hvcurveto
            268 2 108 319 198 hhcurveto
            118 66 -102 -203 -1 hvcurveto
            -268 -1 -108 -319 -198 hhcurveto
            endchar
          </CharString>
          <CharString index="298">
            1466 rmoveto
            -121 -366 63 0 251 358 rlineto
            8 vlineto
            -455 -308 rmoveto
            55 43 43 55 51 -39 39 -53 -54 -44 -43 -55 -51 39 -39 53 hvcurveto
            510 hmoveto
            54 43 43 55 51 -38 39 -54 -54 -43 -43 -55 -51 39 -39 53 hvcurveto
            endchar
          </CharString>
          <CharString index="299">
            105 491 110 -629 70 0 96 192 269 442 -99 -536 -8 -44 -12 -10 -73 -8 rlinecurve
            -7 -36 306 0 8 36 -68 8 -7 9 8 45 rlinecurve
            100 546 8 44 13 12 71 8 rlinecurve
            8 36 -246 0 -309 -545 rlineto
            return
          </CharString>
          <CharString index="300">
            1945 rmoveto
            -75 -60 -30 -26 -35 hvcurveto
            -9 -37 rlineto
            12 24 43 12 44 hhcurveto
            57 34 -22 -35 -8 hvcurveto
            -7 -34 -37 -23 -69 -16 rrcurveto
            36 -28 118 24 74 32 14 67 rlinecurve
            67 14 -73 37 -85 hhcurveto
            -62 -408 -2 callsubr
            return
          </CharString>
          <CharString index="301">
            -198 -27 -120 -566 rlineto
            -179 -44 -124 -141 -129 hhcurveto
            -103 -27 84 130 28 hvcurveto
            149 699 -198 -26 -121 -572 rlineto
            -178 -45 -123 -137 -129 hhcurveto
            -102 -28 84 130 28 hvcurveto
            149 return
          </CharString>
          <CharString index="302">
            107 500 rlineto
            208 45 -88 113 -172 hhcurveto
            -148 -129 -109 -188 -69 hvcurveto
            1 1 6 30 1 vvcurveto
            169 21 -79 96 -161 hhcurveto
            -149 -124 -99 -199 -74 hvcurveto
            63 292 -66 callsubr
            return
          </CharString>
          <CharString index="303">
            -261 160 -136 180 -11 hvcurveto
            -124 -140 -36 callsubr
            159 callsubr
            61 -37 86 hhcurveto
            endchar
          </CharString>
          <CharString index="304">
            11 -16 5 -51 80 -817 rcurveline
            101 hlineto
            298 347 220 371 164 vvcurveto
            73 -48 46 -65 -65 -49 -46 -62 -60 48 -45 61 9 9 1 2 8 vhcurveto
            -52 -193 -145 -229 -163 -207 rrcurveto
            return
          </CharString>
          <CharString index="305">
            -477 rmoveto
            77 63 34 43 35 hvcurveto
            10 46 rlineto
            -20 -28 -35 -11 -35 hhcurveto
            -60 -38 29 67 80 50 94 168 102 hvcurveto
            69 42 -49 0 -70 -40 rlineto
            -230 -133 -83 -92 -98 vvcurveto
            -89 67 -54 89 vhcurveto
            endchar
          </CharString>
          <CharString index="306">
            62 -41 rlineto
            -86 132 68 -21 87 hhcurveto
            114 115 70 163 79 hvcurveto
            -32 26 rlineto
            -87 -51 -58 -30 -59 hhcurveto
            -80 -55 23 69 -116 hvcurveto
            -85 52 584 665 55 callgsubr
            344 hlineto
            endchar
          </CharString>
          <CharString index="307">
            -161 1203 -108 0 -662 -1182 -100 -176 -35 -29 -111 -15 rlinecurve
            -10 -47 399 0 10 47 -141 20 -15 33 88 165 rlinecurve
            132 247 464 0 32 -265 return
          </CharString>
          <CharString index="308">
            rmoveto
            82 59 58 178 21 hvcurveto
            -48 hlineto
            -95 -16 47 callgsubr
            -81 -60 -59 -177 -20 hvcurveto
            47 hlineto
            94 17 24 31 40 hhcurveto
            27 21 -12 -27 31 hvcurveto
            31 -25 rlineto
            -30 36 36 -19 46 hhcurveto
            endchar
          </CharString>
          <CharString index="309">
            -83 -347 rlineto
            41 hlineto
            97 230 69 46 238 13 rrcurveto
            87 4 -260 -1221 -18 -87 -21 -20 -153 -15 rlinecurve
            -10 -47 544 0 9 47 rlineto
            -147 17 -15 18 19 87 116 return
          </CharString>
          <CharString index="310">
            135 13 rlinecurve
            9 47 -504 0 -10 -47 rlineto
            123 -14 16 -17 -19 -93 -235 -1102 rcurveline
            -20 -93 -20 -17 -132 -14 -9 -47 rcurveline
            492 hlineto
            430 275 198 282 hvcurveto
            return
          </CharString>
          <CharString index="311">
            rrcurveto
            234 11 148 86 149 hhcurveto
            55 50 -14 -22 37 hvcurveto
            -44 -8 -35 -34 -54 vvcurveto
            -51 37 -48 62 55 45 44 56 107 -116 94 -183 -214 -244 -133 -302 -15 vhcurveto
            return
          </CharString>
          <CharString index="312">
            0 -10 -47 rlineto
            139 -17 26 -38 -29 -128 -45 -197 -34 -136 -61 -218 -79 -285 -72 -195 -94 -91 rrcurveto
            1 7 1 7 8 vvcurveto
            70 -50 54 -74 -74 -56 -58 -71 return
          </CharString>
          <CharString index="313">
            1862 rmoveto
            -70 -64 -34 -48 -33 hvcurveto
            -9 -37 rlineto
            22 29 37 14 42 hhcurveto
            62 33 -27 -42 -51 -54 -51 -87 -49 hvcurveto
            54 hlineto
            128 45 81 62 78 vvcurveto
            67 -57 51 -92 vhcurveto
            return
          </CharString>
          <CharString index="314">
            971 240 297 rmoveto
            54 -41 99 -38 129 -7 rrcurveto
            -45 -211 48 0 45 211 rlineto
            215 3 164 117 175 vvcurveto
            109 -58 86 -133 87 vhcurveto
            return
          </CharString>
          <CharString index="315">
            23 42 13 44 hhcurveto
            56 31 -25 -41 -9 hvcurveto
            -8 -40 -37 -26 -67 -20 rrcurveto
            34 -32 116 27 72 39 18 79 rlinecurve
            78 16 -70 -49 callgsubr
            -18 callsubr
            return
          </CharString>
          <CharString index="316">
            -8 -240 -254 -342 vvcurveto
            -253 158 -137 return
          </CharString>
          <CharString index="317">
            -10 -27 -8 -32 -29 vvcurveto
            -112 2 89 -80 128 hhcurveto
            return
          </CharString>
          <CharString index="318">
            -27 -7 -34 -30 vvcurveto
            -116 1 90 -84 131 hhcurveto
            endchar
          </CharString>
          <CharString index="319">
            -90 -359 rlineto
            43 hlineto
            176 88 90 36 254 hhcurveto
            return
          </CharString>
          <CharString index="320">
            vhcurveto
            73 -16 48 -44 -71 vvcurveto
            -87 -81 -66 -105 -11 vhcurveto
            endchar
          </CharString>
          <CharString index="321">
            hhcurveto
            115 114 70 163 80 hvcurveto
            -32 26 rlineto
            -87 return
          </CharString>
        <CharString name=".notdef">
          2048 54 -494 rmoveto
          89 hlineto
          519 2444 rlineto
          -89 hlineto
          -108 -2444 rmoveto
          88 hlineto
          519 2444 rlineto
          -88 hlineto
          -110 -66 callgsubr
          -109 -66 callgsubr
          -109 -66 callgsubr
          endchar
        </CharString>
        <CharString name=".null">
          0 endchar
        </CharString>
        <CharString name="A">
          1310 1179 246 -104 callsubr
          -99 callsubr
        </CharString>
        <CharString name="AE">
          1893 2031 1444 118 callsubr
        </CharString>
        <CharString name="AEacute">
          1893 1628 -86 callsubr
          -81 callsubr
          209 -374 118 callsubr
        </CharString>
        <CharString name="AEmacron">
          1893 1289 1629 rmoveto
          457 hlineto
          26 callsubr
          719 -293 118 callsubr
        </CharString>
        <CharString name="Aacute">
          1310 1105 -86 callsubr
          20 callsubr
          -120 -1572 -104 callsubr
          -99 callsubr
        </CharString>
        <CharString name="Abreve">
          1310 1015 140 callsubr
          90 -80 127 hhcurveto
          164 -1340 -104 callsubr
          -99 callsubr
        </CharString>
        <CharString name="Abreveacute">
          1310 1294 1835 rmoveto
          25 114 -545 -146 -8 -44 rlineto
          209 -222 -2 callsubr
          204 -1291 -104 callsubr
          -99 callsubr
        </CharString>
        <CharString name="Abrevecyrillic">
          1310 974 1602 rmoveto
          150 127 85 168 53 hvcurveto
          -51 17 rlineto
          -139 -46 -105 -76 -124 hhcurveto
          -49 -40 16 24 -27 hvcurveto
          2 2 0 2 hhcurveto
          48 39 40 51 56 -40 42 -52 -58 -40 -46 -58 -97 82 -83 127 hvcurveto
          205 -1356 -104 callsubr
          -99 callsubr
        </CharString>
        <CharString name="Abrevedotbelow">
          1310 1015 140 callsubr
          90 -80 127 hhcurveto
          164 -1340 -104 callsubr
          48 callsubr
          157 callsubr
        </CharString>
        <CharString name="Abrevegrave">
          1310 782 1835 rmoveto
          497 -76 9 44 -483 146 rlineto
          170 -412 -2 callsubr
          204 -1291 -104 callsubr
          -99 callsubr
        </CharString>
        <CharString name="Abrevehookabove">
          1310 1037 193 callsubr
          204 -1291 -104 callsubr
          -99 callsubr
        </CharString>
        <CharString name="Abrevetilde">
          1310 1140 184 callsubr
          204 -1291 -104 callsubr
          -99 callsubr
        </CharString>
        <CharString name="Acaron">
          1310 1219 -83 callsubr
          -146 154 -50 0 -65 callsubr
          -93 -1595 -104 callsubr
          -99 callsubr
        </CharString>
        <CharString name="Acircumflex">
          1310 798 -80 callsubr
          -23 callsubr
          434 -1301 -104 callsubr
          -99 callsubr
        </CharString>
        <CharString name="Acircumflexacute">
          1310 1289 87 callsubr
          -68 callsubr
          460 -1296 -104 callsubr
          -99 callsubr
        </CharString>
        <CharString name="Acircumflexdotbelow">
          1310 798 -80 callsubr
          -23 callsubr
          434 -1301 -104 callsubr
          48 callsubr
          157 callsubr
        </CharString>
        <CharString name="Acircumflexgrave">
          1310 777 86 callsubr
          -68 callsubr
          460 -1296 -104 callsubr
          -99 callsubr
        </CharString>
        <CharString name="Acircumflexhookabove">
          1310 1267 1898 rmoveto
          -71 -58 -29 -27 -35 -29 callgsubr
          56 150 callsubr
          -68 callsubr
          460 -1296 -104 callsubr
          -99 callsubr
        </CharString>
        <CharString name="Acircumflextilde">
          1310 1135 126 callsubr
          43 hhcurveto
          26 146 callsubr
          460 -1296 -104 callsubr
          -99 callsubr
        </CharString>
        <CharString name="Acyrillic">
          1310 1179 246 -104 callsubr
          -99 callsubr
        </CharString>
        <CharString name="Adblgrave">
          1310 792 1818 rmoveto
          -155 -5 hlineto
          221 -267 rlineto
          45 hlineto
          74 callgsubr
          47 -1300 -104 callsubr
          -99 callsubr
        </CharString>
        <CharString name="Adieresis">
          1310 852 22 callsubr
          49 -37 39 -50 -51 -42 -42 -53 72 callgsubr
          26 -1345 -104 callsubr
          -99 callsubr
        </CharString>
        <CharString name="Adieresismacron">
          1310 777 -55 callgsubr
          33 -335 rmoveto
          45 -3 callsubr
          -6 hlineto
          -46 -42 callgsubr
          66 -1315 -104 callsubr
          -99 callsubr
        </CharString>
        <CharString name="Adotaccent">
          1310 1003 -53 callsubr
          -39 40 -53 -54 -81 callgsubr
          176 -1342 -104 callsubr
          -99 callsubr
        </CharString>
        <CharString name="Adotbelow">
          1310 1179 246 -104 callsubr
          48 callsubr
          157 callsubr
        </CharString>
        <CharString name="Adotmacron">
          1310 772 156 callsubr
          67 callgsubr
          182 -1312 -104 callsubr
          -99 callsubr
        </CharString>
        <CharString name="Agrave">
          1310 937 -41 callsubr
          136 -1301 -104 callsubr
          -99 callsubr
        </CharString>
        <CharString name="Ahookabove">
          1310 1031 60 callsubr
          155 callsubr
          148 -1616 -104 callsubr
          -99 callsubr
        </CharString>
        <CharString name="Ainvertedbreve">
          1310 1014 1866 rmoveto
          -155 -94 -108 -172 -7 hvcurveto
          46 hlineto
          100 19 65 40 callsubr
          -52 callgsubr
          165 -1620 -104 callsubr
          -99 callsubr
        </CharString>
        <CharString name="Alphagreek">
          1310 1179 246 -104 callsubr
          -99 callsubr
        </CharString>
        <CharString name="Alphatonosgreek">
          1310 1179 246 -104 callsubr
          -663 1198 -72 callsubr
          -8 callsubr
          -222 -870 rmoveto
          347 649 77 -649 rlineto
          endchar
        </CharString>
        <CharString name="Amacron">
          1310 765 46 callsubr
          391 -1491 -104 callsubr
          -99 callsubr
        </CharString>
        <CharString name="Aogonek">
          1310 1003 49 callgsubr
          -61 -39 57 89 77 31 82 70 74 hvcurveto
          226 hlineto
          9 47 -95 13 -31 28 -21 158 rlinecurve
          200 callsubr
          rlineto
          16 -143 -28 -40 -139 -17 -9 -47 rcurveline
          245 98 callgsubr
          -505 1051 rmoveto
          347 649 77 -649 rlineto
          endchar
        </CharString>
        <CharString name="Aring">
          1310 806 1721 rmoveto
          -100 89 -58 105 133 93 74 -17 callgsubr
          251 -1456 -104 callsubr
          -99 callsubr
        </CharString>
        <CharString name="Aringacute">
          1310 1290 1818 -38 callgsubr
          187 callsubr
          176 -1318 -104 callsubr
          -99 callsubr
        </CharString>
        <CharString name="Aringbelow">
          1310 1179 246 -104 callsubr
          48 callsubr
          -597 -881 rmoveto
          -97 2 101 57 callgsubr
          -148 -102 -75 -103 4 hvcurveto
          135 -19 rmoveto
          79 -3 52 18 callgsubr
        </CharString>
        <CharString name="Atilde">
          1310 1096 1597 rmoveto
          74 52 -79 callgsubr
          66 callsubr
          24 callsubr
          7 callgsubr
          83 -1351 -104 callsubr
          -99 callsubr
        </CharString>
        <CharString name="B">
          1258 1260 448 77 callsubr
        </CharString>
        <CharString name="Bdotaccent">
          1258 910 -33 callsubr
          350 -1140 77 callsubr
        </CharString>
        <CharString name="Bdotbelow">
          186 callsubr
          -497 -643 -54 callsubr
          -101 callgsubr
        </CharString>
        <CharString name="Becyrillic">
          1244 1264 460 rmoveto
          214 -173 151 -360 vhcurveto
          -136 hlineto
          120 564 214 -8 273 -11 46 -51 4 -213 rlinecurve
          40 hlineto
          57 338 -988 0 -10 -47 rlineto
          136 -15 15 -16 -20 -93 -234 -1102 rcurveline
          -20 -93 -23 -16 -141 -15 -9 -47 rcurveline
          504 hlineto
          412 293 180 280 hvcurveto
          -222 4 rmoveto
          -234 -173 -161 -326 -11 vhcurveto
          -113 -3 151 710 124 -2 rlineto
          215 -3 122 -101 -195 vvcurveto
          endchar
        </CharString>
        <CharString name="Betagreek">
          1258 1260 448 77 callsubr
        </CharString>
        <CharString name="Blinebelow">
          186 callsubr
          -746 -790 -84 callsubr
        </CharString>
        <CharString name="C">
          1382 478 605 -46 callsubr
          3 callsubr
        </CharString>
        <CharString name="Cacute">
          1382 1254 -45 callsubr
          -969 -1213 -46 callsubr
          3 callsubr
        </CharString>
        <CharString name="Ccaron">
          1382 1367 -83 callsubr
          -76 callsubr
          -65 callsubr
          -943 -1236 -46 callsubr
          3 callsubr
        </CharString>
        <CharString name="Ccedilla">
          1382 478 605 -46 callsubr
          -2 -407 255 -240 322 -25 rrcurveto
          -121 -137 -36 callsubr
          159 callsubr
          62 -37 85 hhcurveto
          137 85 -102 callgsubr
          79 90 rlineto
          172 141 callsubr
        </CharString>
        <CharString name="Ccedillaacute">
          1382 1254 -45 callsubr
          -969 -1213 -46 callsubr
          -2 -407 255 -240 322 -25 rrcurveto
          -121 -137 -36 callsubr
          159 callsubr
          62 -37 85 hhcurveto
          137 85 -102 callgsubr
          79 90 rlineto
          172 141 callsubr
        </CharString>
        <CharString name="Ccircumflex">
          1382 947 -80 callsubr
          -24 callsubr
          -416 -942 -46 callsubr
          3 callsubr
        </CharString>
        <CharString name="Cdotaccent">
          1382 1152 -33 callsubr
          -674 -983 -46 callsubr
          3 callsubr
        </CharString>
        <CharString name="Checyrillic">
          1476 1105 169 rmoveto
          -19 -90 -23 -18 -140 -14 rrcurveto
          -10 -47 509 0 10 47 -121 13 -18 17 20 94 rlinecurve
          234 1102 19 94 25 16 128 -12 callsubr
          rlineto
          122 -14 16 -17 -20 -93 -119 -562 rcurveline
          -34 -100 -97 -25 -119 hhcurveto
          -234 -96 131 258 55 hvcurveto
          50 232 20 94 24 17 127 13 rlinecurve
          9 47 -497 0 -10 -47 rlineto
          123 -14 16 -16 -19 -94 -49 -230 rcurveline
          -312 -66 176 -149 331 hhcurveto
          141 95 28 41 107 hvcurveto
          endchar
        </CharString>
        <CharString name="Chigreek">
          1265 311 267 27 callsubr
        </CharString>
        <CharString name="D">
          1453 -16 callsubr
          -61 callsubr
          endchar
        </CharString>
        <CharString name="Dbar">
          1453 208 711 rmoveto
          146 hlineto
          -116 -540 rlineto
          -19 -91 -21 -19 -132 -14 -10 -47 rcurveline
          469 hlineto
          559 432 334 493 369 -272 248 -449 hvcurveto
          -432 hlineto
          -9 -47 rlineto
          125 -14 14 -18 -19 -92 -108 -504 rcurveline
          -146 hlineto
          1064 76 100 callsubr
          139 657 278 0 12 58 -278 0 132 621 89 -5 rlineto
          339 -17 151 -232 -291 vvcurveto
          endchar
        </CharString>
        <CharString name="Dcaron">
          1453 1187 -83 callsubr
          -76 callsubr
          -65 callsubr
          275 -1014 33 callsubr
          -61 callsubr
          endchar
        </CharString>
        <CharString name="Dcircumflexbelow">
          1453 -16 callsubr
          -61 callsubr
          -927 -1299 45 callsubr
        </CharString>
        <CharString name="Dcommaaccent">
          1453 -16 callsubr
          -61 callsubr
          -730 -1304 rmoveto
          129 92 64 104 101 -73 84 callsubr
          59 -33 74 hhcurveto
          endchar
        </CharString>
        <CharString name="Ddotaccent">
          1453 972 -33 callsubr
          544 -761 33 callsubr
          -61 callsubr
          endchar
        </CharString>
        <CharString name="Ddotbelow">
          1453 -16 callsubr
          -61 callsubr
          -707 -1047 -9 callsubr
          52 113 callsubr
        </CharString>
        <CharString name="Decyrillic">
          1428 640 939 rmoveto
          38 144 53 228 17 71 rrcurveto
          537 hlineto
          -282 -1320 rlineto
          -725 hlineto
          119 114 124 264 119 499 rrcurveto
          771 -877 rmoveto
          -201 hlineto
          258 1211 20 94 25 16 128 14 rlinecurve
          9 47 -1143 0 -10 -47 rlineto
          142 -18 26 -37 -33 -144 -21 -91 -27 -105 -17 -60 -113 -475 -127 -293 -147 -112 rrcurveto
          -135 hlineto
          -86 -377 rlineto
          54 hlineto
          259 130 29 56 200 hhcurveto
          688 hlineto
          194 19 -47 -268 19 hvcurveto
          53 hlineto
          endchar
        </CharString>
        <CharString name="Deltagreek">
          1204 45 hmoveto
          1077 hlineto
          10 49 -193 1400 -101 0 -783 -1400 rlineto
          84 12 rmoveto
          627 1146 143 -1146 rlineto
          endchar
        </CharString>
        <CharString name="Djecyrillic">
          1650 1639 418 rmoveto
          263 -163 141 -296 -117 -86 -16 -28 -84 vhcurveto
          65 callgsubr
          61 347 -1156 0 202 callsubr
          548 rcurveline
          22 76 79 12 92 hhcurveto
          198 106 -106 -216 -320 -154 -297 -298 -154 hvcurveto
          16 -40 rlineto
          383 134 261 314 352 vvcurveto
          endchar
        </CharString>
        <CharString name="Dlinebelow">
          1453 -16 callsubr
          -61 callsubr
          -957 -1194 -84 callsubr
        </CharString>
        <CharString name="Dzecyrillic">
          1094 577 -24 70 callsubr
          endchar
        </CharString>
        <CharString name="Dzhecyrillic">
          1495 154 callsubr
          494 hlineto
          106 17 -32 -287 -18 hvcurveto
          53 hlineto
          287 104 29 32 106 hhcurveto
          495 hlineto
          10 47 -125 14 -16 17 20 93 rlinecurve
          234 1102 19 94 22 16 132 14 rlinecurve
          10 47 -498 0 -9 -47 117 -13 19 -18 -20 -93 rlinecurve
          -259 -1213 -678 0 259 1213 19 94 22 69 callgsubr
        </CharString>
        <CharString name="E">
          1178 1353 1444 -92 callsubr
        </CharString>
        <CharString name="Eacute">
          1178 1046 -86 callsubr
          -81 callsubr
          113 -374 -92 callsubr
        </CharString>
        <CharString name="Ebreve">
          1178 957 124 callsubr
          396 -142 -92 callsubr
        </CharString>
        <CharString name="Ecaron">
          1178 1160 -83 callsubr
          92 callsubr
          140 -397 -92 callsubr
        </CharString>
        <CharString name="Ecedilla">
          1178 512 -459 rmoveto
          137 84 -102 callgsubr
          95 109 1 5 451 -30 callsubr
          59 347 -978 0 -21 callsubr
          -28 callgsubr
        </CharString>
        <CharString name="Ecedillabreve">
          1178 957 124 callsubr
          -445 -2045 rmoveto
          137 84 -102 callgsubr
          95 109 1 5 451 -30 callsubr
          59 347 -978 0 -21 callsubr
          -28 callgsubr
        </CharString>
        <CharString name="Ecircumflex">
          1178 739 1547 rmoveto
          219 153 149 -74 callgsubr
          667 -103 -92 callsubr
        </CharString>
        <CharString name="Ecircumflexacute">
          1178 1229 87 callsubr
          238 -91 8 43 -204 159 -38 0 -270 -159 rlineto
          693 -98 -92 callsubr
        </CharString>
        <CharString name="Ecircumflexbelow">
          1178 1353 1444 rmoveto
          -978 hlineto
          -21 callsubr
          1027 -30 callsubr
          -977 -1551 -40 callsubr
        </CharString>
        <CharString name="Ecircumflexdotbelow">
          1178 739 1547 rmoveto
          219 153 149 -74 callgsubr
          667 -103 rmoveto
          -978 hlineto
          -21 callsubr
          1027 -30 callsubr
          -757 -1299 -44 callsubr
        </CharString>
        <CharString name="Ecircumflexgrave">
          1178 717 86 callsubr
          238 -91 8 43 -204 159 -38 0 -270 -159 rlineto
          693 -98 -92 callsubr
        </CharString>
        <CharString name="Ecircumflexhookabove">
          1178 1207 1898 rmoveto
          -71 -58 -29 -27 -34 hvcurveto
          -9 -37 rlineto
          13 23 43 11 42 hhcurveto
          55 150 callsubr
          238 -91 8 43 -204 159 -38 0 -270 -159 rlineto
          693 -98 -92 callsubr
        </CharString>
        <CharString name="Ecircumflextilde">
          1178 1075 1763 rmoveto
          84 71 49 102 22 hvcurveto
          -51 hlineto
          -45 -10 -32 -18 -42 hhcurveto
          -27 -26 6 13 -37 hvcurveto
          -26 10 rlineto
          13 -38 -38 9 -45 hhcurveto
          -82 -73 -49 -103 -21 hvcurveto
          51 hlineto
          46 11 31 18 43 hhcurveto
          26 26 -6 -13 37 hvcurveto
          26 -10 rlineto
          -13 39 36 -9 45 hhcurveto
          -425 -264 rmoveto
          276 91 238 -91 8 43 -204 159 -38 0 -270 -159 rlineto
          693 -98 -92 callsubr
        </CharString>
        <CharString name="Ecyrillic">
          1392 481 605 rmoveto
          35 1 35 3 34 vhcurveto
          688 -9 15 78 -696 -10 rlineto
          377 51 227 255 294 hhcurveto
          219 -33 callgsubr
          58 313 rlineto
          75 -88 -185 106 callgsubr
          -430 -2 285 -244 348 hhcurveto
          178 157 44 67 90 hvcurveto
          67 316 -42 -1 rlineto
          -232 -94 -151 -126 -190 hhcurveto
          -247 -169 242 319 hvcurveto
          endchar
        </CharString>
        <CharString name="Edblgrave">
          1178 733 96 callsubr
          167 272 rmoveto
          -148 -5 hlineto
          167 -267 rlineto
          42 hlineto
          280 -102 -92 callsubr
        </CharString>
        <CharString name="Edieresis">
          1178 793 22 callsubr
          49 -37 39 -50 -51 -42 -42 -53 -49 38 -38 49 hvcurveto
          301 hmoveto
          51 42 41 53 95 callsubr
          259 -147 -92 callsubr
        </CharString>
        <CharString name="Edotaccent">
          1178 944 -53 callsubr
          -20 callsubr
          409 -144 -92 callsubr
        </CharString>
        <CharString name="Edotbelow">
          1178 1353 1444 rmoveto
          -978 hlineto
          -21 callsubr
          1027 -30 callsubr
          -757 -1299 -44 callsubr
        </CharString>
        <CharString name="Efcyrillic">
          1793 212 678 rmoveto
          -277 247 -173 372 -23 vhcurveto
          -12 -57 -19 -89 -21 -20 -136 -13 rlinecurve
          -9 -46 508 0 9 46 rlineto
          -125 14 -20 19 19 89 12 54 rcurveline
          548 14 293 217 333 vvcurveto
          278 -249 173 -374 22 vhcurveto
          12 58 19 88 23 20 133 13 rlinecurve
          10 46 -508 0 -9 -46 rlineto
          128 -14 16 -19 -18 -88 -12 -56 rcurveline
          -546 -15 -291 -217 -331 vvcurveto
          233 -11 rmoveto
          306 185 189 407 20 vhcurveto
          -193 -917 rlineto
          -271 27 -128 154 221 vvcurveto
          1201 110 rmoveto
          -307 -187 -188 -410 -20 vhcurveto
          194 917 rlineto
          273 -26 130 -155 -221 vvcurveto
          endchar
        </CharString>
        <CharString name="Egrave">
          1178 878 -41 callsubr
          369 -103 -92 callsubr
        </CharString>
        <CharString name="Ehookabove">
          1178 972 206 callsubr
          381 -418 -92 callsubr
        </CharString>
        <CharString name="Einvertedbreve">
          1178 955 1866 rmoveto
          -154 -95 -108 -172 -7 hvcurveto
          47 hlineto
          100 18 65 40 callsubr
          -52 callgsubr
          398 -422 -92 callsubr
        </CharString>
        <CharString name="Elcyrillic">
          1429 192 -24 rmoveto
          193 109 212 467 128 hvcurveto
          74 266 49 191 60 273 rrcurveto
          511 hlineto
          -258 -1214 -20 -94 -21 -16 -130 -14 rlinecurve
          -9 -47 497 0 10 47 -121 13 -19 18 20 93 rlinecurve
          234 1102 20 94 25 16 128 14 rlinecurve
          9 47 -1118 205 callsubr
          -76 54 -57 86 vhcurveto
          endchar
        </CharString>
        <CharString name="Emacron">
          1178 706 1629 rmoveto
          458 hlineto
          26 callsubr
          623 -293 -92 callsubr
        </CharString>
        <CharString name="Emacronacute">
          1178 1234 1835 -38 callgsubr
          -36 -170 -105 callgsubr
          666 -231 -92 callsubr
        </CharString>
        <CharString name="Emacrongrave">
          1178 722 -65 callgsubr
          -75 -360 -105 callgsubr
          666 -231 -92 callsubr
        </CharString>
        <CharString name="Emcyrillic">
          1723 731 1444 30 callsubr
        </CharString>
        <CharString name="Encyrillic">
          1507 446 171 -71 callsubr
          -54 callgsubr
          endchar
        </CharString>
        <CharString name="Eogonek">
          1178 870 -477 rmoveto
          75 56 36 47 27 hvcurveto
          10 46 rlineto
          -19 -21 -28 -12 -32 hhcurveto
          -62 -38 57 89 77 32 82 69 74 hvcurveto
          137 hlineto
          99 386 rlineto
          -41 hlineto
          -108 -263 -87 -49 -288 -11 rrcurveto
          -236 -9 139 659 248 -4 -25 callgsubr
          61 -48 8 -226 rlinecurve
          41 hlineto
          59 347 -978 0 -10 -47 rlineto
          126 -14 14 -19 -20 -91 -235 -1102 rcurveline
          -19 -91 -21 -19 -132 -14 -10 -47 rcurveline
          845 98 callgsubr
          endchar
        </CharString>
        <CharString name="Epsilongreek">
          1178 1353 1444 -92 callsubr
        </CharString>
        <CharString name="Epsilontonosgreek">
          1491 1667 1444 rmoveto
          -979 hlineto
          -9 -47 126 -14 13 -19 -19 -91 rlinecurve
          -235 -1102 -20 -91 -21 -19 -132 -14 rlinecurve
          -10 -47 1028 0 98 386 rlineto
          -41 hlineto
          -108 -263 -86 -49 -289 -11 rrcurveto
          -235 -9 139 659 248 -4 108 -2 19 -43 -5 -161 rlinecurve
          40 hlineto
          98 463 rlineto
          -39 hlineto
          -63 -157 -38 -36 -108 -3 rrcurveto
          -249 -3 133 623 223 -9 244 -10 60 -48 8 -226 rlinecurve
          41 hlineto
          -1228 347 -72 callsubr
          23 callsubr
        </CharString>
        <CharString name="Ercyrillic">
          1218 580 hmoveto
          29 callsubr
        </CharString>
        <CharString name="Ereversedcyrillic">
          1426 438 1354 rmoveto
          -77 -321 rlineto
          41 hlineto
          271 103 160 98 180 hhcurveto
          282 132 -255 -325 -18 -1 -17 -1 -18 hvcurveto
          -686 9 -17 -80 699 9 rlineto
          -361 -38 -215 -306 -335 hhcurveto
          -252 -117 154 203 -11 hvcurveto
          -41 hlineto
          -40 -302 rlineto
          -65 81 185 -54 196 hhcurveto
          475 346 350 459 395 -233 288 -408 -150 -159 -46 -68 -99 hvcurveto
          endchar
        </CharString>
        <CharString name="Escyrillic">
          1382 478 605 -46 callsubr
          3 callsubr
        </CharString>
        <CharString name="Etagreek">
          1507 446 171 -71 callsubr
          -54 callgsubr
          endchar
        </CharString>
        <CharString name="Etatonosgreek">
          1833 772 171 rmoveto
          114 538 687 0 -115 -538 -18 -91 -24 -20 -127 -13 rlinecurve
          -9 -47 498 0 9 47 -124 14 -16 21 19 92 rlinecurve
          234 1097 20 91 25 21 130 14 rlinecurve
          10 47 -499 0 -10 -47 122 -13 15 -20 -20 -91 rlinecurve
          -107 -504 -687 0 107 5 callgsubr
          -233 -1097 -21 -92 -22 -21 -132 -14 rlinecurve
          -10 -47 499 0 9 47 -118 13 -18 20 20 91 rlinecurve
          -393 1273 -72 callsubr
          23 callsubr
        </CharString>
        <CharString name="Etilde">
          1178 1037 5 callsubr
          -23 -27 -34 hhcurveto
          -24 -19 12 23 66 callsubr
          24 callsubr
          107 callsubr
          17 callsubr
          316 -153 -92 callsubr
        </CharString>
        <CharString name="Etildebelow">
          1178 1353 1444 rmoveto
          -978 hlineto
          -21 callsubr
          1027 -30 callsubr
          -661 -1503 rmoveto
          81 89 callgsubr
          -80 -60 -59 -177 -20 hvcurveto
          47 59 callsubr
          -48 callgsubr
        </CharString>
        <CharString name="F">
          1089 1324 1444 177 callsubr
        </CharString>
        <CharString name="Fdotaccent">
          1089 921 -53 callsubr
          -20 callsubr
          403 -144 177 callsubr
        </CharString>
        <CharString name="G">
          1502 252 650 -31 callsubr
        </CharString>
        <CharString name="Gacute">
          1502 1237 -86 callsubr
          -81 callsubr
          -1179 -1168 -31 callsubr
        </CharString>
        <CharString name="Gammagreek">
          1118 1350 1444 rmoveto
          -981 hlineto
          -10 -47 136 -15 15 -16 -19 -93 rlinecurve
          -235 -1102 -19 -93 -23 -16 -141 -15 rlinecurve
          -10 -47 546 0 10 47 -158 18 -16 17 19 87 rlinecurve
          259 1221 218 -9 265 -11 43 -51 4 -213 rlinecurve
          40 hlineto
          endchar
        </CharString>
        <CharString name="Gbreve">
          1502 1148 124 callsubr
          -896 -936 -31 callsubr
        </CharString>
        <CharString name="Gcaron">
          1502 1351 -83 callsubr
          92 callsubr
          -1152 -1191 -31 callsubr
        </CharString>
        <CharString name="Gcircumflex">
          1502 930 1547 rmoveto
          219 153 149 -74 callgsubr
          -625 -897 -31 callsubr
        </CharString>
        <CharString name="Gcommaaccent">
          1502 252 650 rmoveto
          -422 -2 298 -252 350 hhcurveto
          176 177 54 74 93 hvcurveto
          86 399 18 87 20 22 120 14 rlinecurve
          9 46 -484 0 -10 -46 rlineto
          142 -16 10 -20 -19 -86 -84 -401 rcurveline
          -39 -50 -93 -20 -89 hhcurveto
          -261 -178 225 336 465 249 330 336 221 -33 callgsubr
          19 callgsubr
          520 -1109 rmoveto
          129 92 64 104 101 -73 84 callsubr
          60 -33 73 hhcurveto
          endchar
        </CharString>
        <CharString name="Gdotaccent">
          1502 1135 -53 callsubr
          -20 callsubr
          -883 -938 -31 callsubr
        </CharString>
        <CharString name="Geacutecyrillic">
          1090 998 -45 callsubr
          140 -374 rmoveto
          -969 142 callsubr
          -6 callgsubr
        </CharString>
        <CharString name="Gecyrillic">
          1090 1331 1444 rmoveto
          -969 142 callsubr
          -6 callgsubr
        </CharString>
        <CharString name="Germandbls">
          1383 428 hmoveto
          295 1390 185 -7 rlineto
          237 -10 100 -90 -172 vvcurveto
          -159 -106 -109 -183 -33 vhcurveto
          -28 -126 rlineto
          180 -84 78 -116 -166 vvcurveto
          -167 -100 -108 -145 -134 -109 106 225 8 vhcurveto
          -43 hlineto
          -59 -300 rlineto
          -56 63 122 -42 148 hhcurveto
          225 210 155 258 188 -99 147 -180 88 hvcurveto
          181 14 160 109 191 vvcurveto
          198 -157 120 -287 vhcurveto
          -612 hlineto
          -10 -47 rlineto
          128 -14 16 -17 -20 -93 -234 -1102 rcurveline
          -19 -94 -22 -16 -135 -14 -10 -47 rcurveline
          endchar
        </CharString>
        <CharString name="Geupturncyrillic">
          1069 1298 1385 rmoveto
          84 377 rlineto
          -54 hlineto
          -270 -125 -39 -48 -194 hhcurveto
          -608 142 callsubr
          rlineto
          -145 17 -18 18 19 87 258 1216 rcurveline
          endchar
        </CharString>
        <CharString name="Gmacron">
          1502 897 1629 rmoveto
          458 hlineto
          26 callsubr
          -669 -1087 -31 callsubr
        </CharString>
        <CharString name="H">
          1507 446 171 -71 callsubr
          -54 callgsubr
          endchar
        </CharString>
        <CharString name="Hacyrillic">
          1265 311 267 27 callsubr
        </CharString>
        <CharString name="Hardsigncyrillic">
          1440 1507 151 callsubr
          134 13 rlinecurve
          10 47 -752 0 -83 -338 rlineto
          40 hlineto
          97 233 56 37 227 10 rrcurveto
          45 2 -259 -1219 rlineto
          -19 -89 -22 -19 -141 -14 -9 -47 rcurveline
          502 hlineto
          430 275 198 282 hvcurveto
          -222 11 rmoveto
          -248 -175 -174 -324 -11 vhcurveto
          -113 -3 159 744 118 -2 rlineto
          217 -6 118 -103 -197 vvcurveto
          endchar
        </CharString>
        <CharString name="Hbar">
          1507 446 171 rmoveto
          115 538 687 0 -115 -538 -19 -91 -20 -20 -127 -13 rlinecurve
          -10 -47 494 0 10 47 -125 14 -15 19 20 91 rlinecurve
          189 887 147 0 12 57 -147 0 34 158 19 91 23 19 130 14 rlinecurve
          9 47 -493 0 -10 -47 122 -13 11 -20 -19 -91 rlinecurve
          -34 -158 -687 0 34 158 19 91 23 20 124 13 rlinecurve
          10 47 -494 -43 callgsubr
          -33 -158 -146 0 -13 -57 146 0 -189 -887 116 callsubr
          495 0 9 47 -119 13 -14 20 19 91 rlinecurve
          127 598 rmoveto
          62 289 687 0 -61 -289 rlineto
          endchar
        </CharString>
        <CharString name="Hbrevebelow">
          1507 446 171 -71 callsubr
          -54 callgsubr
          243 -611 -24 callgsubr
        </CharString>
        <CharString name="Hcaron">
          1507 1323 -83 callsubr
          -76 callsubr
          -65 callsubr
          -931 -1670 -71 callsubr
          -54 callgsubr
          endchar
        </CharString>
        <CharString name="Hcedilla">
          1507 446 171 -71 callsubr
          216 0 -136 -159 -10 -48 rlineto
          2 4 17 1 6 hhcurveto
          70 43 -32 -54 -50 -39 -34 -63 -54 -50 19 29 -32 hvcurveto
          -11 -46 rlineto
          -50 39 61 -37 86 hhcurveto
          137 85 72 101 102 -73 65 -114 5 hvcurveto
          97 114 220 0 9 47 -119 13 -17 20 19 91 rlinecurve
          endchar
        </CharString>
        <CharString name="Hcircumflex">
          1507 903 -80 callsubr
          -24 callsubr
          -404 -1376 -71 callsubr
          -54 callgsubr
          endchar
        </CharString>
        <CharString name="Hdieresis">
          1507 956 22 callsubr
          95 callsubr
          302 hmoveto
          -90 callgsubr
          -22 callsubr
          -812 -1420 -71 callsubr
          -54 callgsubr
          endchar
        </CharString>
        <CharString name="Hdotaccent">
          1507 1108 1588 rmoveto
          53 44 43 55 51 -39 40 -53 -54 67 callsubr
          -662 -1417 -71 callsubr
          -54 callgsubr
          endchar
        </CharString>
        <CharString name="Hdotbelow">
          1507 446 171 -71 callsubr
          -54 callgsubr
          245 -373 -54 callsubr
          -13 callsubr
        </CharString>
        <CharString name="I">
          16 callsubr
          -89 callsubr
        </CharString>
        <CharString name="IAcyrillic">
          1332 393 988 rmoveto
          -171 114 -101 160 -40 vhcurveto
          -254 -293 -149 -170 -132 -141 -97 -29 rlinecurve
          -10 -43 283 0 556 645 rlineto
          16 18 -1 17 hhcurveto
          147 hlineto
          -101 -473 -20 -94 -24 -16 -127 -14 rlinecurve
          -10 -47 498 0 10 47 rlineto
          -123 14 -17 16 20 94 234 1102 rcurveline
          20 93 21 17 131 14 10 47 rcurveline
          -494 hlineto
          -439 -258 -171 -285 hvcurveto
          216 -3 rmoveto
          244 168 146 330 11 vhcurveto
          113 3 -146 -685 -137 2 rlineto
          -209 2 -119 96 181 vvcurveto
          endchar
        </CharString>
        <CharString name="IJ">
          1226 1075 246 123 callsubr
          -629 -75 -87 callsubr
          -89 callsubr
        </CharString>
        <CharString name="IJacute">
          1226 43 callgsubr
          412 -1 rmoveto
          -213 -271 -81 callsubr
          -487 -1572 123 callsubr
          -629 -75 -87 callsubr
          -89 callsubr
        </CharString>
        <CharString name="IUcyrillic">
          2098 55 hmoveto
          498 hlineto
          9 47 rlineto
          -119 13 -19 18 20 93 114 537 rcurveline
          259 hlineto
          -2 -26 -1 -26 -27 vvcurveto
          -386 237 -265 354 426 328 375 463 385 -235 268 -354 -2 vhcurveto
          -383 -2 -305 -301 -58 -397 rrcurveto
          -254 hlineto
          108 506 19 94 25 16 127 -12 callsubr
          34 callgsubr
          1346 -4 rmoveto
          -264 -106 239 278 399 183 443 341 264 105 -239 -279 -399 -183 -442 -340 hvcurveto
          endchar
        </CharString>
        <CharString name="Iacute">
          613 43 callgsubr
          -511 -1648 -87 callsubr
          -89 callsubr
        </CharString>
        <CharString name="Ibreve">
          613 674 1587 rmoveto
          154 95 108 172 6 hvcurveto
          -46 hlineto
          -99 -19 -65 -60 -122 hhcurveto
          -95 -65 54 74 10 1 13 2 8 hvcurveto
          -46 hlineto
          -11 -27 -7 -32 -29 vvcurveto
          -112 1 89 -80 128 hhcurveto
          -228 -1416 -87 callsubr
          -89 callsubr
        </CharString>
        <CharString name="Icaron">
          613 877 1842 rmoveto
          -216 -154 -76 callsubr
          -65 callsubr
          -485 -1671 -87 callsubr
          -89 callsubr
        </CharString>
        <CharString name="Icircumflex">
          613 457 1548 rmoveto
          219 152 148 -152 49 0 -24 callsubr
          42 -1377 -87 callsubr
          -89 callsubr
        </CharString>
        <CharString name="Icyrillic">
          16 callsubr
          -89 callsubr
        </CharString>
        <CharString name="Idblgrave">
          613 450 1819 rmoveto
          -155 -5 hlineto
          222 -267 rlineto
          45 hlineto
          -58 callgsubr
          43 hlineto
          -345 -1376 -87 callsubr
          -89 callsubr
        </CharString>
        <CharString name="Idieresis">
          613 511 1592 rmoveto
          -90 callgsubr
          38 -50 hhcurveto
          25 callsubr
          hvcurveto
          57 callsubr
          38 -50 25 callsubr
          vhcurveto
          -366 -1421 -87 callsubr
          -89 callsubr
        </CharString>
        <CharString name="Idieresisacute">
          613 952 1835 rmoveto
          24 114 -544 -146 -9 -44 rlineto
          61 -197 rmoveto
          46 41 30 41 9 hvcurveto
          39 9 -29 32 -45 hhcurveto
          -7 hlineto
          -45 -41 -32 -39 -9 hvcurveto
          -41 -9 28 -30 46 hhcurveto
          299 hmoveto
          46 41 30 41 9 hvcurveto
          39 9 -29 32 -46 hhcurveto
          -6 hlineto
          -45 -42 -32 -39 -9 hvcurveto
          -41 -9 29 -30 46 hhcurveto
          -325 -1391 -87 callsubr
          -89 callsubr
        </CharString>
        <CharString name="Idotaccent">
          613 662 1589 rmoveto
          54 43 43 54 51 -39 40 -53 -54 -44 -43 -55 -51 40 -39 53 hvcurveto
          -216 -1418 -87 callsubr
          -89 callsubr
        </CharString>
        <CharString name="Idotbelow">
          16 callsubr
          127 -13 12 -20 12 callsubr
          50 callsubr
          -199 -373 -9 callsubr
          52 113 callsubr
        </CharString>
        <CharString name="Iecyrillic">
          1178 1353 1444 -92 callsubr
        </CharString>
        <CharString name="Igrave">
          613 595 1818 rmoveto
          -172 -6 hlineto
          236 -265 rlineto
          43 hlineto
          -256 -1376 -87 callsubr
          -89 callsubr
        </CharString>
        <CharString name="Ihookabove">
          613 690 1863 rmoveto
          -70 -65 -35 -47 -33 hvcurveto
          -9 -37 rlineto
          22 29 37 114 callsubr
          -87 -49 hvcurveto
          54 hlineto
          129 45 80 62 77 vvcurveto
          68 -56 51 -92 vhcurveto
          -244 -1692 -87 callsubr
          -89 callsubr
        </CharString>
        <CharString name="Iicyrillic">
          1516 55 hmoveto
          173 callsubr
        </CharString>
        <CharString name="Iinvertedbreve">
          613 672 1867 rmoveto
          -154 -95 -108 -172 -6 hvcurveto
          46 hlineto
          99 19 64 59 122 hhcurveto
          96 65 -53 -73 -12 -1 -12 -2 -8 hvcurveto
          46 hlineto
          11 27 7 33 29 vvcurveto
          111 -1 -89 80 -128 hhcurveto
          -226 -1696 -87 callsubr
          -89 callsubr
        </CharString>
        <CharString name="Iishortcyrillic">
          1516 1090 1602 rmoveto
          150 127 85 168 53 hvcurveto
          -50 17 rlineto
          -139 -47 -105 -2 callgsubr
          82 -83 127 hvcurveto
          -1035 -1602 rmoveto
          173 callsubr
        </CharString>
        <CharString name="Imacron">
          613 424 1630 rmoveto
          458 hlineto
          23 107 rlineto
          -458 hlineto
          -1 -1566 -87 callsubr
          -89 callsubr
        </CharString>
        <CharString name="Iocyrillic">
          1178 793 22 callsubr
          49 -37 39 -50 -51 -42 -42 -53 -49 38 -38 49 hvcurveto
          301 hmoveto
          51 42 41 53 95 callsubr
          259 -147 -92 callsubr
        </CharString>
        <CharString name="Iogonek">
          16 callsubr
          rlineto
          127 -13 12 -20 -20 -91 -235 -1102 rcurveline
          -19 -91 -21 -19 -132 -14 -10 -47 rcurveline
          239 hlineto
          -131 -94 -85 -112 -112 vvcurveto
          -93 72 -66 101 74 56 36 47 28 vhcurveto
          9 46 rlineto
          -19 -21 -28 -12 -32 hhcurveto
          -61 -38 57 89 77 31 82 69 74 hvcurveto
          217 hlineto
          10 47 -127 14 -12 19 19 91 rlinecurve
          endchar
        </CharString>
        <CharString name="Iotadieresisgreek">
          613 511 1592 rmoveto
          -90 callgsubr
          38 -50 hhcurveto
          25 callsubr
          hvcurveto
          57 callsubr
          38 -50 25 callsubr
          vhcurveto
          -366 -1421 -87 callsubr
          -89 callsubr
        </CharString>
        <CharString name="Iotagreek">
          16 callsubr
          -89 callsubr
        </CharString>
        <CharString name="Iotatonosgreek">
          939 772 171 rmoveto
          234 1102 20 91 21 19 133 14 rlinecurve
          9 47 -500 0 -10 -47 127 -13 13 -20 12 callsubr
          50 callsubr
          -393 1273 -72 callsubr
          23 callsubr
        </CharString>
        <CharString name="Itilde">
          613 754 1597 rmoveto
          74 1 53 53 19 163 rrcurveto
          -45 hlineto
          -85 -14 -73 callgsubr
          16 -42 hhcurveto
          -73 -54 -54 -161 -18 hvcurveto
          45 hlineto
          84 13 23 28 34 hhcurveto
          24 19 -12 -24 28 hvcurveto
          26 -22 rlineto
          -27 33 31 -17 42 hhcurveto
          -308 -1426 -87 callsubr
          -89 callsubr
        </CharString>
        <CharString name="Itildebelow">
          16 callsubr
          127 -13 12 -20 12 callsubr
          50 callsubr
          -104 -577 rmoveto
          82 89 callgsubr
          -81 -60 -59 -177 -20 hvcurveto
          48 59 callsubr
          31 hvcurveto
          31 -25 rlineto
          -30 36 36 -19 46 hhcurveto
          endchar
        </CharString>
        <CharString name="J">
          613 463 246 83 callsubr
        </CharString>
        <CharString name="Jacute">
          613 756 -86 callsubr
          20 callsubr
          -487 -1572 83 callsubr
        </CharString>
        <CharString name="Jcircumflex">
          613 449 -80 callsubr
          -23 callsubr
          67 -1301 83 callsubr
        </CharString>
        <CharString name="Jecyrillic">
          613 463 246 83 callsubr
        </CharString>
        <CharString name="K">
          1291 449 171 -5 callsubr
        </CharString>
        <CharString name="Kaacutecyrillic">
          1291 1161 -86 callsubr
          -81 callsubr
          -906 -1647 -5 callsubr
        </CharString>
        <CharString name="Kacute">
          1291 1161 -86 callsubr
          -81 callsubr
          -906 -1647 -5 callsubr
        </CharString>
        <CharString name="Kacyrillic">
          1291 449 171 -5 callsubr
        </CharString>
        <CharString name="Kappagreek">
          1291 449 171 -5 callsubr
        </CharString>
        <CharString name="Kcaron">
          1291 1275 -83 callsubr
          92 callsubr
          -879 -1670 -5 callsubr
        </CharString>
        <CharString name="Kcommaaccent">
          119 callsubr
          206 -630 160 callsubr
        </CharString>
        <CharString name="Kdotbelow">
          119 callsubr
          230 -373 rmoveto
          -55 -44 -43 -54 -51 39 -40 53 54 45 43 55 51 -41 39 -51 hvcurveto
          endchar
        </CharString>
        <CharString name="Klinebelow">
          119 callsubr
          -20 -520 -84 callsubr
        </CharString>
        <CharString name="L">
          6 callsubr
          endchar
        </CharString>
        <CharString name="Lacute">
          1106 759 -86 callsubr
          -81 callsubr
          78 -1818 rmoveto
          -27 callsubr
          -4 callsubr
          endchar
        </CharString>
        <CharString name="Lambdagreek">
          1338 1193 221 rmoveto
          -167 1227 -103 0 -669 -1199 -92 -162 -32 -26 -119 -14 rlinecurve
          -10 -47 405 0 10 47 -153 20 -13 27 108 199 rlinecurve
          495 915 121 -987 15 -124 -19 -35 -145 -15 rlinecurve
          -9 -47 521 0 10 47 -108 12 -29 29 -17 133 rlinecurve
          endchar
        </CharString>
        <CharString name="Lcaron">
          1106 1027 1087 101 callsubr
          49 -1087 rmoveto
          -27 callsubr
          -4 callsubr
          endchar
        </CharString>
        <CharString name="Lcircumflexbelow">
          6 callsubr
          229 -454 -40 callsubr
        </CharString>
        <CharString name="Lcommaaccent">
          6 callsubr
          426 -459 -67 callsubr
          -55 callsubr
          40 -30 -50 -52 -45 -30 -65 -50 -68 callgsubr
        </CharString>
        <CharString name="Ldot">
          6 callsubr
          926 708 rmoveto
          65 50 51 64 60 -46 46 -62 -64 -51 -51 -64 -59 46 -47 62 hvcurveto
          endchar
        </CharString>
        <CharString name="Ldotbelow">
          6 callsubr
          449 -202 -44 callsubr
        </CharString>
        <CharString name="Ldotbelowmacron">
          1106 419 1629 rmoveto
          458 hlineto
          26 callsubr
          588 -1737 rmoveto
          -27 callsubr
          -4 callsubr
          449 -202 -44 callsubr
        </CharString>
        <CharString name="Ljecyrillic">
          1960 52 109 rmoveto
          -76 54 -57 86 193 109 212 467 128 vhcurveto
          74 266 49 191 60 273 rrcurveto
          463 hlineto
          -258 -1216 rlineto
          -19 -89 -24 -19 -150 -14 -10 -47 rcurveline
          515 hlineto
          430 275 198 282 223 -177 155 -355 hvcurveto
          -132 hlineto
          90 417 19 90 23 19 134 13 rlinecurve
          10 47 -1076 205 callsubr
          vhcurveto
          1753 382 rmoveto
          -248 -176 -174 -324 -11 vhcurveto
          -112 -3 158 743 118 -1 rlineto
          217 -3 119 -106 -197 vvcurveto
          endchar
        </CharString>
        <CharString name="Llinebelow">
          6 callsubr
          200 -349 -84 callsubr
        </CharString>
        <CharString name="Lslash">
          1106 195 648 rmoveto
          157 47 -111 -524 -19 -90 -21 -20 -132 -14 rlinecurve
          -11 -47 973 0 -27 callsubr
          150 707 374 112 14 62 -375 -112 96 450 19 91 23 19 138 15 rlinecurve
          10 46 -508 0 -9 -47 127 -13 12 -19 -20 -94 rlinecurve
          -109 -514 -157 -47 rlineto
          endchar
        </CharString>
        <CharString name="M">
          1723 731 1444 30 callsubr
        </CharString>
        <CharString name="Macute">
          1723 1323 -86 callsubr
          20 callsubr
          -786 -374 30 callsubr
        </CharString>
        <CharString name="Mdotaccent">
          1723 1221 -53 callsubr
          -39 40 -53 -54 -81 callgsubr
          -490 -144 30 callsubr
        </CharString>
        <CharString name="Mdotbelow">
          1723 731 1444 rmoveto
          -349 hlineto
          -10 -47 114 -15 18 -34 -27 -109 rlinecurve
          -240 -999 -35 -141 -28 -32 -131 -20 rlinecurve
          -9 -47 390 0 9 47 -133 20 -11 32 32 141 rlinecurve
          224 1033 212 -1273 83 0 135 239 594 1033 -205 -1103 -16 -89 -22 -18 -133 -15 rlinecurve
          -10 -47 498 0 9 47 -124 -9 callgsubr
          -181 -455 rmoveto
          -55 -44 -43 -54 -51 39 -40 53 54 45 43 55 51 -41 39 -51 hvcurveto
          endchar
        </CharString>
        <CharString name="Mugreek">
          1723 731 1444 30 callsubr
        </CharString>
        <CharString name="N">
          1436 669 1444 -47 callsubr
        </CharString>
        <CharString name="Nacute">
          1436 1151 -86 callsubr
          20 callsubr
          -676 -374 -47 callsubr
        </CharString>
        <CharString name="Ncaron">
          1436 1265 -83 callsubr
          -146 154 -50 0 -65 callsubr
          -649 -397 -47 callsubr
        </CharString>
        <CharString name="Ncircumflexbelow">
          1436 31 callsubr
          -798 -717 -40 callsubr
        </CharString>
        <CharString name="Ncommaaccent">
          1436 31 callsubr
          -601 -722 -67 callsubr
          -55 callsubr
          39 -30 -50 -52 -44 -30 -65 -50 -68 callgsubr
        </CharString>
        <CharString name="Ndotaccent">
          1436 1049 -53 callsubr
          -39 40 -53 -54 -81 callgsubr
          -380 -144 -47 callsubr
        </CharString>
        <CharString name="Ndotbelow">
          1436 31 callsubr
          -578 -465 -44 callsubr
        </CharString>
        <CharString name="Ngrave">
          1436 983 -41 callsubr
          -420 -103 -47 callsubr
        </CharString>
        <CharString name="Njecyrillic">
          2024 463 171 rmoveto
          124 581 613 0 -124 -581 rlineto
          -19 -93 -21 -17 -132 -14 -9 -47 rcurveline
          492 hlineto
          429 274 190 271 208 -177 145 -356 hvcurveto
          -137 hlineto
          98 461 19 90 24 19 134 13 rlinecurve
          10 47 -504 0 -10 -47 122 -14 17 -17 -20 -93 rlinecurve
          -97 -459 -613 0 98 459 20 93 23 17 128 -12 callsubr
          122 -14 17 -17 -20 -93 rlinecurve
          -234 -1102 -19 -93 -22 -17 -130 -14 rlinecurve
          -10 -47 498 0 9 47 -120 13 -18 18 19 93 rlinecurve
          1405 300 rmoveto
          -236 -175 -166 -322 -11 vhcurveto
          -113 -3 150 699 124 -2 rlineto
          221 -2 115 -97 -182 vvcurveto
          endchar
        </CharString>
        <CharString name="Nlinebelow">
          1436 31 callsubr
          -827 -612 rmoveto
          471 hlineto
          23 110 rlineto
          -471 hlineto
          endchar
        </CharString>
        <CharString name="Ntilde">
          1436 1142 1597 rmoveto
          74 52 -79 callgsubr
          66 callsubr
          24 callsubr
          7 callgsubr
          -473 -153 -47 callsubr
        </CharString>
        <CharString name="Nugreek">
          1436 669 1444 -47 callsubr
        </CharString>
        <CharString name="O">
          1558 869 -20 -97 callsubr
        </CharString>
        <CharString name="OE">
          1952 255 643 rmoveto
          -377 248 -290 401 vhcurveto
          134 70 24 135 hhcurveto
          626 hlineto
          99 386 rlineto
          -39 hlineto
          -104 -251 -98 -59 -280 -11 rrcurveto
          -248 -11 139 655 263 -3 109 -3 19 -42 -6 -159 rlinecurve
          40 hlineto
          99 464 rlineto
          -40 hlineto
          -62 -156 -37 -35 -108 -2 rrcurveto
          -264 -3 132 620 229 -11 255 -10 41 -49 12 -223 rlinecurve
          39 hlineto
          59 347 rlineto
          -668 hlineto
          -153 -70 24 -156 hhcurveto
          -482 -334 -360 -465 hvcurveto
          226 -49 rmoveto
          395 217 413 392 81 62 -11 -19 40 vhcurveto
          -280 -1317 rlineto
          -10 -27 -28 -3 -31 hhcurveto
          -281 -145 236 316 hvcurveto
          endchar
        </CharString>
        <CharString name="Oacute">
          1558 1178 -45 callsubr
          -502 -1838 -97 callsubr
        </CharString>
        <CharString name="Obreve">
          1558 1088 140 callsubr
          89 -80 128 hhcurveto
          -219 -1606 -97 callsubr
        </CharString>
        <CharString name="Ocaron">
          1558 1292 1841 rmoveto
          -217 -154 -76 callsubr
          -65 callsubr
          -476 -1861 -97 callsubr
        </CharString>
        <CharString name="Ocircumflex">
          1558 871 -80 callsubr
          -23 callsubr
          51 -1567 -97 callsubr
        </CharString>
        <CharString name="Ocircumflexacute">
          1558 1362 87 callsubr
          -68 callsubr
          77 -1562 -97 callsubr
        </CharString>
        <CharString name="Ocircumflexdotbelow">
          1558 871 -80 callsubr
          -23 callsubr
          51 -1567 rmoveto
          64 callsubr
          381 98 callsubr
          145 callsubr
          -62 -250 -54 callsubr
          -101 callgsubr
        </CharString>
        <CharString name="Ocircumflexgrave">
          1558 850 86 callsubr
          -68 callsubr
          77 -1562 -97 callsubr
        </CharString>
        <CharString name="Ocircumflexhookabove">
          1558 1340 1898 rmoveto
          -72 -58 -29 -27 -34 -29 callgsubr
          55 31 -21 -35 -8 hvcurveto
          -7 -34 -35 -23 -65 -16 rrcurveto
          34 -28 113 24 70 32 15 77 callgsubr
          -68 callsubr
          77 -1562 -97 callsubr
        </CharString>
        <CharString name="Ocircumflextilde">
          1558 1208 126 callsubr
          42 hhcurveto
          27 146 callsubr
          77 -1562 -97 callsubr
        </CharString>
        <CharString name="Ocyrillic">
          1558 869 -20 -97 callsubr
        </CharString>
        <CharString name="Odblgrave">
          1558 864 96 callsubr
          74 callgsubr
          -336 -1566 -97 callsubr
        </CharString>
        <CharString name="Odieresis">
          1558 925 1591 rmoveto
          51 41 41 53 1 hvcurveto
          49 -37 51 callsubr
          -70 callgsubr
          hvcurveto
          -49 -1 38 -38 50 hhcurveto
          -357 -1611 -97 callsubr
        </CharString>
        <CharString name="Odieresismacron">
          1558 850 -55 callgsubr
          32 -335 rmoveto
          46 -3 callsubr
          -7 hlineto
          -45 -42 callgsubr
          -317 -1581 -97 callsubr
        </CharString>
        <CharString name="Odotaccent">
          1558 1076 -53 callsubr
          -40 40 -52 -55 67 callsubr
          -207 -1608 -97 callsubr
        </CharString>
        <CharString name="Odotaccentmacron">
          1558 845 156 callsubr
          48 37 32 43 41 -41 34 -48 -48 -36 -34 -41 -43 39 -32 49 hvcurveto
          -201 -1578 -97 callsubr
        </CharString>
        <CharString name="Odotbelow">
          1558 869 -20 rmoveto
          64 callsubr
          381 98 callsubr
          145 callsubr
          -62 -250 -54 callsubr
          -101 callgsubr
        </CharString>
        <CharString name="Ograve">
          1558 1010 -41 callsubr
          -247 -1567 -97 callsubr
        </CharString>
        <CharString name="Ohookabove">
          1558 1104 60 callsubr
          155 callsubr
          -235 -1882 -97 callsubr
        </CharString>
        <CharString name="Ohorn">
          1566 246 630 38 callsubr
        </CharString>
        <CharString name="Ohornacute">
          1566 1178 -86 callsubr
          -81 callsubr
          -1126 -1188 38 callsubr
        </CharString>
        <CharString name="Ohorndotbelow">
          1566 246 630 rmoveto
          -381 1 246 -269 376 hhcurveto
          64 callsubr
          176 callsubr
          322 -768 -9 callsubr
          52 55 -13 callsubr
        </CharString>
        <CharString name="Ohorngrave">
          1566 1010 1818 rmoveto
          -172 -7 hlineto
          236 -264 rlineto
          43 hlineto
          -871 -917 38 callsubr
        </CharString>
        <CharString name="Ohornhookabove">
          1566 1105 60 callsubr
          -9 -37 rlineto
          22 29 37 114 callsubr
          -87 -49 hvcurveto
          54 -50 callgsubr
          -859 -1232 38 callsubr
        </CharString>
        <CharString name="Ohorntilde">
          1566 1169 5 callsubr
          -73 callgsubr
          17 -42 hhcurveto
          -73 -54 -54 -162 -18 hvcurveto
          45 hlineto
          85 13 -89 callgsubr
          17 callsubr
          -923 -967 38 callsubr
        </CharString>
        <CharString name="Ohungarumlaut">
          1558 1028 1819 rmoveto
          -143 -272 50 0 252 268 rlineto
          4 vlineto
          131 hmoveto
          -188 -272 50 0 310 268 rlineto
          4 vlineto
          -621 -1839 -97 callsubr
        </CharString>
        <CharString name="Oinvertedbreve">
          1558 1086 1866 rmoveto
          -154 -94 -108 -172 -7 hvcurveto
          46 hlineto
          100 19 65 59 122 hhcurveto
          96 64 -53 -74 -12 -1 -11 -2 -9 hvcurveto
          47 hlineto
          10 28 8 32 29 vvcurveto
          111 -2 -89 80 -128 hhcurveto
          -217 -1886 -97 callsubr
        </CharString>
        <CharString name="Omacron">
          1558 838 46 callsubr
          8 -1757 -97 callsubr
        </CharString>
        <CharString name="Omacronacute">
          1558 1367 1835 -38 callgsubr
          -37 -170 rmoveto
          514 hlineto
          17 85 rlineto
          -513 hlineto
          49 -1695 -97 callsubr
        </CharString>
        <CharString name="Omacrongrave">
          1558 855 -65 callgsubr
          -76 -360 rmoveto
          514 hlineto
          17 85 rlineto
          -513 hlineto
          49 -1695 -97 callsubr
        </CharString>
        <CharString name="Omegagreek">
          1667 149 hmoveto
          570 hlineto
          53 254 -178 72 -109 158 1 25 callgsubr
          -1 hvcurveto
          -2 -306 -175 -266 -321 -88 rrcurveto
          -54 -248 597 -15 callgsubr
          1 -274 250 -388 hhcurveto
          -487 -314 -315 -370 -1 hvcurveto
          15 callgsubr
          endchar
        </CharString>
        <CharString name="Omegatonosgreek">
          1827 309 hmoveto
          570 hlineto
          53 254 -178 72 -110 158 2 25 callgsubr
          -2 hvcurveto
          -1 -306 -175 -266 -321 -88 rrcurveto
          -55 -248 598 -15 callgsubr
          -274 250 -387 -487 -314 -315 -370 -1 vhcurveto
          15 callgsubr
          42 1131 -72 callsubr
          23 callsubr
        </CharString>
        <CharString name="Omicrongreek">
          1558 869 -20 -97 callsubr
        </CharString>
        <CharString name="Omicrontonosgreek">
          1708 1018 -20 rmoveto
          445 306 393 441 381 -248 269 -374 -445 -308 -393 -440 1 hvcurveto
          -382 2 245 -269 376 hhcurveto
          -639 1464 102 callsubr
          419 -1396 rmoveto
          -228 -152 -34 callgsubr
          329 228 152 -179 -338 -442 -229 -388 -313 hvcurveto
          endchar
        </CharString>
        <CharString name="Oogonek">
          1558 794 -477 167 callsubr
        </CharString>
        <CharString name="Oogonekmacron">
          1558 838 46 callsubr
          -67 -2214 167 callsubr
        </CharString>
        <CharString name="Oslash">
          1558 869 -20 161 callsubr
        </CharString>
        <CharString name="Oslashacute">
          1558 1178 -45 callsubr
          -502 -1838 161 callsubr
        </CharString>
        <CharString name="Otilde">
          1558 1169 1597 rmoveto
          73 53 -79 callgsubr
          -28 hvcurveto
          -26 22 rlineto
          27 -33 -32 17 -41 hhcurveto
          -74 -53 -54 -162 -19 hvcurveto
          45 hlineto
          85 14 22 27 34 hhcurveto
          25 18 -12 -24 28 hvcurveto
          26 -22 rlineto
          -26 33 32 -17 42 hhcurveto
          -300 -1617 -97 callsubr
        </CharString>
        <CharString name="Otildeacute">
          1558 1367 -64 callgsubr
          327 -196 rmoveto
          83 72 49 103 22 -96 callgsubr
          108 callsubr
          -84 callgsubr
          -21 99 callsubr
          26 -9 rlineto
          -14 39 36 -9 45 hhcurveto
          -296 -1583 -97 callsubr
        </CharString>
        <CharString name="Otildedieresis">
          1558 946 1783 rmoveto
          46 41 30 41 -88 callgsubr
          -6 hlineto
          -46 -42 -31 -40 -8 hvcurveto
          -41 -9 28 -30 46 hhcurveto
          299 hmoveto
          45 42 30 41 9 hvcurveto
          40 8 -27 31 -46 hhcurveto
          -6 hlineto
          -46 -42 -31 -40 -9 hvcurveto
          -41 -8 28 -30 45 hhcurveto
          -67 -220 rmoveto
          83 72 49 103 22 -96 callgsubr
          108 callsubr
          -84 callgsubr
          -21 99 callsubr
          26 -9 rlineto
          -14 39 36 -9 45 hhcurveto
          -296 -1583 -97 callsubr
        </CharString>
        <CharString name="Otildemacron">
          1558 849 1812 rmoveto
          514 hlineto
          18 84 rlineto
          -514 hlineto
          298 -333 rmoveto
          83 72 49 103 22 -96 callgsubr
          108 callsubr
          -84 callgsubr
          -21 99 callsubr
          26 -9 rlineto
          -14 39 36 -9 45 hhcurveto
          -296 -1583 -97 callsubr
        </CharString>
        <CharString name="P">
          1218 580 hmoveto
          29 callsubr
        </CharString>
        <CharString name="Pacute">
          1218 1004 -86 callsubr
          -81 callsubr
          -618 -1818 rmoveto
          29 callsubr
        </CharString>
        <CharString name="Pdotaccent">
          1218 903 -33 callsubr
          -323 -1588 rmoveto
          29 callsubr
        </CharString>
        <CharString name="Pecyrillic">
          1496 1331 171 rmoveto
          235 1102 19 94 24 16 128 14 rlinecurve
          10 47 -1386 0 -10 -47 125 -14 16 -17 -20 -93 rlinecurve
          -234 -1102 -20 -94 -21 -16 -133 -14 rlinecurve
          -9 -47 498 0 9 47 -118 13 -18 18 19 93 rlinecurve
          259 1214 678 0 -258 -1214 -20 -94 -21 -16 -130 -14 rlinecurve
          -10 -47 498 0 10 47 -121 13 -19 18 20 93 rlinecurve
          endchar
        </CharString>
        <CharString name="Phigreek">
          1784 241 703 rmoveto
          -27 -303 222 -173 394 -23 rrcurveto
          -7 -36 -19 -88 -21 -22 -126 -12 rlinecurve
          -10 -46 489 0 10 46 rlineto
          -122 13 -13 21 18 88 7 34 rcurveline
          437 9 344 186 28 348 27 302 -223 172 -393 22 rrcurveto
          7 35 18 88 22 22 125 12 rlinecurve
          10 46 -490 0 -8 -46 122 -13 13 -21 -19 -88 rlinecurve
          -7 -32 -435 -9 -345 -182 -28 -350 rlinecurve
          228 -12 rmoveto
          21 269 155 213 392 11 rrcurveto
          -194 -919 -290 24 -107 154 23 248 rlinecurve
          1149 65 rmoveto
          -22 -270 -154 -213 -393 -11 rrcurveto
          194 919 290 -24 107 -153 -22 -248 rlinecurve
          endchar
        </CharString>
        <CharString name="Pigreek">
          1544 1360 171 rmoveto
          235 1101 19 94 27 17 137 14 rlinecurve
          10 47 -1419 0 -10 -47 135 -15 16 -16 -20 -93 rlinecurve
          -234 -1103 -19 -92 -24 -16 -140 -17 rlinecurve
          -10 -46 521 0 10 46 -132 16 -18 17 19 92 rlinecurve
          258 1212 689 0 -257 -1211 -19 -93 -24 -16 -139 -15 rlinecurve
          -10 -47 520 0 10 47 -132 14 -18 17 19 93 rlinecurve
          endchar
        </CharString>
        <CharString name="Psigreek">
          1703 564 hmoveto
          545 hlineto
          9 46 rlineto
          -146 16 -16 20 19 87 77 360 rcurveline
          328 11 176 106 128 357 79 223 rcurveline
          46 128 36 27 91 9 11 46 rcurveline
          3 -26 -45 4 -48 hhcurveto
          -140 -69 -38 -165 -58 hvcurveto
          -84 -231 -105 -295 -99 -106 -209 -19 rlinecurve
          145 684 20 92 21 20 117 12 rlinecurve
          10 47 -471 0 -10 -47 rlineto
          113 -12 11 -20 -20 -92 -144 -684 rcurveline
          -202 18 -53 106 21 296 16 220 rcurveline
          165 12 -55 49 -146 hhcurveto
          -42 -49 -4 -3 -26 hvcurveto
          -11 -46 90 -9 29 -27 -9 -128 rlinecurve
          -17 -223 -26 -354 126 -108 329 -12 rlinecurve
          -76 -360 -19 -87 -24 -22 -150 -14 rlinecurve
          endchar
        </CharString>
        <CharString name="Q">
          1562 1254 -363 rmoveto
          80 76 22 37 61 hvcurveto
          8 42 rlineto
          -121 -4 -84 33 -150 122 -125 102 rcurveline
          373 68 247 358 396 vvcurveto
          382 98 callsubr
          vhcurveto
          1 -332 187 -248 296 -58 184 -171 rcurveline
          -143 157 86 -42 97 hhcurveto
          -403 411 rmoveto
          -227 -153 -34 callgsubr
          45 callgsubr
          endchar
        </CharString>
        <CharString name="R">
          1286 1020 hmoveto
          28 callsubr
          endchar
        </CharString>
        <CharString name="Racute">
          1286 1044 -86 callsubr
          -81 callsubr
          -218 -1818 rmoveto
          28 callsubr
          endchar
        </CharString>
        <CharString name="Rcaron">
          1286 1158 -83 callsubr
          -76 callsubr
          -65 callsubr
          -192 -1841 rmoveto
          28 callsubr
          endchar
        </CharString>
        <CharString name="Rcommaaccent">
          1286 1020 hmoveto
          28 callsubr
          -502 -1540 -67 callsubr
          -55 callsubr
          40 -30 -50 -52 -45 -30 -64 -51 -68 callgsubr
        </CharString>
        <CharString name="Rdblgrave">
          1286 731 96 callsubr
          -58 callgsubr
          43 hlineto
          -52 -1546 rmoveto
          28 callsubr
          endchar
        </CharString>
        <CharString name="Rdotaccent">
          1286 943 -33 callsubr
          77 -1588 rmoveto
          28 callsubr
          endchar
        </CharString>
        <CharString name="Rdotbelow">
          1286 1020 hmoveto
          28 callsubr
          -479 -1283 -54 callsubr
          -13 callsubr
        </CharString>
        <CharString name="Rdotbelowmacron">
          1286 705 46 callsubr
          292 -1737 rmoveto
          28 callsubr
          -479 -1283 -54 callsubr
          -13 callsubr
        </CharString>
        <CharString name="Rhogreek">
          1218 580 hmoveto
          29 callsubr
        </CharString>
        <CharString name="Rinvertedbreve">
          1286 953 1866 rmoveto
          -154 -95 -108 -172 -6 hvcurveto
          46 hlineto
          100 19 64 40 callsubr
          28 7 32 29 vvcurveto
          111 -1 -89 80 -128 hhcurveto
          67 -1866 rmoveto
          28 callsubr
          endchar
        </CharString>
        <CharString name="Rlinebelow">
          1286 1020 hmoveto
          28 callsubr
          -728 -1430 -84 callsubr
        </CharString>
        <CharString name="S">
          1094 577 -24 70 callsubr
          endchar
        </CharString>
        <CharString name="Sacute">
          1094 976 -86 callsubr
          -81 callsubr
          -593 -1842 70 callsubr
          endchar
        </CharString>
        <CharString name="Sacutedotaccent">
          1094 909 1754 rmoveto
          48 37 32 43 hvcurveto
          42 -1 -40 33 -48 hhcurveto
          -48 -36 -33 -42 -43 40 -32 48 hvcurveto
          210 -132 rmoveto
          25 113 -545 -146 -9 -43 rlineto
          -13 -1570 70 callsubr
          endchar
        </CharString>
        <CharString name="Scaron">
          1094 1090 -83 callsubr
          -76 callsubr
          -45 callgsubr
          -567 -1865 70 callsubr
          endchar
        </CharString>
        <CharString name="Scarondotaccent">
          1094 913 1774 rmoveto
          48 37 32 42 hvcurveto
          42 -1 -40 34 -48 hhcurveto
          -48 -36 -34 -42 -42 40 -32 48 hvcurveto
          241 -24 rmoveto
          -283 -92 -243 92 -9 -43 211 -159 38 0 277 159 rlineto
          -568 -1731 70 callsubr
          endchar
        </CharString>
        <CharString name="Scedilla">
          1094 475 -459 rmoveto
          -92 callgsubr
          79 90 rlineto
          254 5 236 154 268 vvcurveto
          155 -74 119 -175 121 vhcurveto
          -103 74 rlineto
          -140 95 -51 83 105 vvcurveto
          150 113 95 170 187 112 -124 -236 10 vhcurveto
          40 hlineto
          47 315 rlineto
          63 -75 -146 50 -177 hhcurveto
          -282 -194 -153 -242 -153 88 -117 164 -114 hvcurveto
          104 -74 rlineto
          139 -95 48 -89 -115 vvcurveto
          -173 -144 -99 -166 -196 -141 113 246 -6 vhcurveto
          -41 hlineto
          -52 -314 73 -56 164 -46 152 -9 rlinecurve
          -121 -137 -36 callsubr
          44 30 callgsubr
          endchar
        </CharString>
        <CharString name="Schwa">
          1453 741 -24 rmoveto
          431 305 375 447 396 -208 274 -404 -175 -168 -44 -74 -95 hvcurveto
          -74 -316 rlineto
          40 hlineto
          253 104 170 113 196 hhcurveto
          272 114 -242 -320 -54 -2 -52 -6 -51 hvcurveto
          -996 hlineto
          -19 -58 -13 -70 -70 vvcurveto
          -258 140 -249 388 vhcurveto
          -330 453 rmoveto
          67 8 69 16 55 vhcurveto
          798 hlineto
          -338 -52 -176 -241 -264 hhcurveto
          -229 -101 168 220 hvcurveto
          endchar
        </CharString>
        <CharString name="Scircumflex">
          1094 670 -80 callsubr
          -124 271 -108 0 -238 -271 rlineto
          -39 -1571 70 callsubr
          endchar
        </CharString>
        <CharString name="Scommaaccent">
          1094 577 -24 70 callsubr
          -101 -435 -67 callsubr
          -55 callsubr
          39 -30 -50 -52 -44 -30 -65 -50 -68 callgsubr
        </CharString>
        <CharString name="Sdotaccent">
          1094 874 -53 callsubr
          -20 callsubr
          -297 -1612 70 callsubr
          endchar
        </CharString>
        <CharString name="Sdotbelow">
          1094 577 -24 70 callsubr
          -78 -178 -44 callsubr
        </CharString>
        <CharString name="Sdotbelowdotaccent">
          1094 874 -53 callsubr
          -20 callsubr
          -297 -1612 70 callsubr
          -78 -178 -44 callsubr
        </CharString>
        <CharString name="Shacyrillic">
          2201 471 1273 rmoveto
          -235 -1102 -20 -94 -24 -16 -128 -14 rlinecurve
          -9 -47 2069 0 9 47 -122 14 -17 17 20 93 rlinecurve
          235 1102 19 94 22 16 131 14 rlinecurve
          9 47 189 callsubr
          19 94 22 69 callgsubr
        </CharString>
        <CharString name="Shchacyrillic">
          2208 154 callsubr
          1785 hlineto
          194 19 -47 -268 18 hvcurveto
          54 hlineto
          66 375 -201 0 259 1213 19 94 22 16 131 14 rlinecurve
          9 47 189 callsubr
          20 94 21 69 callgsubr
        </CharString>
        <CharString name="Sigmagreek">
          101 callgsubr
          -43 370 -701 -634 -657 -8 -43 1071 0 101 400 rlineto
          -44 hlineto
          -218 -98 -83 -28 -292 hhcurveto
          -457 hlineto
          617 631 4 22 -308 584 401 -11 268 -8 56 -51 4 -215 rlinecurve
          42 hlineto
          endchar
        </CharString>
        <CharString name="Softsigncyrillic">
          1185 1252 151 callsubr
          203 callsubr
          -222 11 -16 callgsubr
        </CharString>
        <CharString name="T">
          -29 callsubr
          endchar
        </CharString>
        <CharString name="Taugreek">
          -29 callsubr
          endchar
        </CharString>
        <CharString name="Tbar">
          1269 418 711 rmoveto
          264 hlineto
          -115 -542 -18 -87 -24 -21 -153 -15 rlinecurve
          -10 -46 49 callsubr
          115 542 268 0 12 58 -267 0 131 621 57 -3 263 -13 61 -47 -2 -230 rlinecurve
          43 hlineto
          58 347 -1143 0 41 callsubr
          -132 -621 rlineto
          -264 hlineto
          endchar
        </CharString>
        <CharString name="Tcaron">
          1269 1202 -83 callsubr
          92 callsubr
          258 -397 rmoveto
          -1143 hlineto
          41 callsubr
          97 callsubr
          49 callsubr
          91 callsubr
          endchar
        </CharString>
        <CharString name="Tcedilla">
          1269 550 50 callgsubr
          228 0 10 46 -149 16 -14 20 18 87 rlinecurve
          91 callsubr
          58 347 -1143 0 41 callsubr
          97 callsubr
          256 110 callgsubr
          70 43 -32 -54 -50 -39 -34 -64 -53 -50 19 29 -32 hvcurveto
          -11 -46 rlineto
          -50 38 61 -37 87 hhcurveto
          endchar
        </CharString>
        <CharString name="Tcircumflexbelow">
          -29 callsubr
          -1101 -1551 -40 callsubr
        </CharString>
        <CharString name="Tcommaaccent">
          -29 callsubr
          -904 -1556 -67 callsubr
          -55 callsubr
          58 callsubr
          -47 callgsubr
        </CharString>
        <CharString name="Tdotaccent">
          1269 986 -53 callsubr
          -20 callsubr
          527 -144 rmoveto
          -1143 hlineto
          41 callsubr
          97 callsubr
          49 callsubr
          91 callsubr
          endchar
        </CharString>
        <CharString name="Tdotbelow">
          -29 callsubr
          -881 -1299 -54 callsubr
          -13 callsubr
        </CharString>
        <CharString name="Tecyrillic">
          -29 callsubr
          endchar
        </CharString>
        <CharString name="Thetagreek">
          1593 863 -24 rmoveto
          439 332 380 450 2 hvcurveto
          3 372 -226 292 -383 -2 -440 -2 -329 -382 -2 -449 rrcurveto
          -369 -2 224 -290 382 hhcurveto
          6 64 rmoveto
          -254 -132 221 319 3 hvcurveto
          385 3 173 439 361 hhcurveto
          259 130 -220 -323 -3 hvcurveto
          -385 -3 -177 -436 -360 hhcurveto
          -286 444 rmoveto
          41 hlineto
          155 55 43 50 103 hhcurveto
          212 hlineto
          102 21 -50 -155 -11 hvcurveto
          40 hlineto
          100 465 rlineto
          -40 hlineto
          -156 -61 -40 -45 -99 hhcurveto
          -212 hlineto
          -99 -21 45 156 6 hvcurveto
          -40 hlineto
          endchar
        </CharString>
        <CharString name="Thorn">
          1238 255 171 rmoveto
          -20 -94 -22 -16 -130 -14 rrcurveto
          -9 -47 498 0 9 47 rlineto
          -120 13 -19 17 20 94 35 166 rcurveline
          149 hlineto
          361 300 166 270 224 -194 135 -301 hvcurveto
          -146 hlineto
          30 141 20 94 24 16 128 -12 callsubr
          122 -14 16 -16 -19 -94 rlinecurve
          601 -486 rmoveto
          -197 -127 -184 -333 -10 vhcurveto
          -121 -4 146 685 119 -2 rlineto
          198 -7 118 -116 -165 vvcurveto
          endchar
        </CharString>
        <CharString name="Tlinebelow">
          -29 callsubr
          -1130 -1446 -84 callsubr
        </CharString>
        <CharString name="Tsecyrillic">
          1524 154 callsubr
          1100 hlineto
          195 18 -47 -268 19 hvcurveto
          53 hlineto
          67 375 -201 0 258 1213 19 94 22 16 131 -12 callsubr
          119 -13 19 -18 -20 -93 rlinecurve
          -258 -1213 -678 0 258 1213 19 94 22 69 callgsubr
        </CharString>
        <CharString name="Tshecyrillic">
          1731 1523 1444 rmoveto
          -1156 hlineto
          202 callsubr
          547 rcurveline
          22 77 83 14 97 hhcurveto
          236 86 -136 -251 -54 hvcurveto
          -77 -365 353 0 10 47 rlineto
          -123 14 -16 16 20 94 40 190 rcurveline
          308 63 -160 152 -344 hhcurveto
          -111 -86 -16 -27 -81 hvcurveto
          65 callgsubr
          endchar
        </CharString>
        <CharString name="U">
          1457 763 -24 -90 callsubr
        </CharString>
        <CharString name="Uacute">
          1457 1219 -86 callsubr
          -81 callsubr
          -650 -1842 -90 callsubr
        </CharString>
        <CharString name="Ubreve">
          1457 1130 1586 rmoveto
          154 94 109 171 7 hvcurveto
          -46 hlineto
          -99 -19 -65 -59 -122 hhcurveto
          -95 -66 53 74 11 1 12 2 8 hvcurveto
          -46 hlineto
          210 callsubr
          -367 -1610 -90 callsubr
        </CharString>
        <CharString name="Ubrevecyrillic">
          1387 1088 1602 rmoveto
          150 126 85 168 54 hvcurveto
          -51 17 rlineto
          -139 -46 -106 -2 callgsubr
          83 -83 127 hvcurveto
          -857 -1501 170 callsubr
        </CharString>
        <CharString name="Ucaron">
          1457 1333 -83 callsubr
          -76 callsubr
          -65 callsubr
          -624 -1865 -90 callsubr
        </CharString>
        <CharString name="Ucircumflex">
          1457 913 -80 callsubr
          -24 callsubr
          -97 -1571 -90 callsubr
        </CharString>
        <CharString name="Ucircumflexbelow">
          76 callsubr
          -277 -430 -40 callsubr
        </CharString>
        <CharString name="Ucyrillic">
          1387 231 101 170 callsubr
        </CharString>
        <CharString name="Udblgrave">
          1457 906 96 callsubr
          -58 callgsubr
          42 hlineto
          -483 -1570 -90 callsubr
        </CharString>
        <CharString name="Udieresis">
          1457 966 22 callsubr
          95 callsubr
          302 hmoveto
          -90 callgsubr
          -22 callsubr
          -505 -1615 -90 callsubr
        </CharString>
        <CharString name="Udieresisacute">
          31 callgsubr
          61 -198 rmoveto
          46 41 31 40 8 hvcurveto
          40 10 -29 31 -45 hhcurveto
          -7 hlineto
          -45 -41 47 callsubr
          40 31 40 -88 callgsubr
          -10 callsubr
          -40 -9 29 -31 45 hhcurveto
          -464 -1585 -90 callsubr
        </CharString>
        <CharString name="Udieresisbelow">
          76 callsubr
          -241 -364 rmoveto
          20 callgsubr
          359 hmoveto
          20 callgsubr
          endchar
        </CharString>
        <CharString name="Udieresiscaron">
          1457 1435 1951 rmoveto
          -276 -88 -238 88 -9 -42 206 -153 37 0 271 153 rlineto
          -485 -348 rmoveto
          46 41 31 40 8 hvcurveto
          40 10 -29 31 -45 hhcurveto
          -7 hlineto
          -45 -41 47 callsubr
          40 31 40 -88 callgsubr
          -10 callsubr
          -40 -9 29 -31 45 hhcurveto
          -464 -1585 -90 callsubr
        </CharString>
        <CharString name="Udieresisgrave">
          1457 896 1834 rmoveto
          497 -75 9 43 -483 147 rlineto
          22 -388 rmoveto
          46 41 31 40 8 hvcurveto
          40 10 -29 31 -45 hhcurveto
          -7 hlineto
          -45 -41 47 callsubr
          40 31 40 -88 callgsubr
          -10 callsubr
          -40 -9 29 -31 45 hhcurveto
          -464 -1585 -90 callsubr
        </CharString>
        <CharString name="Udieresismacron">
          1457 891 1812 rmoveto
          514 hlineto
          17 84 rlineto
          -513 hlineto
          32 -335 rmoveto
          46 41 31 40 8 hvcurveto
          40 10 -29 31 -45 hhcurveto
          -7 hlineto
          -45 -41 47 callsubr
          40 31 40 -88 callgsubr
          -10 callsubr
          -40 -9 29 -31 45 hhcurveto
          -464 -1585 -90 callsubr
        </CharString>
        <CharString name="Udotbelow">
          76 callsubr
          -57 -178 -54 callsubr
          -13 callsubr
        </CharString>
        <CharString name="Ugrave">
          1457 1051 -41 callsubr
          -394 -1571 -90 callsubr
        </CharString>
        <CharString name="Uhookabove">
          1457 1146 60 callsubr
          -9 -37 rlineto
          22 29 37 114 callsubr
          -87 -49 hvcurveto
          54 -50 callgsubr
          -383 -1886 -90 callsubr
        </CharString>
        <CharString name="Uhorn">
          1530 312 587 42 callsubr
        </CharString>
        <CharString name="Uhornacute">
          1530 1228 -86 callsubr
          -81 callsubr
          -1110 -1231 42 callsubr
        </CharString>
        <CharString name="Uhorndotbelow">
          1530 312 587 rmoveto
          -418 -90 237 -193 304 hhcurveto
          172 callsubr
          236 -1464 -9 callsubr
          53 54 -13 callsubr
        </CharString>
        <CharString name="Uhorngrave">
          1530 1060 -41 callsubr
          -854 -960 42 callsubr
        </CharString>
        <CharString name="Uhornhookabove">
          1530 1154 206 callsubr
          -842 -1275 42 callsubr
        </CharString>
        <CharString name="Uhorntilde">
          1530 1219 5 callsubr
          -23 -27 -34 hhcurveto
          -24 -19 12 23 66 callsubr
          24 callsubr
          107 callsubr
          17 callsubr
          -907 -1010 42 callsubr
        </CharString>
        <CharString name="Uhungarumlaut">
          1457 1069 1819 rmoveto
          -142 -272 50 0 251 268 rlineto
          4 vlineto
          132 hmoveto
          -189 -272 50 0 311 268 rlineto
          4 vlineto
          -769 -1843 -90 callsubr
        </CharString>
        <CharString name="Uinvertedbreve">
          1457 1128 1866 rmoveto
          -154 -95 -108 -172 -6 hvcurveto
          46 hlineto
          100 19 64 40 callsubr
          -52 callgsubr
          -365 -1890 -90 callsubr
        </CharString>
        <CharString name="Umacron">
          1457 880 1629 rmoveto
          458 hlineto
          22 108 rlineto
          -457 hlineto
          -140 -1761 -90 callsubr
        </CharString>
        <CharString name="Umacrondieresis">
          1457 989 1783 rmoveto
          45 42 30 41 8 hvcurveto
          40 9 -28 31 -46 hhcurveto
          -5 hlineto
          -46 -42 -31 -40 -9 hvcurveto
          -41 -9 29 -30 45 hhcurveto
          299 hmoveto
          45 41 30 41 10 hvcurveto
          40 8 -28 31 -46 hhcurveto
          -10 callsubr
          -41 -9 29 -30 45 hhcurveto
          -412 -193 rmoveto
          476 hlineto
          18 85 rlineto
          -476 hlineto
          -117 -1699 -90 callsubr
        </CharString>
        <CharString name="Uogonek">
          1457 711 49 callgsubr
          -62 -39 57 86 70 29 75 61 68 hvcurveto
          310 10 203 213 76 338 rrcurveto
          149 660 34 147 24 33 129 19 rlinecurve
          10 47 -390 0 -10 -47 rlineto
          138 -20 9 -32 -29 -147 -132 -647 rcurveline
          -317 -64 -192 -162 90 callsubr
          105 callgsubr
          111 -17 15 -21 -21 -97 rlinecurve
          -143 -675 -87 -407 222 -193 292 -10 rlinecurve
          -122 -89 -79 -103 -103 vvcurveto
          -93 73 -66 101 vhcurveto
          endchar
        </CharString>
        <CharString name="Upsilondieresisgreek">
          1255 884 1591 rmoveto
          -90 callgsubr
          -22 callsubr
          57 callsubr
          51 callsubr
          -715 -396 -75 callsubr
        </CharString>
        <CharString name="Upsilongreek">
          1255 470 1195 -75 callsubr
        </CharString>
        <CharString name="Upsilontonosgreek">
          1611 826 1195 rmoveto
          194 -529 -105 -497 -19 -87 -23 -21 -153 -15 rlinecurve
          -10 -46 49 callsubr
          107 504 396 496 145 183 39 29 106 16 rlinecurve
          10 47 -386 0 -10 -47 136 -16 3 -40 -122 -164 rlinecurve
          -337 -450 -162 470 -49 140 18 43 139 17 rlinecurve
          10 47 -510 0 -9 -47 92 -14 29 -26 59 -162 rlinecurve
          -447 249 -72 callsubr
          23 callsubr
        </CharString>
        <CharString name="Uring">
          1457 921 1721 rmoveto
          -100 89 -58 104 133 93 74 106 101 -89 59 -105 -133 -92 -76 -106 vhcurveto
          121 -19 rmoveto
          82 48 70 56 46 27 -34 -56 -82 -48 -70 -55 -47 -27 33 57 vhcurveto
          -279 -1726 -90 callsubr
        </CharString>
        <CharString name="Utilde">
          1457 1210 5 callsubr
          -23 -27 -33 hhcurveto
          -25 -19 12 23 -27 hvcurveto
          -26 22 rlineto
          27 -33 -33 24 callsubr
          -18 hvcurveto
          45 hlineto
          85 13 -89 callgsubr
          17 callsubr
          -447 -1621 -90 callsubr
        </CharString>
        <CharString name="Utildeacute">
          31 callgsubr
          327 -196 rmoveto
          83 71 49 103 23 -96 callgsubr
          -27 -26 7 12 -37 hvcurveto
          -27 10 rlineto
          13 -37 -84 callgsubr
          -22 hvcurveto
          52 hlineto
          45 10 32 18 42 hhcurveto
          27 25 -6 -13 37 hvcurveto
          27 -9 rlineto
          -14 38 37 -9 45 hhcurveto
          -444 -1587 -90 callsubr
        </CharString>
        <CharString name="Utildebelow">
          76 callsubr
          39 -382 rmoveto
          82 58 58 178 21 hvcurveto
          -47 hlineto
          -95 -16 -26 -31 -39 hhcurveto
          -27 -21 13 26 -31 hvcurveto
          -30 26 rlineto
          30 -38 -35 19 -47 hhcurveto
          -80 -60 -59 -177 -20 hvcurveto
          47 59 callsubr
          32 hvcurveto
          30 -25 rlineto
          -30 37 36 -19 46 hhcurveto
          endchar
        </CharString>
        <CharString name="V">
          100 callgsubr
          endchar
        </CharString>
        <CharString name="Vdotbelow">
          100 callgsubr
          166 -1400 -9 callsubr
          53 54 -13 callsubr
        </CharString>
        <CharString name="Vecyrillic">
          1258 1260 448 77 callsubr
        </CharString>
        <CharString name="Vtilde">
          1310 1165 5 callsubr
          -23 -27 -34 hhcurveto
          -24 -19 12 23 -27 hvcurveto
          -26 22 rlineto
          27 -33 -33 24 callsubr
          107 callsubr
          17 callsubr
          -727 -399 rmoveto
          185 callsubr
          endchar
        </CharString>
        <CharString name="W">
          2024 435 1198 -6 callsubr
        </CharString>
        <CharString name="Wacute">
          2024 1539 -45 callsubr
          -1297 -620 -6 callsubr
        </CharString>
        <CharString name="Wcircumflex">
          2024 1232 -80 callsubr
          -23 callsubr
          -744 -349 -6 callsubr
        </CharString>
        <CharString name="Wdieresis">
          2024 1286 1591 rmoveto
          51 41 41 53 1 hvcurveto
          49 -37 39 -50 -52 -42 -42 -53 -49 38 -38 50 vhcurveto
          -70 callgsubr
          -1 hvcurveto
          -49 38 -38 50 vhcurveto
          -1152 -393 -6 callsubr
        </CharString>
        <CharString name="Wdotaccent">
          2024 1437 -53 callsubr
          -40 40 -53 -54 67 callsubr
          -1002 -390 -6 callsubr
        </CharString>
        <CharString name="Wdotbelow">
          2024 435 1198 rmoveto
          115 -1203 107 0 609 1184 96 -1184 107 0 616 1181 94 180 39 26 112 15 rlinecurve
          9 47 -394 0 -9 -47 136 -19 10 -33 -82 -166 rlinecurve
          -464 -946 -64 963 -10 156 16 28 135 17 rlinecurve
          9 47 -490 0 -10 -47 135 -21 9 -29 -80 -164 rlinecurve
          -463 -950 -72 964 -11 145 22 38 138 17 rlinecurve
          11 47 -512 0 -9 -47 95 -13 35 -27 15 -159 rlinecurve
          522 -1400 -9 callsubr
          52 113 callsubr
        </CharString>
        <CharString name="Wgrave">
          2024 1371 -41 callsubr
          -1042 -349 -6 callsubr
        </CharString>
        <CharString name="X">
          1265 311 267 27 callsubr
        </CharString>
        <CharString name="Xdieresis">
          1265 904 22 callsubr
          95 callsubr
          302 hmoveto
          -90 callgsubr
          -22 callsubr
          -895 -1324 27 callsubr
        </CharString>
        <CharString name="Xdotaccent">
          1265 1056 1588 rmoveto
          53 44 43 55 51 -39 40 -53 -54 67 callsubr
          -745 -1321 27 callsubr
        </CharString>
        <CharString name="Xigreek">
          1289 1535 1444 rmoveto
          -1135 hlineto
          212 callsubr
          303 hlineto
          254 75 -36 -176 13 hvcurveto
          43 hlineto
          -800 -382 rmoveto
          274 38 callgsubr
          -52 -51 -131 hhcurveto
          -273 hlineto
          -132 -30 51 142 9 hvcurveto
          -41 hlineto
          -96 -450 rlineto
          41 hlineto
          144 52 52 54 132 hhcurveto
          566 -703 rmoveto
          101 399 rlineto
          -43 hlineto
          -220 -99 -82 -29 -293 hhcurveto
          -262 hlineto
          -292 -69 30 219 -6 hvcurveto
          -43 hlineto
          -67 -399 rlineto
          endchar
        </CharString>
        <CharString name="Xigreek.1">
          1322 69 hmoveto
          1171 hlineto
          101 399 rlineto
          -43 hlineto
          -220 -100 -82 -29 -292 hhcurveto
          -110 hlineto
          117 553 rlineto
          117 38 callgsubr
          -53 -51 -130 hhcurveto
          -117 hlineto
          114 535 rlineto
          132 hlineto
          254 75 -36 -176 13 hvcurveto
          43 hlineto
          61 359 -1150 0 212 callsubr
          131 hlineto
          -114 -535 rlineto
          -116 hlineto
          -132 -30 51 142 9 hvcurveto
          -41 hlineto
          -95 -450 rlineto
          40 hlineto
          144 52 52 54 133 hhcurveto
          116 hlineto
          -117 -553 rlineto
          -112 hlineto
          -292 -69 30 219 -6 hvcurveto
          -43 hlineto
          endchar
        </CharString>
        <CharString name="Y">
          1255 470 1195 -75 callsubr
        </CharString>
        <CharString name="Yacute">
          1255 1137 -45 callsubr
          -860 -623 -75 callsubr
        </CharString>
        <CharString name="Ycircumflex">
          1255 830 -80 callsubr
          -24 callsubr
          -307 -352 -75 callsubr
        </CharString>
        <CharString name="Ydieresis">
          1255 884 1591 rmoveto
          -90 callgsubr
          -22 callsubr
          57 callsubr
          51 callsubr
          -715 -396 -75 callsubr
        </CharString>
        <CharString name="Ydotaccent">
          1255 1035 -33 callsubr
          -565 -393 -75 callsubr
        </CharString>
        <CharString name="Ydotbelow">
          1255 470 1195 rmoveto
          195 -529 -106 -497 -19 -87 -22 -21 -154 -15 rlinecurve
          -9 -46 546 0 11 46 -149 16 -15 20 18 87 rlinecurve
          108 504 396 496 145 183 38 29 107 16 rlinecurve
          9 47 -386 0 -9 -47 136 -16 3 -40 -21 callgsubr
          97 -1397 -54 callsubr
          -101 callgsubr
        </CharString>
        <CharString name="Yericyrillic">
          1761 1252 151 callsubr
          203 callsubr
          345 -309 -87 callsubr
          127 -13 12 -20 12 callsubr
          50 callsubr
          -567 320 -16 callgsubr
        </CharString>
        <CharString name="Ygrave">
          1255 969 -41 callsubr
          -605 -352 -75 callsubr
        </CharString>
        <CharString name="Yhookabove">
          1255 1063 60 callsubr
          155 callsubr
          -593 -667 -75 callsubr
        </CharString>
        <CharString name="Yicyrillic">
          613 511 1592 rmoveto
          -90 callgsubr
          38 -50 hhcurveto
          25 callsubr
          hvcurveto
          57 callsubr
          38 -50 25 callsubr
          vhcurveto
          -366 -1421 -87 callsubr
          -89 callsubr
        </CharString>
        <CharString name="Ymacron">
          1255 797 46 callsubr
          -350 -542 -75 callsubr
        </CharString>
        <CharString name="Ytilde">
          1255 1127 5 callsubr
          -73 callgsubr
          17 -42 hhcurveto
          -73 -54 -54 -162 -18 hvcurveto
          45 hlineto
          85 13 -89 callgsubr
          17 callsubr
          -657 -402 -75 callsubr
        </CharString>
        <CharString name="Z">
          1173 1087 hmoveto
          98 -70 callsubr
          10 callsubr
        </CharString>
        <CharString name="Zacute">
          1173 1051 -45 callsubr
          -157 -1818 rmoveto
          98 -70 callsubr
          10 callsubr
        </CharString>
        <CharString name="Zcaron">
          1173 1164 -83 callsubr
          -76 callsubr
          -65 callsubr
          -131 -1841 rmoveto
          98 -70 callsubr
          10 callsubr
        </CharString>
        <CharString name="Zcircumflex">
          1173 744 -80 callsubr
          -24 callsubr
          396 -1547 rmoveto
          98 -70 callsubr
          10 callsubr
        </CharString>
        <CharString name="Zdotaccent">
          1173 949 -33 callsubr
          138 -1588 rmoveto
          98 -70 callsubr
          10 callsubr
        </CharString>
        <CharString name="Zdotbelow">
          1173 1087 hmoveto
          98 -70 callsubr
          9 43 -951 36 callsubr
          -8 -43 rlineto
          462 -202 -44 callsubr
        </CharString>
        <CharString name="Zecyrillic">
          1233 607 -24 rmoveto
          379 251 185 286 188 -155 97 -220 19 hvcurveto
          250 34 199 125 231 vvcurveto
          207 -167 120 -284 -153 -157 -47 -67 -100 vhcurveto
          -77 -321 rlineto
          41 hlineto
          272 104 159 96 179 hhcurveto
          155 82 -108 -147 -221 -143 -150 -246 hvcurveto
          -149 hlineto
          -13 -60 rlineto
          149 hlineto
          210 111 -96 -186 -200 -124 -189 -282 -2 hvcurveto
          -207 -2 -114 153 -11 204 rrcurveto
          -41 hlineto
          -40 -302 rlineto
          -62 78 150 -57 186 hhcurveto
          endchar
        </CharString>
        <CharString name="Zetagreek">
          1173 1087 hmoveto
          98 -70 callsubr
          10 callsubr
        </CharString>
        <CharString name="Zhecyrillic">
          2008 288 hmoveto
          657 715 119 1 -115 -545 -20 -94 -24 -15 -140 -15 rlinecurve
          -9 -47 522 0 9 47 -131 14 -20 16 20 94 rlinecurve
          116 545 121 -1 341 -715 276 0 9 43 -63 25 -41 47 -101 204 rlinecurve
          -258 530 350 318 178 164 74 48 120 18 rlinecurve
          9 47 -424 0 -10 -47 146 -14 -10 -45 -143 -138 rlinecurve
          -436 -422 -125 -1 106 496 19 94 26 16 138 14 rlinecurve
          9 47 -521 0 -10 -47 134 -14 17 -16 -20 -94 rlinecurve
          -106 -496 -120 1 -264 422 -92 145 33 39 140 13 rlinecurve
          10 47 -437 0 -9 -47 116 -21 54 -43 115 -165 rlinecurve
          208 -299 -500 -549 rlineto
          -185 -202 -59 -51 -70 -24 -10 -43 rcurveline
          endchar
        </CharString>
        <CharString name="Zlinebelow">
          1173 1087 hmoveto
          98 -70 callsubr
          9 43 -951 36 callsubr
          -8 -43 rlineto
          213 -349 rmoveto
          471 hlineto
          23 110 rlineto
          -471 hlineto
          endchar
        </CharString>
        <CharString name="a">
          1064 -82 callsubr
          -107 callsubr
          -105 callsubr
          -106 callsubr
          -102 callsubr
          -98 callsubr
        </CharString>
        <CharString name="a.dnum">
          655 116 180 rmoveto
          -120 65 -71 84 78 64 50 88 33 vhcurveto
          -1 -3 -5 -27 -4 vvcurveto
          -67 -12 28 -35 60 hhcurveto
          55 58 26 35 27 hvcurveto
          7 37 rlineto
          -13 -16 -26 -6 -18 hhcurveto
          -24 -12 16 35 8 hvcurveto
          84 394 71 callgsubr
          -185 1 hvcurveto
          141 -6 rmoveto
          126 -1 54 171 112 hhcurveto
          41 28 -18 -22 8 hvcurveto
          -51 -235 rlineto
          -85 -19 -49 -47 -49 hhcurveto
          -45 -27 30 80 -2 hvcurveto
          endchar
        </CharString>
        <CharString name="a.numr">
          655 265 880 rmoveto
          -120 64 -71 84 79 63 50 88 34 vhcurveto
          -1 -3 -6 -27 -4 vvcurveto
          -67 -11 27 -34 60 hhcurveto
          55 58 25 36 27 hvcurveto
          8 36 rlineto
          -13 -17 -25 -6 -18 hhcurveto
          -25 -11 16 35 8 hvcurveto
          84 394 -76 0 -58 -54 rlineto
          34 -16 -40 31 -71 hhcurveto
          -167 -110 -161 -185 1 hvcurveto
          141 -5 rmoveto
          125 -2 54 171 113 hhcurveto
          40 29 -18 -21 7 hvcurveto
          -50 -236 rlineto
          -85 -19 -50 -47 -49 hhcurveto
          -45 -27 30 81 -1 hvcurveto
          endchar
        </CharString>
        <CharString name="a.sups">
          655 305 1068 rmoveto
          -119 65 -71 84 78 64 49 89 34 vhcurveto
          -1 -3 -6 -27 -4 vvcurveto
          -68 -11 27 -34 60 hhcurveto
          55 58 26 35 27 hvcurveto
          7 36 rlineto
          -13 -16 -25 -6 -18 hhcurveto
          -25 -11 17 34 8 hvcurveto
          83 395 71 callgsubr
          -186 1 hvcurveto
          141 -5 rmoveto
          125 -1 54 171 113 hhcurveto
          40 28 -17 -22 8 hvcurveto
          -51 -236 rlineto
          -84 -19 -49 -47 -49 hhcurveto
          -45 -27 30 80 -2 hvcurveto
          endchar
        </CharString>
        <CharString name="aacute">
          1064 898 -88 callsubr
          14 callsubr
          -934 -1131 -101 callsubr
          -107 callsubr
          -105 callsubr
          -106 callsubr
          -102 callsubr
          -98 callsubr
        </CharString>
        <CharString name="abreve">
          1064 786 135 callsubr
          -603 -806 -101 callsubr
          -107 callsubr
          -105 callsubr
          -106 callsubr
          -102 callsubr
          -98 callsubr
        </CharString>
        <CharString name="abreveacute">
          1064 1069 7 callsubr
          194 -272 rmoveto
          150 127 89 136 22 hvcurveto
          -51 39 callsubr
          90 -89 150 hhcurveto
          -560 -762 -101 callsubr
          -107 callsubr
          -105 callsubr
          -106 callsubr
          -102 callsubr
          -98 callsubr
        </CharString>
        <CharString name="abrevecyrillic">
          1064 754 1152 rmoveto
          143 136 79 173 58 hvcurveto
          -51 21 rlineto
          -149 -52 -105 -69 -125 61 callgsubr
          -44 43 -56 -63 -44 -49 -63 -115 97 -78 129 hvcurveto
          -571 -816 -101 callsubr
          -107 callsubr
          -105 callsubr
          -106 callsubr
          -102 callsubr
          -98 callsubr
        </CharString>
        <CharString name="abrevedotbelow">
          1064 786 135 callsubr
          -603 -806 -101 callsubr
          -107 callsubr
          -105 callsubr
          -106 callsubr
          -102 callsubr
          35 callsubr
          185 -724 -77 callsubr
        </CharString>
        <CharString name="abrevegrave">
          1064 569 99 callgsubr
          146 -495 rmoveto
          150 127 89 136 22 hvcurveto
          -51 39 callsubr
          90 -89 150 hhcurveto
          -560 -762 -101 callsubr
          -107 callsubr
          -105 callsubr
          -106 callsubr
          -102 callsubr
          -98 callsubr
        </CharString>
        <CharString name="abrevehookabove">
          1064 820 39 callgsubr
          66 callgsubr
          127 89 136 22 hvcurveto
          -51 39 callsubr
          90 -89 150 hhcurveto
          -560 -762 -101 callsubr
          -107 callsubr
          -105 callsubr
          -106 callsubr
          -102 callsubr
          -98 callsubr
        </CharString>
        <CharString name="abrevetilde">
          1064 915 37 callsubr
          62 callsubr
          58 callgsubr
          -172 -296 rmoveto
          150 127 89 136 22 hvcurveto
          -51 39 callsubr
          90 -89 150 hhcurveto
          -560 -762 -101 callsubr
          -107 callsubr
          -105 callsubr
          -106 callsubr
          -102 callsubr
          -98 callsubr
        </CharString>
        <CharString name="acaron">
          1064 1022 -74 callsubr
          -15 callsubr
          118 0 274 355 rlineto
          -899 -1144 -101 callsubr
          -107 callsubr
          -105 callsubr
          -106 callsubr
          -102 callsubr
          -98 callsubr
        </CharString>
        <CharString name="acircumflex">
          1064 547 -69 callsubr
          -51 callsubr
          -304 -775 -101 callsubr
          -107 callsubr
          -105 callsubr
          -106 callsubr
          -102 callsubr
          -98 callsubr
        </CharString>
        <CharString name="acircumflexacute">
          1064 1069 7 callsubr
          -58 -281 -64 callsubr
          -37 callsubr
          -319 -805 -101 callsubr
          -107 callsubr
          -105 callsubr
          -106 callsubr
          -102 callsubr
          -98 callsubr
        </CharString>
        <CharString name="acircumflexdotbelow">
          1064 547 -69 callsubr
          -51 callsubr
          -304 -775 -101 callsubr
          -107 callsubr
          -105 callsubr
          -106 callsubr
          -102 callsubr
          35 callsubr
          185 -724 -77 callsubr
        </CharString>
        <CharString name="acircumflexgrave">
          1064 569 99 callgsubr
          -106 -504 -64 callsubr
          -37 callsubr
          -319 -805 -101 callsubr
          -107 callsubr
          -105 callsubr
          -106 callsubr
          -102 callsubr
          -98 callsubr
        </CharString>
        <CharString name="acircumflexhookabove">
          1064 1021 39 callgsubr
          72 39 18 79 rlinecurve
          78 17 -71 -49 callgsubr
          -37 callsubr
          -319 -805 -101 callsubr
          -107 callsubr
          -105 callsubr
          -106 callsubr
          -102 callsubr
          -98 callsubr
        </CharString>
        <CharString name="acircumflextilde">
          1064 915 37 callsubr
          62 callsubr
          58 callgsubr
          -104 callgsubr
          -37 callsubr
          -319 -805 -101 callsubr
          -107 callsubr
          -105 callsubr
          -106 callsubr
          -102 callsubr
          -98 callsubr
        </CharString>
        <CharString name="acute">
          1024 901 -88 callsubr
          -79 callsubr
          endchar
        </CharString>
        <CharString name="acutecmb">
          0 389 -88 callsubr
          -79 callsubr
          endchar
        </CharString>
        <CharString name="acutecmb.short">
          0 358 1352 rmoveto
          -212 -271 20 callsubr
          endchar
        </CharString>
        <CharString name="acutedotaccentcmb">
          10 callgsubr
          195 -166 rmoveto
          30 134 -538 -172 -11 -52 rlineto
          endchar
        </CharString>
        <CharString name="acutedotaccentcmb.short">
          0 390 1754 rmoveto
          49 36 32 43 42 -40 33 -49 -47 -36 -33 -42 -43 40 -32 47 hvcurveto
          210 -132 rmoveto
          25 113 -544 -146 -9 -43 rlineto
          endchar
        </CharString>
        <CharString name="acyrillic">
          1064 -82 callsubr
          -107 callsubr
          -105 callsubr
          -106 callsubr
          -102 callsubr
          -98 callsubr
        </CharString>
        <CharString name="adblgrave">
          1064 524 -71 callgsubr
          -169 -5 hlineto
          187 -350 rlineto
          53 hlineto
          -742 -775 -101 callsubr
          -107 callsubr
          -105 callsubr
          -106 callsubr
          -102 callsubr
          -98 callsubr
        </CharString>
        <CharString name="adieresis">
          1064 587 1188 rmoveto
          108 callgsubr
          386 hmoveto
          61 48 48 60 57 -43 43 -59 -60 -49 callsubr
          -790 -852 -101 callsubr
          -107 callsubr
          -105 callsubr
          -106 callsubr
          -102 callsubr
          -98 callsubr
        </CharString>
        <CharString name="adieresismacron">
          1064 559 -37 callgsubr
          86 callgsubr
          -29 38 -47 hhcurveto
          -7 hlineto
          -48 -45 -38 -48 -9 hvcurveto
          -46 -11 29 -37 48 hhcurveto
          -19 callgsubr
          -705 -783 -101 callsubr
          -107 callsubr
          -105 callsubr
          -106 callsubr
          -102 callsubr
          -98 callsubr
        </CharString>
        <CharString name="adotaccent">
          1064 780 -14 callsubr
          -46 45 -35 callsubr
          -597 -846 -101 callsubr
          -107 callsubr
          -105 callsubr
          -106 callsubr
          -102 callsubr
          -98 callsubr
        </CharString>
        <CharString name="adotbelow">
          1064 -82 callsubr
          -107 callsubr
          -105 callsubr
          -106 callsubr
          -102 callsubr
          35 callsubr
          185 -724 -77 callsubr
        </CharString>
        <CharString name="adotmacron">
          1064 557 1405 rmoveto
          501 hlineto
          22 100 rlineto
          -501 hlineto
          187 -384 rmoveto
          52 39 39 50 48 -40 40 -51 -50 -40 -40 -48 -50 40 -39 50 hvcurveto
          -583 -785 -101 callsubr
          -107 callsubr
          -105 callsubr
          -106 callsubr
          -102 callsubr
          -98 callsubr
        </CharString>
        <CharString name="ae">
          1434 267 785 117 callsubr
        </CharString>
        <CharString name="aeacute">
          1434 1107 -88 callsubr
          -79 callsubr
          -1059 -682 117 callsubr
        </CharString>
        <CharString name="aemacron">
          1434 723 8 callsubr
          -482 -556 117 callsubr
        </CharString>
        <CharString name="agrave">
          1064 720 -52 callsubr
          253 -347 rlineto
          51 hlineto
          -645 -775 -101 callsubr
          -107 callsubr
          -105 callsubr
          -106 callsubr
          -102 callsubr
          -98 callsubr
        </CharString>
        <CharString name="ahookabove">
          1064 812 -42 callsubr
          9 callsubr
          53 callsubr
          -629 -1137 -101 callsubr
          -107 callsubr
          -105 callsubr
          -106 callsubr
          -102 callsubr
          -98 callsubr
        </CharString>
        <CharString name="ainvertedbreve">
          1064 785 89 callsubr
          73 68 135 hhcurveto
          109 71 68 callsubr
          91 callgsubr
          -602 -1114 -101 callsubr
          -107 callsubr
          -105 callsubr
          -106 callsubr
          -102 callsubr
          -98 callsubr
        </CharString>
        <CharString name="alphagreek">
          1164 462 -19 163 callsubr
        </CharString>
        <CharString name="alphatonosgreek">
          1164 880 -93 callgsubr
          -8 callsubr
          -622 -1522 163 callsubr
        </CharString>
        <CharString name="amacron">
          1064 515 -46 callgsubr
          -508 hlineto
          -357 -1005 -101 callsubr
          -107 callsubr
          -105 callsubr
          -106 callsubr
          -102 callsubr
          -98 callsubr
        </CharString>
        <CharString name="ampersand">
          1450 150 329 rmoveto
          -198 153 -155 242 169 140 96 160 148 vhcurveto
          191 -232 287 0 10 41 -91 40 -81 88 -98 118 rlinecurve
          -87 105 170 228 128 170 48 33 112 18 rlinecurve
          9 48 -408 0 -9 -48 150 -15 17 -39 -107 -154 rlinecurve
          -141 -203 -296 359 -8 10 -9 10 -8 10 rlinecurve
          269 103 113 123 138 vvcurveto
          162 -127 123 -225 -237 -142 -162 -186 -5 vhcurveto
          -2 -97 37 -107 91 -132 rrcurveto
          -245 -92 -158 -147 -216 vvcurveto
          459 859 rmoveto
          135 80 80 122 125 62 -108 -119 -135 -81 -109 -163 -78 vhcurveto
          -110 146 -35 96 92 vvcurveto
          -273 -778 rmoveto
          179 126 95 119 61 vhcurveto
          17 -23 19 -24 21 -25 333 -404 rcurveline
          -106 -99 -95 -68 -130 hhcurveto
          -176 -135 132 183 hvcurveto
          endchar
        </CharString>
        <CharString name="anoteleiagreek">
          478 425 751 rmoveto
          94 callsubr
          endchar
        </CharString>
        <CharString name="aogonek">
          1064 -82 callsubr
          -107 callsubr
          18 18 2 4 18 hvcurveto
          -183 -128 -70 -102 -92 vvcurveto
          -88 65 -58 94 75 58 36 47 32 vhcurveto
          9 79 callgsubr
          174 144 hvcurveto
          9 49 rlineto
          -28 -35 -49 -14 -33 hhcurveto
          -46 -19 31 58 13 hvcurveto
          -98 callsubr
        </CharString>
        <CharString name="approxequal">
          1163 968 731 rmoveto
          -155 -87 213 -188 hhcurveto
          -131 -125 -86 -224 -43 hvcurveto
          79 -2 rlineto
          159 35 91 59 88 156 85 -213 188 hhcurveto
          131 76 callgsubr
          -100 -469 rmoveto
          -156 -86 212 -188 hhcurveto
          -130 -126 -85 -225 -42 hvcurveto
          78 hlineto
          158 35 92 59 87 156 86 -212 188 hhcurveto
          130 126 86 224 42 hvcurveto
          -78 hlineto
          -157 -33 -94 -60 -87 hhcurveto
          endchar
        </CharString>
        <CharString name="aring">
          1064 552 -12 callgsubr
          135 -22 rmoveto
          91 53 79 62 52 29 -37 -64 -92 -53 -78 -62 -53 -28 37 64 vhcurveto
          -504 -926 -101 callsubr
          -107 callsubr
          -105 callsubr
          -106 callsubr
          -102 callsubr
          -98 callsubr
        </CharString>
        <CharString name="aringacute">
          1064 1070 -20 callgsubr
          -117 -91 -48 -74 -15 hvcurveto
          -74 -16 107 callgsubr
          9 hvcurveto
          40 9 32 30 43 hhcurveto
          48 hlineto
          45 18 -30 -40 -8 hvcurveto
          -40 -9 -31 -30 -45 hhcurveto
          -591 -798 -101 callsubr
          -107 callsubr
          -105 callsubr
          -106 callsubr
          -102 callsubr
          -98 callsubr
        </CharString>
        <CharString name="aringbelow">
          1064 -82 callsubr
          -107 callsubr
          -105 callsubr
          -106 callsubr
          -102 callsubr
          35 callsubr
          -46 -636 rmoveto
          -97 2 101 -58 116 hhcurveto
          147 103 75 103 -4 hvcurveto
          97 -3 -100 58 -116 hhcurveto
          -148 -102 -75 -103 4 hvcurveto
          134 -19 rmoveto
          79 -2 51 67 63 hhcurveto
          51 31 -32 -54 2 hvcurveto
          -78 2 -52 -67 -61 hhcurveto
          -52 -31 31 54 -2 hvcurveto
          endchar
        </CharString>
        <CharString name="asciicircum">
          1163 852 1444 rmoveto
          -527 -580 54 -49 495 529 266 -528 66 48 -280 580 rlineto
          endchar
        </CharString>
        <CharString name="asciitilde">
          1163 922 516 rmoveto
          -155 -87 212 -188 hhcurveto
          -131 -125 -85 -225 -42 hvcurveto
          78 -1 rlineto
          158 34 93 60 87 156 86 -213 188 hhcurveto
          130 76 callgsubr
          endchar
        </CharString>
        <CharString name="asterisk">
          707 644 1472 rmoveto
          -49 -29 -33 -53 -15 0 -17 2 -29 hvcurveto
          16 -180 19 0 91 189 rlineto
          16 34 3 18 16 vvcurveto
          39 -28 31 -41 vhcurveto
          -277 -120 rmoveto
          -43 -24 -35 -34 -31 18 -30 58 -24 hvcurveto
          188 -74 11 17 -98 137 rlineto
          58 -43 -36 16 -31 hhcurveto
          495 -54 rmoveto
          -33 -25 -12 -38 -52 hvcurveto
          -141 -109 7 -17 204 25 rlineto
          77 9 35 29 47 vvcurveto
          38 -30 28 -42 vhcurveto
          -542 -361 rmoveto
          32 24 12 38 53 hvcurveto
          141 109 -7 19 -203 -27 rlineto
          -77 -10 -35 -29 -46 vvcurveto
          -38 30 -28 42 vhcurveto
          562 14 rmoveto
          32 -18 30 -59 23 vhcurveto
          -188 76 -11 -17 99 -138 rlineto
          -59 42 37 -15 31 hhcurveto
          42 25 35 33 hvcurveto
          -344 -189 rmoveto
          48 29 34 53 15 0 17 -2 29 hvcurveto
          -16 179 -19 0 -90 -188 rlineto
          -17 -35 -2 -17 -16 vvcurveto
          -39 28 -32 41 vhcurveto
          endchar
        </CharString>
        <CharString name="at">
          1980 1438 -302 rmoveto
          1 48 rlineto
          -76 -127 -139 -23 -159 hhcurveto
          -399 -314 295 465 553 417 372 483 405 308 -240 -416 -396 -262 -201 -177 -67 -44 43 100 21 hvcurveto
          157 734 -61 0 -132 -136 rlineto
          97 -27 -69 59 -109 hhcurveto
          -265 -187 -317 -299 -193 82 -132 155 114 115 87 162 72 hvcurveto
          -6 -27 -4 -30 -16 vvcurveto
          -138 -14 102 -64 132 hhcurveto
          257 291 245 426 435 -333 282 -457 -520 -451 -394 -606 -486 343 -330 429 163 174 38 79 102 hvcurveto
          -565 644 rmoveto
          256 119 311 185 85 51 -59 -87 13 vhcurveto
          -73 -347 rlineto
          -149 -32 -109 -148 -115 hhcurveto
          -95 -29 98 125 hvcurveto
          endchar
        </CharString>
        <CharString name="atilde">
          1064 889 1169 rmoveto
          87 64 65 198 24 hvcurveto
          -51 hlineto
          -106 -18 -28 -35 -42 hhcurveto
          -29 -22 15 29 -34 hvcurveto
          -32 29 rlineto
          33 -40 -38 22 -50 hhcurveto
          -87 -64 -66 -197 -23 hvcurveto
          50 hlineto
          105 19 26 35 43 hhcurveto
          28 23 -15 -29 34 hvcurveto
          32 -28 rlineto
          -33 39 39 -22 50 hhcurveto
          -706 -833 -101 callsubr
          -107 callsubr
          -105 callsubr
          -106 callsubr
          -102 callsubr
          -98 callsubr
        </CharString>
        <CharString name="austral">
          1308 86 390 rmoveto
          242 hlineto
          -85 -153 -82 -148 -34 -29 -115 -13 rlinecurve
          -9 -47 383 0 11 47 -133 16 -15 29 77 145 rlinecurve
          82 153 545 0 19 -171 14 -125 -21 -32 -142 -15 rlinecurve
          -10 -47 482 0 11 47 -104 12 -22 29 -16 131 rlinecurve
          -21 171 244 0 11 48 -261 0 -29 234 339 0 11 48 -355 0 -89 729 -102 0 -402 -729 -354 0 -10 -48 337 0 -129 -234 rlineto
          -258 hlineto
          488 282 rmoveto
          274 512 58 -512 rlineto
          -483 -282 rmoveto
          126 234 362 0 26 -234 rlineto
          endchar
        </CharString>
        <CharString name="austral.tnum">
          1172 94 438 rmoveto
          -11 -48 219 0 -78 -153 -77 -150 -34 -28 -103 -12 rlinecurve
          -9 -47 350 0 10 47 -122 14 -10 27 74 149 rlinecurve
          75 153 470 0 12 -171 9 -126 -21 -33 -125 -13 rlinecurve
          -9 -47 457 0 10 47 -91 10 -22 29 -12 133 rlinecurve
          -15 171 213 0 11 48 -228 0 -21 233 298 0 11 48 -313 0 -64 730 -107 0 -371 -730 -316 0 -11 -48 302 0 -119 -233 rlineto
          215 281 rmoveto
          249 505 35 -505 rlineto
          -423 -281 rmoveto
          115 233 311 0 17 -233 rlineto
          endchar
        </CharString>
        <CharString name="b">
          -59 callgsubr
          endchar
        </CharString>
        <CharString name="backslash">
          620 456 -288 rmoveto
          89 hlineto
          -104 1876 rlineto
          -89 hlineto
          endchar
        </CharString>
        <CharString name="baht">
          -11 callgsubr
          150 -118 107 -230 30 rrcurveto
          48 227 -47 0 -47 -222 rlineto
          3 -30 -32 1 -34 hhcurveto
          -426 hlineto
          -10 -47 rlineto
          127 -12 13 -22 -19 -88 -224 -1046 rcurveline
          -19 -88 -21 -22 -132 -12 -10 -47 rcurveline
          466 hlineto
          19 19 0 1 19 hvcurveto
          -47 -220 47 0 48 223 rlineto
          362 25 214 160 231 vvcurveto
          -529 912 rmoveto
          105 -4 rlineto
          29 -1 27 -3 25 -4 -120 -560 rcurveline
          -1 -11 -12 0 -12 hhcurveto
          -152 -1 rlineto
          516 325 rmoveto
          -159 -100 -128 -180 -31 vhcurveto
          116 544 rlineto
          110 -35 54 -78 -113 vvcurveto
          -527 -378 rmoveto
          151 -1 rlineto
          12 12 0 -1 11 hvcurveto
          -136 -642 rlineto
          -27 -3 -28 -2 -29 -1 -106 -3 rcurveline
          595 363 rmoveto
          -173 -110 -133 -247 -41 vhcurveto
          134 628 rlineto
          146 -29 77 -109 -143 vvcurveto
          endchar
        </CharString>
        <CharString name="baht.tnum">
          -7 callgsubr
          151 -109 104 -213 30 vhcurveto
          48 228 -47 0 -48 -222 rlineto
          3 -30 -33 1 -34 hhcurveto
          -418 hlineto
          -9 -47 rlineto
          125 -12 13 -22 -19 -88 -224 -1046 rcurveline
          -19 -88 -20 -22 -131 -12 -10 -47 rcurveline
          458 hlineto
          19 20 0 1 19 hvcurveto
          -47 -220 47 0 48 223 rlineto
          346 27 205 159 230 vvcurveto
          -500 912 rmoveto
          99 -3 rlineto
          30 -1 28 -3 25 -5 -120 -560 rcurveline
          -1 -12 -13 0 -13 hhcurveto
          -145 -1 rlineto
          489 327 rmoveto
          -157 -91 -128 -166 -33 vhcurveto
          115 540 rlineto
          96 -36 46 -77 -109 vvcurveto
          -500 -380 rmoveto
          144 -1 rlineto
          13 13 0 -2 12 hvcurveto
          -137 -642 rlineto
          -26 -3 -28 -1 -30 -1 -101 -3 rcurveline
          568 365 rmoveto
          -172 -104 -136 -230 -41 vhcurveto
          134 627 rlineto
          132 -32 68 -108 -138 vvcurveto
          endchar
        </CharString>
        <CharString name="bar">
          620 205 -288 rmoveto
          89 hlineto
          398 1876 rlineto
          -89 hlineto
          endchar
        </CharString>
        <CharString name="bdotaccent">
          1064 639 1648 rmoveto
          65 50 50 65 60 -46 46 -62 -64 -51 -51 -64 -60 46 -46 62 hvcurveto
          450 -1006 rmoveto
          220 -111 134 181 callsubr
          endchar
        </CharString>
        <CharString name="bdotbelow">
          -59 callgsubr
          -364 -1044 -77 callsubr
        </CharString>
        <CharString name="becyrillic">
          1080 1092 565 rmoveto
          227 -127 202 -231 -200 -154 -131 -198 -77 vhcurveto
          19 324 116 199 341 30 15 2 86 7 18 0 241 19 85 75 37 173 rrcurveto
          -46 hlineto
          -21 -53 -50 -19 -148 -5 rrcurveto
          -550 -17 -240 -426 -508 vvcurveto
          -313 139 -173 243 317 187 288 297 vhcurveto
          -201 67 rmoveto
          -269 -104 -322 -198 -120 -64 107 195 268 104 322 200 118 64 -107 -194 vhcurveto
          endchar
        </CharString>
        <CharString name="betagreek">
          1107 57 -460 rmoveto
          199 hlineto
          103 555 rlineto
          -63 49 107 -51 114 hhcurveto
          301 189 213 258 2 hvcurveto
          2 193 -108 166 -229 25 258 42 124 150 1 182 rrcurveto
          183 2 -135 108 -198 hhcurveto
          -242 -152 -153 -329 -71 hvcurveto
          201 66 rmoveto
          237 52 61 113 143 hhcurveto
          100 64 -72 -147 -1 hvcurveto
          -1 -197 -107 -149 -234 -3 rrcurveto
          -30 -142 211 -6 97 -107 -1 -202 rlinecurve
          -212 -1 -147 -144 -185 hhcurveto
          -92 -77 35 66 -55 hvcurveto
          34 153 169 772 5 vvcurveto
          endchar
        </CharString>
        <CharString name="bitcoin">
          -11 callgsubr
          121 -77 94 -152 47 rrcurveto
          54 252 -47 0 -52 -240 rlineto
          14 -62 -72 8 -82 hhcurveto
          -4 hlineto
          46 218 -47 0 -47 -218 -374 0 -10 -47 127 -12 13 -22 -19 -88 rlinecurve
          -224 -1046 -19 -88 -21 -22 -132 -12 rlinecurve
          -10 -47 376 0 -47 -219 48 0 46 219 rlineto
          43 hlineto
          65 62 4 8 57 hvcurveto
          -49 -231 48 0 50 238 rlineto
          284 51 164 148 202 vvcurveto
          -134 663 rmoveto
          -182 -131 -142 -233 vhcurveto
          -152 -1 121 574 105 -4 rlineto
          195 -6 95 -88 -151 vvcurveto
          -72 -668 rmoveto
          -201 -149 -147 -340 -12 vhcurveto
          -106 -3 140 653 151 -1 rlineto
          198 106 -122 -167 hvcurveto
          endchar
        </CharString>
        <CharString name="bitcoin.tnum">
          -7 callgsubr
          123 -72 92 -143 46 vhcurveto
          54 252 -47 0 -51 -239 rlineto
          14 -59 -69 7 -79 hhcurveto
          -14 hlineto
          46 218 -47 0 -46 -218 -357 0 -9 -47 125 -12 13 -22 -19 -88 rlinecurve
          -224 -1046 -19 -88 -20 -22 -131 -12 rlinecurve
          -10 -47 357 0 -47 -219 47 0 47 219 rlineto
          54 hlineto
          61 58 4 7 54 hvcurveto
          -49 -230 48 0 50 238 rlineto
          276 50 159 148 203 vvcurveto
          -132 665 rmoveto
          -183 -123 -143 -221 vhcurveto
          -145 -1 121 574 99 -4 rlineto
          181 -7 88 -86 -150 vvcurveto
          -72 -668 rmoveto
          -202 -143 -148 -324 -11 vhcurveto
          -101 -4 140 653 144 -1 rlineto
          186 -1 98 -121 -165 vvcurveto
          endchar
        </CharString>
        <CharString name="blinebelow">
          -59 callgsubr
          -608 -998 -84 callsubr
        </CharString>
        <CharString name="braceleft">
          620 616 1038 rmoveto
          62 287 rlineto
          145 31 46 70 172 hhcurveto
          10 48 rlineto
          -48 hlineto
          -204 -135 -99 -187 -40 hvcurveto
          -73 -341 rlineto
          -154 -33 -101 -78 -105 hhcurveto
          -8 -41 rlineto
          104 68 -75 -171 -36 hvcurveto
          -84 -394 rlineto
          -190 -40 83 -146 204 hhcurveto
          48 hlineto
          10 48 rlineto
          -172 -5 123 159 33 hvcurveto
          69 317 rlineto
          45 211 -65 110 -171 28 193 28 98 98 44 204 rrcurveto
          endchar
        </CharString>
        <CharString name="braceright">
          620 445 1038 rmoveto
          -42 -204 56 -98 181 -28 -183 -28 -112 -110 -44 -211 -67 -317 rcurveline
          -159 -34 -57 -123 -173 hhcurveto
          -10 -48 rlineto
          48 hlineto
          204 146 146 190 40 hvcurveto
          84 394 rlineto
          171 35 101 75 105 hhcurveto
          8 41 rlineto
          -104 -68 78 154 33 hvcurveto
          72 341 rlineto
          187 39 -93 99 -204 hhcurveto
          -48 hlineto
          -11 -48 rlineto
          172 17 -70 -145 -30 hvcurveto
          endchar
        </CharString>
        <CharString name="bracketleft">
          620 126 -288 rmoveto
          411 hlineto
          10 49 -255 0 380 1778 255 0 10 49 rlineto
          -411 hlineto
          endchar
        </CharString>
        <CharString name="bracketright">
          620 770 1588 rmoveto
          -411 hlineto
          -10 -49 255 0 -380 -1778 -255 0 -10 -49 rlineto
          411 hlineto
          endchar
        </CharString>
        <CharString name="breve">
          1024 789 52 callsubr
          56 callsubr
          44 callsubr
          endchar
        </CharString>
        <CharString name="breveacutecmb">
          -87 callgsubr
          194 -272 rmoveto
          150 46 callgsubr
        </CharString>
</ttFont>
